<?xml version="1.0" encoding="utf-8"?>
<!-- Generator: Adobe Illustrator 21.1.0, SVG Export Plug-In . SVG Version: 6.00 Build 0)  -->
<svg version="1.1" id="Layer_1" xmlns="http://www.w3.org/2000/svg" xmlns:xlink="http://www.w3.org/1999/xlink" x="0px" y="0px"
	 width="209px" height="152px" viewBox="0 0 209 152" style="enable-background:new 0 0 209 152;" xml:space="preserve">
<style type="text/css">
	.st0{fill:#BABBBB;}
</style>
<rect class="st0" width="209" height="152"/>
<g>
	<path d="M106.3,53.8c8.2,0,13.2,3.8,13.2,10.7c0,9.2-9.4,10.4-9.4,17.6H102c0-9.4,7.5-9.9,7.5-15.8c0-2.6-1.6-3.7-4.3-3.7
		c-3,0-4.6,1.8-4.6,5.4h-8.4C92.3,59,97.6,53.8,106.3,53.8z M111.2,91.9c0,3.1-2.2,5.3-5.2,5.3c-3,0-5.2-2.2-5.2-5.3
		c0-3.1,2.1-5.2,5.2-5.2C109,86.7,111.2,88.8,111.2,91.9z"/>
</g>
</svg>
