<?xml version="1.0" encoding="utf-8"?>
<!-- Generator: Adobe Illustrator 21.1.0, SVG Export Plug-In . SVG Version: 6.00 Build 0)  -->
<svg version="1.1" id="Layer_1" xmlns="http://www.w3.org/2000/svg" xmlns:xlink="http://www.w3.org/1999/xlink" x="0px" y="0px"
	 width="25.9px" height="10.3px" viewBox="0 0 25.9 10.3" style="enable-background:new 0 0 25.9 10.3;" xml:space="preserve">
<style type="text/css">
	.st0{fill:#333333;}
</style>
<g>
	<g>
		<path class="st0" d="M5.7,2.4c0,0.9-0.5,1.5-1.4,1.7C5.4,4.3,6.1,5,6.1,6.1c0,1.3-1,2.1-2.8,2.1H0V0.5h3.2
			C4.8,0.5,5.7,1.2,5.7,2.4z M4.8,2.5c0-0.8-0.6-1.2-1.6-1.2H0.9v2.5h2.3C4.2,3.8,4.8,3.3,4.8,2.5z M5.2,6c0-0.9-0.7-1.4-2-1.4H0.9
			v2.7h2.3C4.4,7.3,5.2,6.8,5.2,6z"/>
		<path class="st0" d="M9.8,0v8.2H8.9V0H9.8z"/>
		<path class="st0" d="M18.3,5.3c0,1.7-1.2,2.9-2.9,2.9c-1.7,0-2.9-1.2-2.9-2.9c0-1.7,1.2-2.9,2.9-2.9C17.1,2.3,18.3,3.5,18.3,5.3z
			 M13.3,5.3c0,1.3,0.9,2.2,2.1,2.2c1.2,0,2.1-0.9,2.1-2.2c0-1.3-0.9-2.2-2.1-2.2C14.1,3.1,13.3,4,13.3,5.3z"/>
		<path class="st0" d="M25.9,2.4v5.2c0,1.7-1.2,2.8-2.9,2.8c-0.9,0-1.7-0.3-2.4-0.8L21,8.8c0.6,0.5,1.2,0.7,1.9,0.7
			c1.3,0,2.1-0.8,2.1-2V6.7c-0.4,0.8-1.2,1.2-2.1,1.2c-1.6,0-2.6-1.2-2.6-2.8c0-1.6,1.1-2.8,2.6-2.8c1,0,1.7,0.4,2.2,1.2V2.4H25.9z
			 M25.1,5.1c0-1.2-0.8-2.1-2-2.1c-1.2,0-2,0.9-2,2.1c0,1.2,0.8,2.1,2,2.1C24.2,7.2,25.1,6.3,25.1,5.1z"/>
	</g>
</g>
</svg>
