<?xml version="1.0" encoding="utf-8"?>
<!-- Generator: Adobe Illustrator 21.1.0, SVG Export Plug-In . SVG Version: 6.00 Build 0)  -->
<svg version="1.1" id="Layer_1" xmlns="http://www.w3.org/2000/svg" xmlns:xlink="http://www.w3.org/1999/xlink" x="0px" y="0px"
	 width="90.4px" height="17.5px" viewBox="0 0 90.4 17.5" style="enable-background:new 0 0 90.4 17.5;" xml:space="preserve">
<style type="text/css">
	.st0{fill:#B9B9BA;}
</style>
<g>
	<path id="XMLID_48_" class="st0" d="M7.1,2.7C6,2.7,5.7,3.2,5.7,4.3V6h2.8L8.3,8.8H5.7v8.5H2.3V8.8H0V6h2.3V4.3
		C2.3,1.5,3.4,0,6.6,0c0.7,0,1.5,0,2,0.1v2.6"/>
	<path class="st0" d="M8.8,11.3c0-3.1,1.5-5.5,4.6-5.5c1.7,0,2.7,0.9,3.2,2V6h3.3v11.3h-3.3v-1.7c-0.5,1.1-1.5,1.9-3.2,1.9
		c-3.1,0-4.6-2.4-4.6-5.5 M12.2,12c0,1.7,0.6,2.8,2.2,2.8c1.4,0,2.1-1,2.1-2.6V11c0-1.6-0.7-2.6-2.1-2.6c-1.6,0-2.2,1.1-2.2,2.8V12z
		"/>
	<path id="XMLID_45_" class="st0" d="M27,5.7c1.3,0,2.6,0.3,3.3,0.8l-0.8,2.4c-0.5-0.3-1.4-0.5-2.3-0.5c-1.8,0-2.6,1.1-2.6,2.9v0.7
		c0,1.8,0.8,2.9,2.6,2.9c0.9,0,1.8-0.3,2.3-0.5l0.8,2.4c-0.7,0.5-1.9,0.8-3.3,0.8c-4,0-5.8-2.2-5.8-5.6v-0.5C21.2,7.9,23,5.7,27,5.7
		"/>
	<path class="st0" d="M30.7,12v-1c0-3.2,1.8-5.3,5.5-5.3c3.5,0,5,2.1,5,5.3v1.8h-7.2c0.1,1.5,0.8,2.2,2.6,2.2c1.3,0,2.6-0.3,3.6-0.7
		l0.6,2.3c-0.9,0.5-2.7,0.8-4.4,0.8C32.3,17.5,30.7,15.4,30.7,12 M34.1,10.6h4.1v-0.3c0-1.2-0.5-2.2-2-2.2
		C34.7,8.1,34.1,9.1,34.1,10.6"/>
	<path class="st0" d="M53.9,12c0,3.1-1.5,5.5-4.6,5.5c-1.7,0-2.9-0.9-3.4-1.9v1.7h-3.2V0.3L46.1,0v7.5c0.5-1,1.6-1.8,3.2-1.8
		c3.1,0,4.6,2.4,4.6,5.5 M50.5,11.2c0-1.6-0.6-2.8-2.2-2.8c-1.4,0-2.2,1-2.2,2.6v1.2c0,1.6,0.8,2.6,2.2,2.6c1.6,0,2.2-1.2,2.2-2.8
		V11.2z"/>
	<path class="st0" d="M55,11.9v-0.6c0-3.2,1.8-5.6,5.6-5.6c3.8,0,5.6,2.3,5.6,5.6v0.6c0,3.2-1.8,5.6-5.6,5.6
		C56.9,17.5,55,15.1,55,11.9 M62.8,11.1c0-1.5-0.6-2.7-2.2-2.7c-1.6,0-2.2,1.2-2.2,2.7v1c0,1.5,0.6,2.7,2.2,2.7
		c1.6,0,2.2-1.2,2.2-2.7V11.1z"/>
	<path class="st0" d="M67.4,11.9v-0.6c0-3.2,1.8-5.6,5.6-5.6c3.8,0,5.6,2.3,5.6,5.6v0.6c0,3.2-1.8,5.6-5.6,5.6
		C69.2,17.5,67.4,15.1,67.4,11.9 M75.2,11.1c0-1.5-0.6-2.7-2.2-2.7c-1.6,0-2.2,1.2-2.2,2.7v1c0,1.5,0.6,2.7,2.2,2.7
		c1.6,0,2.2-1.2,2.2-2.7V11.1z"/>
	<polyline id="XMLID_32_" class="st0" points="83.3,11.4 86.6,6 90.3,6 86.7,11.5 90.4,17.2 86.8,17.2 83.3,11.7 83.3,17.2 
		79.9,17.2 79.9,0.3 83.3,0 	"/>
</g>
</svg>
