<?xml version="1.0" encoding="utf-8"?>
<!-- Generator: Adobe Illustrator 21.1.0, SVG Export Plug-In . SVG Version: 6.00 Build 0)  -->
<svg version="1.1" id="Layer_1" xmlns="http://www.w3.org/2000/svg" xmlns:xlink="http://www.w3.org/1999/xlink" x="0px" y="0px"
	 width="80px" height="22.6px" viewBox="0 0 80 22.6" style="enable-background:new 0 0 80 22.6;" xml:space="preserve">
<style type="text/css">
	.st0{fill:#B9B9BA;}
</style>
<path class="st0" d="M2.1,1.5C3.6,0,4.6,0,4.6,0s0.3,0,1,0.2c0.7,0.3,0.7,0.6,0.7,0.6v10.9c0.1,3-0.7,4.2-1.6,5
	c-0.5,0.4-0.9,0.5-1,0.5c-0.1,0-0.2,0-0.2-0.2c0-0.2,0.1-0.6,0.1-0.6c0.5-1.2,0.4-3.2,0.4-3.2l0-11.7c0,0,0-0.2-0.1-0.1
	C2.2,2.9,2,5.1,1.9,6.1c0,1.6,0.7,2.4,0.7,2.4s0.2,0.2,0.2,0.4c0,0.3-0.3,0.3-0.3,0.3C1.8,9.1,0.7,8.3,0.3,7.4C0,6.8,0,6,0,6
	C0,5.1,0.6,3,2.1,1.5z M80,11.9c0,3.5-2.1,3.4-2.1,3.4c-2,0.1-2.5-2.1-2.7-4.2c-0.1-1.6,0-3.4,0-3.4s0-0.1-0.1,0
	c-0.7,1.2-1.1,3.1-1.4,4.5c-0.2,1-0.2,1.9-0.2,1.9s0,0.2-0.1,0.3c-1.1,0.5-1.8-0.2-2-1c-0.3-0.8-0.5-5.3-0.5-5.5
	c0-0.2-0.2-0.1-0.2-0.1c-1.5,2.5-1.5,6.2-1.5,7c0,0.8-1.3,0.5-1.3,0.5c-1.1-0.1-1.1-0.6-1.1-0.6l0-0.9c-0.4,0.7-1.1,1.6-2.2,1.5
	c-1.6-0.1-2-1.8-2-2.1c0,0-0.8,2.1-3.1,2.1c-1.5,0-2.1-1.6-2.1-1.6s-0.6,1.7-2.1,1.6c-1.5-0.1-2.7-1.8-2.6-4
	c0.1-2.2,0.4-3.4,0.4-3.4s0.1-0.2-0.1-0.2c-0.2,0-1.5,0-1.5,0s-0.7,2.9-3.8,6.6c0,0,0,1.1,0,2.4c0,2.4-0.3,5.6-3.6,5.9
	c-2.8-0.2-2.7-2.4-2.7-2.4c-0.1-0.6,0.3-1.8,2-3.4c1.7-1.6,2.4-2.2,2.4-2.2l-0.1-1c-1.1,1.8-2.7,1.7-2.7,1.7s-1.3,0.3-2.3-1.6
	c-0.3,0.6-1,1.8-2.2,1.6c-1.6-0.2-2-1.8-2-2.1c0,0-0.8,2.1-3.1,2.1c-1.5,0-2.1-1.6-2.1-1.6c-0.2-0.3-0.3-0.8-0.4-1.1
	c0,0.1,0,0.1-0.1,0.2c-0.3,0.9-1.2,2.4-2.5,2.5c-2.4,0-2.5-3.8-2.5-3.8c-0.7,1.7-2.1,3.8-4.6,3.8c-2.6,0-2.9-0.9-2.9-1.1
	c0-0.1,0-0.3,0.2-0.7c0.3-0.4,0.5-0.6,0.7-0.6c0.2,0,0.6,0.3,0.6,0.3s0.6,0.5,1.2,0.5c0.8,0,1-0.7,1-1.3c0.1-0.7-0.4-1.4-1.1-1.9
	c-0.6-0.6-1.1-1-1.1-1C19,11,18.3,12.1,17.7,13c-1.2,2-2.5,2.3-3,2.3c-0.7-0.1-1.3-0.8-1.3-2.7c0-2,0.1-5.3,0.1-5.5
	c0-0.2-0.2-0.1-0.2-0.1c-2.5,2.6-3.2,8-3.2,8.1c0,0.1-0.2,0.2-0.4,0.2c-0.2,0,0.1,0-0.8,0c-0.9,0-0.8-1.7-0.8-1.7l0.1-8
	c0-0.3,0.3-0.4,1.1-0.2c0.8,0.2,0.8,0.5,0.8,0.5l0,4.6c2.1-6.3,3.8-5.3,4.8-4.9c1,0.5,0.8,1.2,0.8,1.2s-0.1,3.5-0.1,4.7
	c0,1.2,0.1,1.7,0.4,1.8c0.7,0.2,3.1-4.6,3.1-4.6c-1.1-1.2-0.5-2.6,0.4-3.2c0.6-0.4,1.3-0.5,1.3-0.5s1.1-0.1,1.1,0.9
	c0,1-1.1,2.2-1.1,2.2c2.2,1.6,3.2,2.4,3.4,3.6c0.1,0.6-0.1,0.9-0.1,0.9c1.6-1.3,1.7-2.9,1.7-2.9l0-5l-2.3,0c0,0-0.2,0-0.2-0.4
	c0-0.8,0.4-1.1,0.4-1.1l2.2,0c0,0,0.1-2.3,0.1-2.6C26,0,26.3,0,27.3,0.2c1,0.2,1,0.5,1,0.5l-0.1,2.7c0,0,2.4,0.1,2.7,0.1
	c0.3,0,0.4,0.1,0.4,0.7c-0.1,0.5-0.4,0.7-0.4,0.7l-2.7,0.1l-0.2,5.8c0,0.9,0,3,0.9,3c1.2,0.1,1.9-2.6,1.9-2.6l0,0
	c0-0.4,0-0.9,0.1-1.5C31,7.5,32,5,34.1,5c0,0,1.3,0,2,1.3l0-0.5c0,0,0-0.6,0.9-0.4c0.9,0.1,1.2,0.5,1.2,0.8c0,0-0.2,3.7-0.1,5.9
	c0.1,1.3,0.3,2,1,2c0.6-0.1,1-0.8,1.2-1.5C39.6,5.8,43.3,5,43.3,5s1.6-0.1,2.4,1.2l0-0.5c0,0-0.1-0.6,0.8-0.4c0,0,0.4,0,0.7,0.2
	c0.4,0.1,0.5,0.2,0.5,0.6c0,0.4-0.1,6.7-0.1,6.7s1.9-2.6,2.4-5.1c0,0-0.7-0.5-0.6-1.2c0-0.7,0.4-1.6,1.5-1.6c1.1,0,1.1,0.9,0.9,1.6
	c0,0,0.9-0.1,1.7-0.3c0.8-0.2,1.8-0.3,1.9,0.9c0,0.4-0.1,0.8-0.1,0.8s-0.6,2.7-0.5,3.7c0.1,1.1,0.4,2.7,1.2,2.5
	c0.8-0.2,1.1-1.4,1.1-1.4s-0.3-1.4-0.2-3c0.2-2.1,1.2-4.6,3.3-4.6c0,0,1.3,0,2,1.3l0-0.5c0,0,0-0.6,0.9-0.4c0.9,0.1,1.2,0.5,1.2,0.8
	c0,0-0.2,3.7-0.1,5.9c0.1,1.3,0.3,2,1,2c0.6,0,1.1-1.1,1.5-1.9l0-0.3l0-6.2c0.1-0.4,0.4-0.4,0.4-0.4l0.7,0.1c1,0.2,0.9,0.6,0.9,0.6
	v3.5c0.8-2.4,1.2-3.3,1.5-3.9c0.3-0.5,1.3-0.2,1.3-0.2s1.1,0.3,1.1,1.3c0,1.6,0.2,4.3,0.2,4.3c0,0,0,0.1,0.1,0c0,0,0-0.1,0-0.1
	c0.2-1.7,1.2-4.5,1.6-5.2C74.9,4.9,76,5.4,76,5.4c1.3,0.5,1.2,1.3,1.2,1.3c-0.4,6.8,0.4,7.3,0.9,7.3c0.5,0,0.8-0.6,0.9-0.9
	c0.1-0.3,0.2-1,0.3-1.2c0.1-0.3,0.3-0.3,0.3-0.3S80,11.7,80,11.9z M34.7,6.7c-0.5,0-1.6,0.3-1.8,3.4c-0.2,3.1,0.6,3.9,1.3,4
	c0.7,0.1,1.9-1,2-4.3C36.2,6.5,34.7,6.7,34.7,6.7z M44.3,6.7c-0.5,0-1.7,0.4-2,3.4c-0.2,3.1,0.6,3.9,1.3,4c0.7,0.1,1.9-1,2-4.3
	C45.8,6.5,44.3,6.7,44.3,6.7z M45.9,16.2c-2.7,2.4-3,4-3,4s-0.3,1.4,1,1.4c1.6,0.2,1.8-1.8,1.9-3.4C45.9,17.5,45.9,16.2,45.9,16.2z
	 M60.8,6.8c-0.5,0-1.6,0.3-1.8,3.4c-0.2,3.1,0.6,3.9,1.3,4c0.7,0.1,1.9-1,2-4.3C62.4,6.6,60.8,6.8,60.8,6.8z"/>
</svg>
