<?xml version="1.0" encoding="utf-8"?>
<!-- Generator: Adobe Illustrator 21.1.0, SVG Export Plug-In . SVG Version: 6.00 Build 0)  -->
<svg version="1.1" id="Layer_1" xmlns="http://www.w3.org/2000/svg" xmlns:xlink="http://www.w3.org/1999/xlink" x="0px" y="0px"
	 width="73.5px" height="18px" viewBox="0 0 73.5 18" style="enable-background:new 0 0 73.5 18;" xml:space="preserve">
<style type="text/css">
	.st0{fill:#B9B9BA;}
</style>
<g>
	<polyline class="st0" points="0,2.7 2.8,2.7 2.8,12.8 7.9,12.8 7.9,15.4 0,15.4 0,2.7 	"/>
	<path class="st0" d="M9.2,6.8h2.7v8.6H9.2V6.8z M10.5,2.5C11.3,2.5,12,3.2,12,4c0,0.9-0.7,1.5-1.5,1.5C9.6,5.6,8.9,4.9,8.9,4
		C8.9,3.2,9.6,2.5,10.5,2.5"/>
	<polyline class="st0" points="23,2.7 25.7,2.7 25.7,10.2 28.7,6.7 32,6.7 28.5,10.7 31.9,15.4 28.5,15.4 25.7,11.1 25.7,11.1 
		25.7,15.4 23,15.4 23,2.7 	"/>
	<path class="st0" d="M13.3,6.8h2.6v1.2h0c0.4-0.7,1.2-1.4,2.5-1.4c2.7,0,3.2,1.8,3.2,4.1v4.7H19v-4.2c0-1,0-2.3-1.4-2.3
		c-1.4,0-1.6,1.1-1.6,2.2v4.3h-2.7V6.8"/>
	<path class="st0" d="M37.6,10.1c0-0.9-0.7-1.6-1.6-1.6c-1.2,0-1.8,0.8-1.9,1.6H37.6 M39.8,13.9c-0.9,1.1-2.3,1.7-3.7,1.7
		c-2.7,0-4.8-1.8-4.8-4.5c0-2.8,2.1-4.5,4.8-4.5c2.5,0,4.1,1.8,4.1,4.5v0.8h-6.2c0.2,1,1,1.7,2,1.7c0.9,0,1.5-0.4,1.9-1.1L39.8,13.9
		z"/>
	<path class="st0" d="M45.8,8.8c-1.3,0-2.1,0.9-2.1,2.2c0,1.3,0.8,2.2,2.1,2.2c1.3,0,2.1-0.9,2.1-2.2C48,9.7,47.2,8.8,45.8,8.8
		 M50.4,15.3H48v-1.1h0c-0.4,0.6-1.4,1.4-2.7,1.4c-2.6,0-4.3-1.9-4.3-4.5c0-2.4,1.5-4.6,4-4.6c1.1,0,2.1,0.3,2.7,1.1h0v-5h2.7V15.3z
		"/>
	<path class="st0" d="M69.8,0H54.4c-0.7,0-1.3,0.6-1.3,1.3v15.4c0,0.7,0.6,1.3,1.3,1.3h15.4c0.7,0,1.3-0.6,1.3-1.3V1.3
		C71.1,0.6,70.5,0,69.8,0 M55.8,6.8h2.7v8.6h-2.7V6.8z M57.1,5.6c-0.9,0-1.5-0.7-1.5-1.6c0-0.9,0.7-1.5,1.5-1.5
		c0.9,0,1.5,0.7,1.5,1.5C58.6,4.9,57.9,5.6,57.1,5.6z M68.4,15.4h-2.7v-4.2c0-1,0-2.3-1.4-2.3c-1.4,0-1.6,1.1-1.6,2.2v4.3h-2.7V6.8
		h2.6v1.2h0c0.4-0.7,1.2-1.4,2.5-1.4c2.7,0,3.2,1.8,3.2,4.1V15.4z"/>
	<polyline class="st0" points="71.7,14.6 72,14.6 72,15.4 72.1,15.4 72.1,14.6 72.4,14.6 72.4,14.4 71.7,14.4 71.7,14.6 	"/>
	<polyline class="st0" points="73.3,14.4 73,15.1 72.7,14.4 72.5,14.4 72.5,15.4 72.7,15.4 72.7,14.6 73,15.4 73.1,15.4 73.3,14.6 
		73.3,15.4 73.5,15.4 73.5,14.4 73.3,14.4 	"/>
</g>
</svg>
