<?xml version="1.0" encoding="utf-8"?>
<!-- Generator: Adobe Illustrator 21.1.0, SVG Export Plug-In . SVG Version: 6.00 Build 0)  -->
<svg version="1.1" id="Layer_1" xmlns="http://www.w3.org/2000/svg" xmlns:xlink="http://www.w3.org/1999/xlink" x="0px" y="0px"
	 width="34.9px" height="8.2px" viewBox="0 0 34.9 8.2" style="enable-background:new 0 0 34.9 8.2;" xml:space="preserve">
<style type="text/css">
	.st0{fill:#333333;}
</style>
<g>
	<g>
		<path class="st0" d="M8.1,4.3c0,2.2-1.8,3.9-4,3.9c-2.3,0-4-1.7-4-3.9s1.8-3.9,4-3.9C6.3,0.4,8.1,2.1,8.1,4.3z M0.9,4.3
			C0.9,6,2.3,7.4,4,7.4S7.2,6,7.2,4.3S5.7,1.3,4,1.3S0.9,2.6,0.9,4.3z"/>
		<path class="st0" d="M13.6,7.8c-0.4,0.3-0.8,0.4-1.3,0.4c-0.8,0-1.5-0.5-1.5-1.6V3.2H10V2.5h0.8V1h0.8v1.5h1.8v0.7h-1.8v3.2
			c0,0.7,0.3,1,0.8,1c0.3,0,0.6-0.1,0.9-0.3L13.6,7.8z"/>
		<path class="st0" d="M21.4,4.6v3.6h-0.9V4.8c0-1-0.6-1.6-1.6-1.6c-1.2,0-2,0.9-2,2.2v2.8h-0.9V0h0.9v3.7c0.4-0.9,1.2-1.3,2.3-1.3
			C20.6,2.3,21.4,3.2,21.4,4.6z"/>
		<path class="st0" d="M29.4,5.6h-4.7c0.1,1.1,1,1.9,2.1,1.9c0.7,0,1.3-0.3,1.8-0.7L29,7.2c-0.5,0.6-1.4,1-2.3,1
			c-1.7,0-2.9-1.2-2.9-2.9c0-1.7,1.2-2.9,2.9-2.9C28.5,2.3,29.5,3.6,29.4,5.6z M28.6,4.9c-0.1-1.1-0.8-1.8-1.9-1.8
			c-1.1,0-1.9,0.7-2,1.8H28.6z"/>
		<path class="st0" d="M34.9,2.3v0.8c-1.2,0-2,0.7-2.1,1.9v3.1h-0.9V2.4h0.9v1.3C33.2,2.8,33.9,2.4,34.9,2.3z"/>
	</g>
</g>
</svg>
