<?xml version="1.0" encoding="utf-8"?>
<!-- Generator: Adobe Illustrator 21.1.0, SVG Export Plug-In . SVG Version: 6.00 Build 0)  -->
<svg version="1.1" id="Layer_1" xmlns="http://www.w3.org/2000/svg" xmlns:xlink="http://www.w3.org/1999/xlink" x="0px" y="0px"
	 width="88.3px" height="17.7px" viewBox="0 0 88.3 17.7" style="enable-background:new 0 0 88.3 17.7;" xml:space="preserve">
<style type="text/css">
	.st0{opacity:0.5;}
	.st1{fill:#7A7575;}
</style>
<g class="st0">
	<path class="st1" d="M4.4,5.9c-0.7,0-1.2,0.2-1.2,0.8c0,1.5,5.4,0.8,5.4,4.3c0,2.1-1.8,3.2-4.1,3.2c-1.6,0-3.3-0.5-4.4-1.4l0.9-2
		C2,11.6,3.4,12,4.5,12c0.7,0,1.3-0.2,1.3-0.8c0-1.6-5.3-0.8-5.3-4.3c0-2.1,1.8-3.2,4-3.2c1.4,0,2.8,0.4,4,1.1l-1,2
		C6.4,6.2,5.2,5.9,4.4,5.9z"/>
	<path class="st1" d="M20.6,7.6V14h-2.9V8.5c0-1.3-0.8-2.1-2-2.1c-1.5,0-2.3,1.1-2.3,2.6v5h-2.9V3.9h2.9v1.8
		c0.7-1.3,1.9-1.9,3.5-1.9C19.2,3.7,20.6,5.3,20.6,7.6z"/>
	<path class="st1" d="M29.1,14v-1.2c-0.7,0.9-1.8,1.3-3.2,1.3c-2.2,0-3.5-1.3-3.5-3.2c0-1.9,1.4-3,3.9-3.1H29V7.7
		C29,6.7,28.3,6,26.9,6c-0.9,0-2,0.3-3,0.9l-0.9-2c1.5-0.8,2.8-1.2,4.6-1.2c2.7,0,4.3,1.4,4.3,3.6l0,6.6H29.1z M29,10.5V9.6h-2.3
		c-1.1,0-1.7,0.3-1.7,1.2c0,0.8,0.6,1.3,1.6,1.3C27.9,12.1,28.9,11.4,29,10.5z"/>
	<path class="st1" d="M45.4,9c0,3.1-1.9,5.1-4.7,5.1c-1.4,0-2.5-0.6-3.3-1.6v5.1h-2.9V3.9h2.9v1.5c0.7-1,1.8-1.6,3.2-1.6
		C43.5,3.8,45.4,5.9,45.4,9z M42.5,8.9c0-1.6-1-2.8-2.5-2.8s-2.5,1.2-2.5,2.8c0,1.7,1,2.8,2.5,2.8S42.5,10.6,42.5,8.9z"/>
	<path class="st1" d="M51.8,6.2c-1.4,0-2.4,1.1-2.4,2.7c0,1.6,1,2.8,2.4,2.8c1,0,1.9-0.4,2.4-1.2l2,1.4c-0.9,1.4-2.4,2.2-4.5,2.2
		c-3.1,0-5.2-2.1-5.2-5.2c0-3.1,2.1-5.2,5.2-5.2c1.9,0,3.5,0.8,4.4,2.1l-2,1.4C53.6,6.6,52.8,6.2,51.8,6.2z"/>
	<path class="st1" d="M68.2,7.6V14h-2.9V8.5c0-1.3-0.8-2.1-2-2.1C61.9,6.4,61,7.5,61,9v5h-2.9V0H61v5.7c0.7-1.3,1.9-1.9,3.5-1.9
		C66.8,3.7,68.2,5.3,68.2,7.6z"/>
	<path class="st1" d="M76.6,14v-1.2c-0.7,0.9-1.8,1.3-3.2,1.3c-2.2,0-3.5-1.3-3.5-3.2c0-1.9,1.4-3,3.9-3.1h2.8V7.7
		c0-1.1-0.7-1.7-2.1-1.7c-0.9,0-2,0.3-3,0.9l-0.9-2c1.5-0.8,2.8-1.2,4.6-1.2c2.7,0,4.3,1.4,4.3,3.6l0,6.6H76.6z M76.6,10.5V9.6h-2.3
		c-1.1,0-1.7,0.3-1.7,1.2c0,0.8,0.6,1.3,1.6,1.3C75.5,12.1,76.5,11.4,76.6,10.5z"/>
	<path class="st1" d="M88.3,13.5c-0.8,0.4-1.7,0.7-2.6,0.7c-1.8,0-3.2-1-3.2-3.1V6.3H81v-2h1.4V1.5h2.9v2.8h2.8v2h-2.8v4.2
		c0,0.9,0.4,1.2,1,1.2c0.4,0,0.8-0.1,1.4-0.4L88.3,13.5z"/>
</g>
</svg>
