<?xml version="1.0" encoding="utf-8"?>
<!-- Generator: Adobe Illustrator 21.1.0, SVG Export Plug-In . SVG Version: 6.00 Build 0)  -->
<svg version="1.1" id="Layer_1" xmlns="http://www.w3.org/2000/svg" xmlns:xlink="http://www.w3.org/1999/xlink" x="0px" y="0px"
	 width="74.3px" height="14.9px" viewBox="0 0 74.3 14.9" style="enable-background:new 0 0 74.3 14.9;" xml:space="preserve">
<style type="text/css">
	.st0{fill:#B9B9BA;}
</style>
<g>
	<path class="st0" d="M6.1,14.9C2.7,14.9,0,12.1,0,8.7l0-7C0,0.8,0.8,0,1.8,0c1,0,1.7,0.8,1.7,1.7v2.6h4.4c1,0,1.7,0.8,1.7,1.7
		c0,1-0.8,1.7-1.7,1.7H3.5v0.9c0,1.4,1.2,2.6,2.6,2.6h2.6c1,0,1.7,0.8,1.7,1.7c0,1-0.8,1.7-1.7,1.7H6.1z"/>
	<path class="st0" d="M40.6,14.9c-3.4,0-6.1-2.7-6.1-6.1v-7c0-1,0.8-1.7,1.7-1.7c1,0,1.7,0.8,1.7,1.7v2.6h2.6c1,0,1.7,0.8,1.7,1.7
		c0,1-0.8,1.7-1.7,1.7H38v0.9c0,1.4,1.2,2.6,2.6,2.6h0.9c1,0,1.7,0.8,1.7,1.7c0,1-0.8,1.7-1.7,1.7H40.6z"/>
	<path class="st0" d="M49.8,14.9c-3.4,0-6.1-2.7-6.1-6.1v-7c0-1,0.8-1.7,1.7-1.7c1,0,1.7,0.8,1.7,1.7v2.6h2.6c1,0,1.7,0.8,1.7,1.7
		c0,1-0.8,1.7-1.7,1.7h-2.6v0.9c0,1.4,1.2,2.6,2.6,2.6h0.9c1,0,1.7,0.8,1.7,1.7c0,1-0.8,1.7-1.7,1.7H49.8z"/>
	<path class="st0" d="M64.7,9.6c0-2.9,2.3-5.2,5.2-5.2h2.6c1,0,1.7,0.8,1.7,1.7c0,1-0.8,1.7-1.7,1.7h-2.6c-1,0-1.7,0.8-1.7,1.7
		l0,3.5c0,1-0.8,1.7-1.7,1.7c-1,0-1.7-0.8-1.7-1.7V9.6z"/>
	<path class="st0" d="M26.7,4.4c-1,0-1.7,0.8-1.7,1.7v3.5c0,1-0.8,1.7-1.7,1.7c-1,0-1.7-0.8-1.7-1.7V6.1c0-1-0.8-1.7-1.7-1.7
		c-1,0-1.7,0.8-1.7,1.7v3.5c0,1-0.8,1.7-1.7,1.7c-1,0-1.7-0.8-1.7-1.7V6.1c0-1-0.8-1.7-1.7-1.7c-1,0-1.7,0.8-1.7,1.7v3.5
		c0,2.9,2.3,5.2,5.2,5.2c1.3,0,2.6-0.5,3.5-1.3c0.9,0.8,2.2,1.3,3.5,1.3c2.9,0,5.2-2.3,5.2-5.2V6.1C28.4,5.2,27.6,4.4,26.7,4.4z"/>
	<g>
		<path class="st0" d="M31.5,4.4c-1,0-1.7,0.8-1.7,1.7v7c0,1,0.8,1.7,1.7,1.7c1,0,1.7-0.8,1.7-1.7v-7C33.2,5.2,32.4,4.4,31.5,4.4z"
			/>
		<circle class="st0" cx="31.5" cy="1.7" r="1.7"/>
	</g>
	<path class="st0" d="M63.4,8.7c0,0.6-0.3,1.7-1.2,1.7c-0.7,0-5.8,0-5.8,0c0.2,0.8,0.9,1.3,1.7,1.3h3.7c0.8,0,1.5,0.7,1.5,1.5
		c0,0.8-0.7,1.5-1.5,1.5h-3.7c-2.9,0-5.2-2.4-5.2-5.7c0-2.9,2.3-4.8,5.2-4.8C61,4.4,63.4,6.3,63.4,8.7L63.4,8.7z M59.9,8.3
		c0-0.8-0.8-1.5-1.7-1.5c-1,0-1.7,0.7-1.7,1.5H59.9z"/>
</g>
</svg>
