<?xml version="1.0" encoding="utf-8"?>
<!-- Generator: Adobe Illustrator 21.1.0, SVG Export Plug-In . SVG Version: 6.00 Build 0)  -->
<svg version="1.1" id="Layer_1" xmlns="http://www.w3.org/2000/svg" xmlns:xlink="http://www.w3.org/1999/xlink" x="0px" y="0px"
	 width="86.5px" height="14.4px" viewBox="0 0 86.5 14.4" style="enable-background:new 0 0 86.5 14.4;" xml:space="preserve">
<style type="text/css">
	.st0{fill:#333333;}
</style>
<g>
	<g>
		<path class="st0" d="M1.7,0.8l3.7,11.8L9,0.8h1.5l3.7,11.8L18,0.8h1.6L15,14.3h-1.6L9.8,2.9L6.1,14.3H4.5L0,0.8H1.7z"/>
		<path class="st0" d="M31.1,9.8h-8.3c0.3,2,1.7,3.3,3.7,3.3c1.3,0,2.4-0.5,3.1-1.3l0.8,0.9c-1,1.1-2.4,1.7-4.1,1.7
			c-3,0-5.1-2.1-5.1-5.1s2.1-5.1,5-5.1C29.6,4.1,31.3,6.4,31.1,9.8z M29.8,8.6c-0.1-2-1.4-3.2-3.4-3.2c-2,0-3.3,1.3-3.6,3.2H29.8z"
			/>
		<path class="st0" d="M46,9.3c0,3-2,5.1-4.8,5.1c-1.8,0-3.2-0.8-4-2.2v2.2h-1.5V0h1.5v6.4c0.8-1.4,2.1-2.2,3.9-2.2
			C44,4.1,46,6.2,46,9.3z M44.5,9.2c0-2.2-1.5-3.8-3.6-3.8c-2.1,0-3.7,1.6-3.7,3.8c0,2.2,1.5,3.8,3.7,3.8
			C43,13.1,44.5,11.5,44.5,9.2z"/>
		<path class="st0" d="M53.2,5.4c-1.1,0-2,0.4-2,1.4c0,2.3,5.7,1.1,5.7,4.8c0,2-1.8,2.9-3.7,2.9c-1.4,0-2.9-0.5-3.9-1.4l0.6-1.1
			c0.9,0.8,2.2,1.3,3.4,1.3c1.2,0,2.2-0.5,2.2-1.5c0.1-2.5-5.6-1.2-5.6-4.8c0-1.9,1.7-2.8,3.5-2.8c1.2,0,2.4,0.4,3.2,0.9L56,6.2
			C55.2,5.7,54.2,5.4,53.2,5.4z"/>
		<path class="st0" d="M63,1.3c0,0.6-0.4,1-1,1c-0.6,0-1-0.4-1-1c0-0.6,0.4-1,1-1C62.6,0.2,63,0.7,63,1.3z M62.8,4.2v10.2h-1.5V4.2
			H62.8z"/>
		<path class="st0" d="M73.6,13.6c-0.7,0.5-1.5,0.8-2.3,0.8c-1.5,0-2.6-0.9-2.6-2.9V5.7h-1.5V4.5h1.5V1.8h1.5v2.7h3.2v1.2h-3.2v5.6
			c0,1.2,0.5,1.7,1.4,1.7c0.5,0,1.1-0.2,1.6-0.5L73.6,13.6z"/>
		<path class="st0" d="M86.5,9.8h-8.3c0.3,2,1.7,3.3,3.7,3.3c1.3,0,2.4-0.5,3.1-1.3l0.8,0.9c-1,1.1-2.4,1.7-4.1,1.7
			c-3,0-5.1-2.1-5.1-5.1s2.1-5.1,5-5.1C85,4.1,86.6,6.4,86.5,9.8z M85.1,8.6c-0.1-2-1.4-3.2-3.4-3.2c-2,0-3.3,1.3-3.6,3.2H85.1z"/>
	</g>
</g>
</svg>
