<?xml version="1.0" encoding="utf-8"?>
<!-- Generator: Adobe Illustrator 21.1.0, SVG Export Plug-In . SVG Version: 6.00 Build 0)  -->
<svg version="1.1" id="Layer_1" xmlns="http://www.w3.org/2000/svg" xmlns:xlink="http://www.w3.org/1999/xlink" x="0px" y="0px"
	 width="97.1px" height="91px" viewBox="0 0 97.1 91" style="enable-background:new 0 0 97.1 91;" xml:space="preserve">
<style type="text/css">
	.st0{fill:#EDECED;}
	.st1{fill:#333333;}
</style>
<path class="st0" d="M76.5,89.7H24.1c-9.6,0-17.5-7.8-17.5-17.5V19.8c0-9.6,7.8-17.5,17.5-17.5h52.4c9.6,0,17.5,7.8,17.5,17.5v52.4
	C94,81.9,86.2,89.7,76.5,89.7z"/>
<g>
	<g>
		<path class="st1" d="M96.1,0H51c-0.6,0-1,0.5-1,1v17.7c0,7.4,2.2,14.6,6.3,20.8c4.1,6.2,10,10.9,16.8,13.7
			c0.1,0.1,0.3,0.1,0.4,0.1c0.1,0,0.3,0,0.4-0.1c6.9-2.8,12.7-7.6,16.8-13.7c4.1-6.2,6.3-13.4,6.3-20.8V1C97.1,0.5,96.7,0,96.1,0z
			 M95.1,18.7c0,14.2-8.4,26.9-21.5,32.5C60.5,45.6,52,32.9,52,18.7V2h43V18.7z"/>
		<path class="st1" d="M73.1,48.7c0.1,0.1,0.3,0.1,0.4,0.1s0.3,0,0.4-0.1c5.4-2.6,10-6.5,13.4-11.5c3.7-5.5,5.6-11.9,5.6-18.5V5.1
			c0-0.6-0.5-1-1-1H55.1c-0.6,0-1,0.5-1,1v13.6c0,6.6,1.9,13,5.6,18.5C63.1,42.2,67.7,46.1,73.1,48.7z M56.1,11.3h5.1
			c0.6,0,1-0.5,1-1s-0.5-1-1-1h-5.1V6.1H91v12.5c0,6.2-1.8,12.2-5.3,17.4c-3,4.5-7.2,8.2-12.1,10.6c-4.9-2.4-9.1-6.1-12.1-10.6
			c-3.5-5.2-5.3-11.2-5.3-17.4V11.3z"/>
		<path class="st1" d="M71.4,34.8c0.2,0.2,0.5,0.3,0.7,0.3s0.5-0.1,0.7-0.3l11.6-11.6c0.2-0.2,0.3-0.5,0.3-0.7s-0.1-0.5-0.3-0.7
			l-3.6-3.6c-0.4-0.4-1-0.4-1.4,0l-7.2,7.2L67.8,21c-0.4-0.4-1-0.4-1.4,0l-3.6,3.6c-0.2,0.2-0.3,0.5-0.3,0.7s0.1,0.5,0.3,0.7
			L71.4,34.8z M67.1,23.2l4.3,4.3c0.4,0.4,1,0.4,1.4,0l7.2-7.2l2.2,2.2L72.1,32.6l-7.2-7.2L67.1,23.2z"/>
		<path class="st1" d="M63.4,10.6c0,0.1,0.1,0.1,0.1,0.2c0,0.1,0.1,0.1,0.1,0.2c0,0,0.1,0.1,0.2,0.1c0.1,0,0.1,0.1,0.2,0.1
			c0.1,0,0.1,0,0.2,0.1c0.1,0,0.1,0,0.2,0c0.1,0,0.1,0,0.2,0c0.1,0,0.1,0,0.2-0.1c0.1,0,0.1-0.1,0.2-0.1c0.1,0,0.1-0.1,0.2-0.1
			c0,0,0.1-0.1,0.1-0.2c0-0.1,0.1-0.1,0.1-0.2c0-0.1,0-0.1,0.1-0.2c0-0.1,0-0.1,0-0.2c0-0.1,0-0.1,0-0.2c0-0.1,0-0.1-0.1-0.2
			c0-0.1-0.1-0.1-0.1-0.2c0-0.1-0.1-0.1-0.1-0.2c0,0-0.1-0.1-0.2-0.1c-0.1,0-0.1-0.1-0.2-0.1c-0.1,0-0.1,0-0.2-0.1
			c-0.1,0-0.3,0-0.4,0c-0.1,0-0.1,0-0.2,0.1c-0.1,0-0.1,0.1-0.2,0.1c-0.1,0-0.1,0.1-0.2,0.1c0,0-0.1,0.1-0.1,0.2
			c0,0.1-0.1,0.1-0.1,0.2c0,0.1,0,0.1-0.1,0.2c0,0.1,0,0.1,0,0.2c0,0.1,0,0.1,0,0.2C63.3,10.5,63.4,10.6,63.4,10.6z"/>
	</g>
</g>
<g>
	<g>
		<path class="st1" d="M12.4,48.3l-0.8-5h-3c-0.6-1.8-2.2-3-4.1-3c-2.4,0-4.4,2-4.4,4.4S2,49,4.4,49c1.9,0,3.6-1.2,4.1-3h0.7
			l0.4,2.2H9.5l5.2,26.1c-2.5,0.4-4.4,2.4-4.7,4.8c-0.2,1.5,0.3,3,1.4,4.1c1,1.1,2.5,1.8,4,1.8H17c0.2,3.3,3,6,6.4,6
			c3.4,0,6.2-2.7,6.4-6H40c0.2,3.3,3,6,6.4,6c3.4,0,6.2-2.7,6.4-6h3.6c0.8,0,1.4-0.6,1.4-1.4c0-0.8-0.6-1.4-1.4-1.4h-4.1
			c-1-2.4-3.3-4-5.9-4c-2.6,0-4.9,1.6-5.9,4H29.3c-1-2.4-3.3-4-5.9-4c-2.6,0-4.9,1.6-5.9,4h-2.1c-0.7,0-1.4-0.3-1.9-0.9
			c-0.5-0.6-0.7-1.3-0.7-2c0.1-1.3,1.4-2.4,2.8-2.4l39.8,0c3,0,5.4-2.4,5.4-5.4V48.3L12.4,48.3z M57.3,73.4
			c-0.5,0.5-1.2,0.8-1.9,0.8l-37.9,0l-0.1-0.7c0.3-0.3,0.4-0.6,0.4-0.9c0-0.5-0.3-1-0.8-1.2L16.3,68c0.8,0.1,1.5-0.6,1.5-1.4
			c0-0.8-0.6-1.4-1.4-1.4c-0.2,0-0.4,0.1-0.6,0.2l-1.4-6.9c0.2-0.3,0.4-0.6,0.4-0.9c0-0.5-0.3-1-0.8-1.2L13.3,53
			c0.8,0.1,1.5-0.6,1.5-1.4c0-0.2-0.1-0.4-0.2-0.6L58,51v2.3c-0.6,0.2-1,0.7-1,1.3s0.4,1.2,1,1.3v3.4c-0.6,0.2-1,0.7-1,1.3
			s0.4,1.2,1,1.3v3.4c-0.6,0.2-1,0.7-1,1.3s0.4,1.2,1,1.3v3.4c-0.6,0.2-1,0.7-1,1.3C57,72.9,57.1,73.2,57.3,73.4z M6,44.6
			c0,0.9-0.7,1.6-1.6,1.6c-0.9,0-1.6-0.7-1.6-1.6c0-0.9,0.7-1.6,1.6-1.6C5.3,43,6,43.8,6,44.6z M19.7,84.6c0-2,1.6-3.6,3.6-3.6
			c2,0,3.6,1.6,3.6,3.6s-1.6,3.6-3.6,3.6C21.4,88.3,19.7,86.6,19.7,84.6z M42.8,84.6c0-2,1.6-3.6,3.6-3.6c2,0,3.6,1.6,3.6,3.6
			s-1.6,3.6-3.6,3.6C44.4,88.3,42.8,86.6,42.8,84.6z"/>
		<g>
			<path class="st1" d="M35.4,54.6c0,0.6-0.4,1-1,1c-0.6,0-1-0.4-1-1c0-0.6,0.5-1,1-1C34.9,53.6,35.4,54.1,35.4,54.6L35.4,54.6z
				 M35.4,54.6"/>
		</g>
		<g>
			<path class="st1" d="M38.4,51.6c0,0.6-0.4,1-1,1c-0.6,0-1-0.5-1-1c0-0.6,0.4-1,1-1C37.9,50.6,38.4,51.1,38.4,51.6L38.4,51.6z
				 M38.4,51.6"/>
		</g>
		<g>
			<path class="st1" d="M38.4,57.6c0,0.6-0.4,1-1,1c-0.6,0-1-0.4-1-1c0-0.6,0.4-1,1-1C37.9,56.6,38.4,57.1,38.4,57.6L38.4,57.6z
				 M38.4,57.6"/>
		</g>
		<g>
			<path class="st1" d="M41.4,54.6c0,0.6-0.4,1-1,1c-0.6,0-1-0.4-1-1c0-0.6,0.4-1,1-1C40.9,53.6,41.4,54.1,41.4,54.6L41.4,54.6z
				 M41.4,54.6"/>
		</g>
		<g>
			<path class="st1" d="M29.4,54.6c0,0.6-0.4,1-1,1c-0.6,0-1-0.4-1-1c0-0.6,0.5-1,1-1C28.9,53.6,29.4,54.1,29.4,54.6L29.4,54.6z
				 M29.4,54.6"/>
		</g>
		<g>
			<path class="st1" d="M32.4,51.6c0,0.6-0.4,1-1,1c-0.6,0-1-0.5-1-1c0-0.6,0.4-1,1-1C31.9,50.6,32.4,51.1,32.4,51.6L32.4,51.6z
				 M32.4,51.6"/>
		</g>
		<g>
			<path class="st1" d="M32.4,57.6c0,0.6-0.4,1-1,1c-0.6,0-1-0.4-1-1c0-0.6,0.4-1,1-1C31.9,56.6,32.4,57.1,32.4,57.6L32.4,57.6z
				 M32.4,57.6"/>
		</g>
		<g>
			<path class="st1" d="M17.4,54.6c0,0.6-0.4,1-1,1c-0.6,0-1-0.4-1-1c0-0.6,0.4-1,1-1C16.9,53.6,17.4,54.1,17.4,54.6L17.4,54.6z
				 M17.4,54.6"/>
		</g>
		<g>
			<path class="st1" d="M23.4,54.6c0,0.6-0.4,1-1,1c-0.6,0-1-0.4-1-1c0-0.6,0.4-1,1-1C22.9,53.6,23.4,54.1,23.4,54.6L23.4,54.6z
				 M23.4,54.6"/>
		</g>
		<g>
			<path class="st1" d="M20.4,51.6c0,0.6-0.4,1-1,1c-0.6,0-1-0.5-1-1c0-0.6,0.5-1,1-1C19.9,50.6,20.4,51.1,20.4,51.6L20.4,51.6z
				 M20.4,51.6"/>
		</g>
		<g>
			<path class="st1" d="M26.4,51.6c0,0.6-0.4,1-1,1c-0.6,0-1-0.5-1-1c0-0.6,0.4-1,1-1C25.9,50.6,26.4,51.1,26.4,51.6L26.4,51.6z
				 M26.4,51.6"/>
		</g>
		<g>
			<path class="st1" d="M20.4,57.6c0,0.6-0.4,1-1,1c-0.6,0-1-0.4-1-1c0-0.6,0.5-1,1-1C19.9,56.6,20.4,57.1,20.4,57.6L20.4,57.6z
				 M20.4,57.6"/>
		</g>
		<g>
			<path class="st1" d="M26.4,57.6c0,0.6-0.4,1-1,1c-0.6,0-1-0.4-1-1c0-0.6,0.4-1,1-1C25.9,56.6,26.4,57.1,26.4,57.6L26.4,57.6z
				 M26.4,57.6"/>
		</g>
		<g>
			<path class="st1" d="M44.4,51.6c0,0.6-0.4,1-1,1c-0.6,0-1-0.5-1-1c0-0.6,0.5-1,1-1C43.9,50.6,44.4,51.1,44.4,51.6L44.4,51.6z
				 M44.4,51.6"/>
		</g>
		<g>
			<path class="st1" d="M44.4,57.6c0,0.6-0.4,1-1,1c-0.6,0-1-0.4-1-1c0-0.6,0.5-1,1-1C43.9,56.6,44.4,57.1,44.4,57.6L44.4,57.6z
				 M44.4,57.6"/>
		</g>
		<g>
			<path class="st1" d="M47.4,54.6c0,0.6-0.4,1-1,1c-0.6,0-1-0.4-1-1c0-0.6,0.4-1,1-1C46.9,53.6,47.4,54.1,47.4,54.6L47.4,54.6z
				 M47.4,54.6"/>
		</g>
		<g>
			<path class="st1" d="M53.4,54.6c0,0.6-0.4,1-1,1c-0.6,0-1-0.4-1-1c0-0.6,0.4-1,1-1C52.9,53.6,53.4,54.1,53.4,54.6L53.4,54.6z
				 M53.4,54.6"/>
		</g>
		<g>
			<path class="st1" d="M35.4,60.6c0,0.6-0.4,1-1,1c-0.6,0-1-0.5-1-1c0-0.6,0.5-1,1-1C34.9,59.6,35.4,60.1,35.4,60.6L35.4,60.6z
				 M35.4,60.6"/>
		</g>
		<g>
			<path class="st1" d="M41.4,60.6c0,0.6-0.4,1-1,1c-0.6,0-1-0.5-1-1c0-0.6,0.4-1,1-1C40.9,59.6,41.4,60.1,41.4,60.6L41.4,60.6z
				 M41.4,60.6"/>
		</g>
		<g>
			<path class="st1" d="M29.4,60.6c0,0.6-0.4,1-1,1c-0.6,0-1-0.5-1-1c0-0.6,0.5-1,1-1C28.9,59.6,29.4,60.1,29.4,60.6L29.4,60.6z
				 M29.4,60.6"/>
		</g>
		<g>
			<path class="st1" d="M17.4,60.6c0,0.6-0.4,1-1,1c-0.6,0-1-0.5-1-1c0-0.6,0.4-1,1-1C16.9,59.6,17.4,60.1,17.4,60.6L17.4,60.6z
				 M17.4,60.6"/>
		</g>
		<g>
			<path class="st1" d="M23.4,60.6c0,0.6-0.4,1-1,1c-0.6,0-1-0.5-1-1c0-0.6,0.4-1,1-1C22.9,59.6,23.4,60.1,23.4,60.6L23.4,60.6z
				 M23.4,60.6"/>
		</g>
		<g>
			<path class="st1" d="M47.4,60.6c0,0.6-0.4,1-1,1c-0.6,0-1-0.5-1-1c0-0.6,0.4-1,1-1C46.9,59.6,47.4,60.1,47.4,60.6L47.4,60.6z
				 M47.4,60.6"/>
		</g>
		<g>
			<path class="st1" d="M53.4,60.6c0,0.6-0.4,1-1,1c-0.6,0-1-0.5-1-1c0-0.6,0.4-1,1-1C52.9,59.6,53.4,60.1,53.4,60.6L53.4,60.6z
				 M53.4,60.6"/>
		</g>
		<g>
			<path class="st1" d="M50.4,51.6c0,0.6-0.4,1-1,1c-0.6,0-1-0.5-1-1c0-0.6,0.5-1,1-1C49.9,50.6,50.4,51.1,50.4,51.6L50.4,51.6z
				 M50.4,51.6"/>
		</g>
		<g>
			<path class="st1" d="M56.4,51.6c0,0.6-0.4,1-1,1c-0.6,0-1-0.5-1-1c0-0.6,0.4-1,1-1C55.9,50.6,56.4,51.1,56.4,51.6L56.4,51.6z
				 M56.4,51.6"/>
		</g>
		<g>
			<path class="st1" d="M50.4,57.6c0,0.6-0.4,1-1,1c-0.6,0-1-0.4-1-1c0-0.6,0.5-1,1-1C49.9,56.6,50.4,57.1,50.4,57.6L50.4,57.6z
				 M50.4,57.6"/>
		</g>
		<g>
			<path class="st1" d="M56.4,57.6c0,0.6-0.4,1-1,1c-0.6,0-1-0.4-1-1c0-0.6,0.4-1,1-1C55.9,56.6,56.4,57.1,56.4,57.6L56.4,57.6z
				 M56.4,57.6"/>
		</g>
		<g>
			<path class="st1" d="M35.4,66.6c0,0.6-0.4,1-1,1c-0.6,0-1-0.5-1-1c0-0.6,0.5-1,1-1C34.9,65.6,35.4,66.1,35.4,66.6L35.4,66.6z
				 M35.4,66.6"/>
		</g>
		<g>
			<path class="st1" d="M38.4,63.6c0,0.6-0.4,1-1,1c-0.6,0-1-0.4-1-1c0-0.6,0.4-1,1-1C37.9,62.6,38.4,63.1,38.4,63.6L38.4,63.6z
				 M38.4,63.6"/>
		</g>
		<g>
			<path class="st1" d="M38.4,69.6c0,0.6-0.4,1-1,1c-0.6,0-1-0.4-1-1c0-0.6,0.4-1,1-1C37.9,68.6,38.4,69.1,38.4,69.6L38.4,69.6z
				 M38.4,69.6"/>
		</g>
		<g>
			<path class="st1" d="M41.4,66.6c0,0.6-0.4,1-1,1c-0.6,0-1-0.5-1-1c0-0.6,0.4-1,1-1C40.9,65.6,41.4,66.1,41.4,66.6L41.4,66.6z
				 M41.4,66.6"/>
		</g>
		<g>
			<path class="st1" d="M29.4,66.6c0,0.6-0.4,1-1,1c-0.6,0-1-0.5-1-1c0-0.6,0.5-1,1-1C28.9,65.6,29.4,66.1,29.4,66.6L29.4,66.6z
				 M29.4,66.6"/>
		</g>
		<g>
			<path class="st1" d="M32.4,63.6c0,0.6-0.4,1-1,1c-0.6,0-1-0.4-1-1c0-0.6,0.4-1,1-1C31.9,62.6,32.4,63.1,32.4,63.6L32.4,63.6z
				 M32.4,63.6"/>
		</g>
		<g>
			<path class="st1" d="M32.4,69.6c0,0.6-0.4,1-1,1c-0.6,0-1-0.4-1-1c0-0.6,0.4-1,1-1C31.9,68.6,32.4,69.1,32.4,69.6L32.4,69.6z
				 M32.4,69.6"/>
		</g>
		<g>
			<path class="st1" d="M23.4,66.6c0,0.6-0.4,1-1,1c-0.6,0-1-0.5-1-1c0-0.6,0.4-1,1-1C22.9,65.6,23.4,66.1,23.4,66.6L23.4,66.6z
				 M23.4,66.6"/>
		</g>
		<g>
			<path class="st1" d="M20.4,63.6c0,0.6-0.4,1-1,1c-0.6,0-1-0.4-1-1c0-0.6,0.5-1,1-1C19.9,62.6,20.4,63.1,20.4,63.6L20.4,63.6z
				 M20.4,63.6"/>
		</g>
		<g>
			<path class="st1" d="M26.4,63.6c0,0.6-0.4,1-1,1c-0.6,0-1-0.4-1-1c0-0.6,0.4-1,1-1C25.9,62.6,26.4,63.1,26.4,63.6L26.4,63.6z
				 M26.4,63.6"/>
		</g>
		<g>
			<path class="st1" d="M20.4,69.6c0,0.6-0.4,1-1,1c-0.6,0-1-0.4-1-1c0-0.6,0.5-1,1-1C19.9,68.6,20.4,69.1,20.4,69.6L20.4,69.6z
				 M20.4,69.6"/>
		</g>
		<g>
			<path class="st1" d="M26.4,69.6c0,0.6-0.4,1-1,1c-0.6,0-1-0.4-1-1c0-0.6,0.4-1,1-1C25.9,68.6,26.4,69.1,26.4,69.6L26.4,69.6z
				 M26.4,69.6"/>
		</g>
		<g>
			<path class="st1" d="M44.4,63.6c0,0.6-0.4,1-1,1c-0.6,0-1-0.4-1-1c0-0.6,0.5-1,1-1C43.9,62.6,44.4,63.1,44.4,63.6L44.4,63.6z
				 M44.4,63.6"/>
		</g>
		<g>
			<path class="st1" d="M44.4,69.6c0,0.6-0.4,1-1,1c-0.6,0-1-0.4-1-1c0-0.6,0.5-1,1-1C43.9,68.6,44.4,69.1,44.4,69.6L44.4,69.6z
				 M44.4,69.6"/>
		</g>
		<g>
			<path class="st1" d="M47.4,66.6c0,0.6-0.4,1-1,1c-0.6,0-1-0.5-1-1c0-0.6,0.4-1,1-1C46.9,65.6,47.4,66.1,47.4,66.6L47.4,66.6z
				 M47.4,66.6"/>
		</g>
		<g>
			<path class="st1" d="M53.4,66.6c0,0.6-0.4,1-1,1c-0.6,0-1-0.5-1-1c0-0.6,0.4-1,1-1C52.9,65.6,53.4,66.1,53.4,66.6L53.4,66.6z
				 M53.4,66.6"/>
		</g>
		<g>
			<path class="st1" d="M35.4,72.6c0,0.6-0.4,1-1,1c-0.6,0-1-0.4-1-1c0-0.6,0.5-1,1-1C34.9,71.6,35.4,72.1,35.4,72.6L35.4,72.6z
				 M35.4,72.6"/>
		</g>
		<g>
			<path class="st1" d="M41.4,72.6c0,0.6-0.4,1-1,1c-0.6,0-1-0.4-1-1c0-0.6,0.4-1,1-1C40.9,71.6,41.4,72.1,41.4,72.6L41.4,72.6z
				 M41.4,72.6"/>
		</g>
		<g>
			<path class="st1" d="M29.4,72.6c0,0.6-0.4,1-1,1c-0.6,0-1-0.4-1-1c0-0.6,0.5-1,1-1C28.9,71.6,29.4,72.1,29.4,72.6L29.4,72.6z
				 M29.4,72.6"/>
		</g>
		<g>
			<path class="st1" d="M23.4,72.6c0,0.6-0.4,1-1,1c-0.6,0-1-0.4-1-1c0-0.6,0.4-1,1-1C22.9,71.6,23.4,72.1,23.4,72.6L23.4,72.6z
				 M23.4,72.6"/>
		</g>
		<g>
			<path class="st1" d="M47.4,72.6c0,0.6-0.4,1-1,1c-0.6,0-1-0.4-1-1c0-0.6,0.4-1,1-1C46.9,71.6,47.4,72.1,47.4,72.6L47.4,72.6z
				 M47.4,72.6"/>
		</g>
		<g>
			<path class="st1" d="M53.4,72.6c0,0.6-0.4,1-1,1c-0.6,0-1-0.4-1-1c0-0.6,0.4-1,1-1C52.9,71.6,53.4,72.1,53.4,72.6L53.4,72.6z
				 M53.4,72.6"/>
		</g>
		<g>
			<path class="st1" d="M50.4,63.6c0,0.6-0.4,1-1,1c-0.6,0-1-0.4-1-1c0-0.6,0.5-1,1-1C49.9,62.6,50.4,63.1,50.4,63.6L50.4,63.6z
				 M50.4,63.6"/>
		</g>
		<g>
			<path class="st1" d="M56.4,63.6c0,0.6-0.4,1-1,1c-0.6,0-1-0.4-1-1c0-0.6,0.4-1,1-1C55.9,62.6,56.4,63.1,56.4,63.6L56.4,63.6z
				 M56.4,63.6"/>
		</g>
		<g>
			<path class="st1" d="M50.4,69.6c0,0.6-0.4,1-1,1c-0.6,0-1-0.4-1-1c0-0.6,0.5-1,1-1C49.9,68.6,50.4,69.1,50.4,69.6L50.4,69.6z
				 M50.4,69.6"/>
		</g>
		<g>
			<path class="st1" d="M56.4,69.6c0,0.6-0.4,1-1,1c-0.6,0-1-0.4-1-1c0-0.6,0.4-1,1-1C55.9,68.6,56.4,69.1,56.4,69.6L56.4,69.6z
				 M56.4,69.6"/>
		</g>
		<path class="st1" d="M25,47.4c0.7-1.2,2-2.1,3.5-2.1s2.8,0.8,3.5,2.1h8.1c-0.9-5.6-5.7-9.8-11.6-9.8s-10.7,4.2-11.6,9.8H25z
			 M33.9,41.9l0.3,0.3l1.6,1.5l-0.6,0.4L35,43.7l0.3-0.3l-0.7-0.7l-0.6,0.6l0.7,0.7l-0.3,0.3l-0.9-0.6l-0.6,0.6l0.7,0.7l0.3-0.3
			l0.3,0.3l-0.6,0.6l-1.8-1.8l0.3-0.3l0.3,0.3l1.6-1.6h-0.4L33.9,41.9z M30.5,43.4l0.9-2.1l-0.6-0.7l0.1-0.3l2.4,1L33,42.2l-0.4-0.3
			l0.1-0.3l-0.9-0.3l-0.3,0.9l1,0.3l-0.3,0.4l-0.9-0.4l-0.3,0.9l0.3,0.3L31.2,44L30,43.5l0.1-0.3L30.5,43.4z M27.5,40.3V40l2.5,0.1
			V41h-0.4v-0.3h-1v0.9h1v0.4h-1v0.9l0.3,0.1v0.3h-1.3l-0.1-0.6h0.3l0.1-2.4L27.5,40.3z M24.2,41.3c0.1-0.3,0.3-0.6,0.9-0.7
			c0.3-0.1,0.7-0.1,1,0c0.3,0.3,0.6,0.4,0.7,1c0.1,0.4,0.1,0.9,0,1.2c-0.1,0.3-0.3,0.6-0.9,0.7c-0.3,0.1-0.7,0.1-1,0
			c-0.3-0.1-0.6-0.4-0.7-1C24.2,42.1,24.2,41.8,24.2,41.3z M22.1,42.7c0.1-0.1,0.3-0.3,0.6-0.3c0.3-0.1,0.3-0.1,0.6-0.1l0.4,0.4
			l-0.4,0.3L23,42.7c-0.1,0-0.1,0-0.3,0s-0.3,0.1-0.3,0.3c-0.3,0.3-0.3,0.3-0.3,0.6c0,0.3,0.1,0.4,0.3,0.7l0.1,0.1
			c0.3,0.3,0.4,0.3,0.7,0.3s0.4,0,0.6-0.3c0.1-0.1,0.1-0.1,0.3-0.3c0-0.1,0.1-0.3,0.1-0.3l-0.4-0.3l0.3-0.3l0.4,0.4
			c0,0.3,0,0.3-0.1,0.6c-0.1,0.3-0.3,0.3-0.3,0.6c-0.3,0.3-0.7,0.4-1,0.4c-0.3,0-0.7-0.3-1-0.4v-0.1c-0.3-0.3-0.4-0.7-0.4-1
			C21.7,43.4,21.8,42.9,22.1,42.7z"/>
		<g>
			<path class="st1" d="M42.7,37.6c-2.5,0-4.8,0.8-6.7,2.1c0.9,0.6,1.7,1.4,2.4,2.2c0-0.2,0-0.4,0-0.6c0.1-0.3,0.3-0.6,0.9-0.7
				c0.3-0.1,0.7-0.1,1,0c0.3,0.3,0.6,0.4,0.7,1c0.1,0.4,0.1,0.9,0,1.2c-0.1,0.3-0.3,0.6-0.9,0.7c-0.2,0.1-0.4,0.1-0.6,0.1
				c0.4,0.7,0.7,1.5,1,2.4c0.6-0.4,1.4-0.7,2.2-0.7c1.5,0,2.8,0.8,3.5,2.1h8.1C53.4,41.8,48.6,37.6,42.7,37.6z M42.7,40.7v0.9h1v0.4
				h-1v0.9l0.3,0.1v0.3h-1.3l-0.1-0.6h0.3l0.1-2.4l-0.3-0.1V40l2.5,0.1V41h-0.4v-0.3H42.7z M45.5,42.5l-0.3,0.9l0.3,0.3L45.4,44
				l-1.2-0.4l0.1-0.3l0.3,0.1l0.9-2.1L45,40.6l0.1-0.3l2.4,1l-0.3,0.9l-0.4-0.3l0.1-0.3L46,41.3l-0.3,0.9l1,0.3l-0.3,0.4L45.5,42.5z
				 M49.4,44.1l-0.3-0.4l0.3-0.3l-0.7-0.7l-0.6,0.6l0.7,0.7l-0.3,0.3l-0.9-0.6L47,44.3l0.7,0.7l0.3-0.3l0.3,0.3l-0.6,0.6L46,43.8
				l0.3-0.3l0.3,0.3l1.6-1.6h-0.4l0.3-0.3l0.3,0.3l1.6,1.5L49.4,44.1z"/>
		</g>
	</g>
</g>
</svg>
