<?xml version="1.0" encoding="utf-8"?>
<!-- Generator: Adobe Illustrator 19.0.0, SVG Export Plug-In . SVG Version: 6.00 Build 0)  -->
<svg version="1.1" id="Layer_1" xmlns="http://www.w3.org/2000/svg" xmlns:xlink="http://www.w3.org/1999/xlink" x="0px" y="0px"
	 viewBox="0 0 35.8 34" style="enable-background:new 0 0 35.8 34;" xml:space="preserve">
<g>
	<path d="M31.4,9.6C31.4,9.6,31.4,9.6,31.4,9.6C31,8,29.6,7,28.1,7h-3.4V5.1h4.8c0.5,0,1-0.4,1-1V1c0-0.5-0.4-1-1-1H17.9
		c-0.5,0-1,0.4-1,1v3.1c0,0.5,0.4,1,1,1h4.8V7h-15C6.2,7,4.8,8,4.4,9.6c0,0,0,0,0,0L1,24.1c0.1,0,0.2,0,0.3,0h33.2
		c0.1,0,0.2,0,0.3,0L31.4,9.6z M28.4,14.1c0,0.5-0.4,1-1,1h-19c-0.5,0-1-0.4-1-1v-2.3c0-0.5,0.4-1,1-1h19c0.5,0,1,0.4,1,1V14.1z
		 M34.5,26.1H1.3c-0.7,0-1.3,0.6-1.3,1.3v5.3C0,33.4,0.6,34,1.3,34h33.2c0.7,0,1.3-0.6,1.3-1.3v-5.3C35.8,26.7,35.2,26.1,34.5,26.1
		L34.5,26.1z M20.9,30.2c0,1-0.8,1.8-1.8,1.8h-2.2c-1,0-1.8-0.8-1.8-1.8v-0.3c0-1,0.8-1.8,1.8-1.8h2.2c1,0,1.8,0.8,1.8,1.8V30.2z
		 M20.9,30.2"/>
</g>
</svg>
