<?xml version="1.0" encoding="utf-8"?>
<!-- Generator: Adobe Illustrator 21.1.0, SVG Export Plug-In . SVG Version: 6.00 Build 0)  -->
<svg version="1.1" id="Layer_1" xmlns="http://www.w3.org/2000/svg" xmlns:xlink="http://www.w3.org/1999/xlink" x="0px" y="0px"
	 width="94.4px" height="96.7px" viewBox="0 0 94.4 96.7" style="enable-background:new 0 0 94.4 96.7;" xml:space="preserve">
<style type="text/css">
	.st0{fill:#EDECED;}
	.st1{fill:#333333;}
</style>
<path class="st0" d="M73.2,95.3H20.8c-9.6,0-17.5-7.8-17.5-17.5V25.4C3.3,15.8,11.2,8,20.8,8h52.4c9.6,0,17.5,7.8,17.5,17.5v52.4
	C90.7,87.5,82.8,95.3,73.2,95.3z"/>
<g>
	<g>
		<path class="st1" d="M33.9,28c-0.7,0-1.3,0.6-1.3,1.3v7.7c0,1.5-1.2,2.8-2.8,2.8H16c-0.3,0-0.6,0.1-0.9,0.4l-5.3,5.1V41
			c0-0.7-0.6-1.3-1.3-1.3H5.3c-1.5,0-2.8-1.2-2.8-2.8v-15c0-1.5,1.2-2.8,2.8-2.8h12.3c0.7,0,1.3-0.6,1.3-1.3c0-0.7-0.6-1.3-1.3-1.3
			H5.3C2.4,16.6,0,19,0,21.9v15c0,2.9,2.4,5.3,5.3,5.3h1.9v5.9c0,0.5,0.3,1,0.8,1.2c0.2,0.1,0.4,0.1,0.5,0.1c0.3,0,0.6-0.1,0.9-0.4
			l7.1-6.8h13.4c2.9,0,5.3-2.4,5.3-5.3v-7.7C35.2,28.6,34.7,28,33.9,28z"/>
		<path class="st1" d="M51.2,0H26.4c-3,0-5.4,2.4-5.4,5.4v15.1c0,3,2.4,5.4,5.4,5.4h13.5l7.2,6.9c0.2,0.2,0.6,0.4,0.9,0.4
			c0.2,0,0.3,0,0.5-0.1c0.5-0.2,0.8-0.7,0.8-1.2v-5.9h1.9c3,0,5.4-2.4,5.4-5.4V5.4C56.5,2.4,54.1,0,51.2,0z M23.6,5.4
			c0-1.5,1.3-2.8,2.8-2.8h24.8c1.5,0,2.8,1.3,2.8,2.8v15.1c0,1.5-1.3,2.8-2.8,2.8H48c-0.7,0-1.3,0.6-1.3,1.3v4.2l-5.4-5.1
			c-0.2-0.2-0.6-0.4-0.9-0.4h-14c-1.5,0-2.8-1.3-2.8-2.8V5.4z"/>
		<path class="st1" d="M38.8,14.4c0.3,0,0.7-0.1,0.9-0.4c0.2-0.2,0.4-0.6,0.4-0.9c0-0.3-0.1-0.7-0.4-0.9c-0.5-0.5-1.3-0.5-1.8,0
			c-0.2,0.2-0.4,0.6-0.4,0.9c0,0.3,0.1,0.7,0.4,0.9C38.1,14.3,38.4,14.4,38.8,14.4z"/>
		<path class="st1" d="M42.6,14.4c0.3,0,0.7-0.1,0.9-0.4c0.2-0.2,0.4-0.6,0.4-0.9c0-0.3-0.1-0.7-0.4-0.9c-0.5-0.5-1.3-0.5-1.8,0
			c-0.2,0.2-0.4,0.6-0.4,0.9c0,0.3,0.1,0.7,0.4,0.9C42,14.3,42.3,14.4,42.6,14.4z"/>
		<path class="st1" d="M34.9,14.4c0.3,0,0.7-0.1,0.9-0.4c0.2-0.2,0.4-0.6,0.4-0.9c0-0.3-0.1-0.7-0.4-0.9c-0.5-0.5-1.3-0.5-1.8,0
			c-0.2,0.2-0.4,0.6-0.4,0.9c0,0.3,0.1,0.7,0.4,0.9C34.2,14.3,34.6,14.4,34.9,14.4z"/>
	</g>
</g>
<g>
	<g>
		<path class="st1" d="M94.4,77.6V54.5c0-2.8-2.3-5-5-5H50.9c-2.8,0-5,2.3-5,5v23.1c0,2.8,2.3,5,5,5h11.4l-0.9,6.6H20.1
			c-1.4,0-2.5,1.1-2.5,2.5v2.6c0,1.4,1.1,2.5,2.5,2.5h71.8c1.4,0,2.5-1.1,2.5-2.5v-2.6c0-1.4-1.1-2.5-2.5-2.5H78.9L78,82.6h11.4
			C92.2,82.6,94.4,80.3,94.4,77.6z M91.9,91.6C92,91.6,92,91.6,91.9,91.6l0.1,2.6c0,0,0,0.1-0.1,0.1H20.1c0,0-0.1,0-0.1-0.1v-2.6
			c0,0,0-0.1,0.1-0.1H91.9z M63.8,89.2l2.1-15.6c0.1-0.7,0.7-1.2,1.4-1.2H73c0.7,0,1.3,0.5,1.4,1.2l2.1,15.6H63.8z M77.8,80.2
			c0,0-0.1,0-0.1,0l-0.9-7c-0.2-1.9-1.9-3.3-3.7-3.3h-5.8c-1.9,0-3.5,1.4-3.7,3.3l-0.9,7c0,0-0.1,0-0.1,0H50.9
			c-1.5,0-2.6-1.2-2.6-2.6V54.5c0-1.5,1.2-2.6,2.6-2.6h38.5c1.5,0,2.6,1.2,2.6,2.6v23.1c0,1.5-1.2,2.6-2.6,2.6H77.8z"/>
		<circle class="st1" cx="70" cy="61.1" r="3.8"/>
		<rect x="57.4" y="83.4" class="st1" width="2.1" height="4.6"/>
		<path class="st1" d="M25.6,82c0-2.9,2.3-5.2,5.2-5.2c0,0,1.8,0,3.1-0.7l5.7,8.1c0.4,0.6,1.1,1,1.9,1h0c0.8,0,1.5-0.4,1.9-1
			l2.2-3.2c-0.5-0.6-0.9-1.3-1.1-2.1l-2.9,4.1c0,0.1-0.1,0.1-0.2,0.1c-0.1,0-0.1,0-0.2-0.1l-5.6-8c1.6-1.2,2.7-3,3.1-5
			c0.8,0.3,1.7,0.5,2.7,0.5c0.9,0,1.8-0.2,2.7-0.5c0,0.2,0.1,0.3,0.1,0.5v-2.9c-0.9,0.5-1.8,0.7-2.8,0.7c-1.9,0-3.7-1-5.1-2.7
			c-1.4-1.7-2.3-4-2.6-6.5c1.3-1.2,2.4-2.7,3.1-4.4c0.1,0.1,0.2,0.2,0.3,0.3c0.7,0.5,1.6,0.8,2.5,0.8h4.6v-1.7c0-0.2,0-0.3,0-0.4
			h-4.6c-0.4,0-0.8-0.1-1.2-0.4c-0.3-0.2-0.5-0.5-0.7-0.9c-0.2-0.5-0.7-0.9-1.3-0.8c-0.6,0-1,0.4-1.2,1C35,54.3,34.1,55.8,33,57
			c-1.1-4.4,0.9-8.8,4.4-9.8c0.4-0.1,0.8-0.2,1.2-0.2c0.2,0,0.3,0,0.4-0.1c1.1-0.6,2.2-0.9,3.4-0.9c2.2,0,4.2,1,5.6,2.6
			c0.7-0.3,1.5-0.5,2.3-0.5h0.1c-1.8-2.6-4.7-4.3-8-4.3c-1.5,0-2.9,0.3-4.2,1c-0.5,0-1,0.1-1.5,0.3c-2.3,0.7-4.1,2.3-5.2,4.8
			c-1.1,2.3-1.3,5.1-0.6,7.8c0.1,0.6,0.3,1.1,0.5,1.6c0.1,0.1,0.1,0.3,0.3,0.4c0.5,4.1,2.5,7.5,5.1,9.3c-0.8,5.9-6.3,5.7-6.3,5.7
			c-3.9,0.1-7.1,3.4-7.1,7.3v5.9h2.1V82z"/>
	</g>
</g>
</svg>
