<?xml version="1.0" encoding="utf-8"?>
<!-- Generator: Adobe Illustrator 21.1.0, SVG Export Plug-In . SVG Version: 6.00 Build 0)  -->
<svg version="1.1" id="Layer_1" xmlns="http://www.w3.org/2000/svg" xmlns:xlink="http://www.w3.org/1999/xlink" x="0px" y="0px"
	 width="105.2px" height="99.8px" viewBox="0 0 105.2 99.8" style="enable-background:new 0 0 105.2 99.8;" xml:space="preserve">
<style type="text/css">
	.st0{fill:#EDECED;}
	.st1{fill:#333333;}
</style>
<path class="st0" d="M83.9,98.8H31.5C21.8,98.8,14,91,14,81.4V29c0-9.6,7.8-17.5,17.5-17.5h52.4c9.6,0,17.5,7.8,17.5,17.5v52.4
	C101.4,91,93.5,98.8,83.9,98.8z"/>
<g>
	<g>
		<g>
			<path class="st1" d="M93.3,87.8c-1.6,0-3.1,0.6-4.3,1.8c-1.1,1.1-1.8,2.6-1.8,4.2c0,1.6,0.6,3.1,1.8,4.2c1.2,1.1,2.7,1.8,4.3,1.8
				c3.3,0,6-2.7,6-6C99.2,90.5,96.6,87.8,93.3,87.8L93.3,87.8z"/>
			<path class="st1" d="M93.3,97.2"/>
			<path class="st1" d="M94.8,67.8c-0.2-0.2-0.6-0.3-0.9-0.3h-6.8c-0.7,0-1.3,0.6-1.3,1.3v10.9c0,0.7,0.6,1.3,1.3,1.3H98
				c0.7,0,1.3-0.6,1.3-1.3v-7.3c0-0.4-0.2-0.7-0.4-1L94.8,67.8z M96.6,78.4h-8.2v-8.3h5l3.2,2.9V78.4z M96.6,78.4"/>
			<path class="st1" d="M60.7,87.8c-1.6,0-3.1,0.6-4.3,1.8c-1.1,1.1-1.8,2.6-1.8,4.2c0,1.6,0.6,3.1,1.8,4.2c1.2,1.1,2.7,1.8,4.3,1.8
				c3.3,0,6-2.7,6-6C66.6,90.5,64,87.8,60.7,87.8L60.7,87.8z"/>
			<path class="st1" d="M60.7,97.2"/>
			<path class="st1" d="M51.8,89.5h-2.7v-3.6c0-0.7-0.6-1.3-1.3-1.3c-0.7,0-1.3,0.6-1.3,1.3v4.9c0,0.7,0.6,1.3,1.3,1.3h4
				c0.7,0,1.3-0.6,1.3-1.3C53.1,90.1,52.5,89.5,51.8,89.5L51.8,89.5z M51.8,89.5"/>
			<path class="st1" d="M58.6,82.2c0-0.7-0.6-1.3-1.3-1.3H41c-0.7,0-1.3,0.6-1.3,1.3c0,0.7,0.6,1.3,1.3,1.3h16.2
				C58,83.5,58.6,82.9,58.6,82.2L58.6,82.2z M58.6,82.2"/>
			<path class="st1" d="M43.7,77.4l16.2,0.1c0.7,0,1.3-0.6,1.3-1.3c0-0.7-0.6-1.3-1.3-1.3l-16.2-0.1h0c-0.7,0-1.3,0.6-1.3,1.3
				C42.4,76.8,43,77.4,43.7,77.4L43.7,77.4z M43.7,77.4"/>
			<path class="st1" d="M46.5,71.3h16.2c0.7,0,1.3-0.6,1.3-1.3c0-0.7-0.6-1.3-1.3-1.3H46.5c-0.7,0-1.3,0.6-1.3,1.3
				C45.1,70.7,45.7,71.3,46.5,71.3L46.5,71.3z M46.5,71.3"/>
			<path class="st1" d="M104.7,69.5l-9.6-7.9c-0.2-0.2-0.5-0.3-0.9-0.3H83.1v-4.8c0-0.7-0.6-1.3-1.3-1.3h-34c-0.7,0-1.3,0.6-1.3,1.3
				v9.8c0,0.7,0.6,1.3,1.3,1.3c0.7,0,1.3-0.6,1.3-1.3v-8.4h31.3v31.6H69.5c-0.7,0-1.3,0.6-1.3,1.3c0,0.7,0.6,1.3,1.3,1.3h16.3
				c0.7,0,1.3-0.6,1.3-1.3c0-0.7-0.6-1.3-1.3-1.3h-2.7V64h10.8l8.7,7.2l-0.1,18.3h-1.4c-0.7,0-1.3,0.6-1.3,1.3
				c0,0.7,0.6,1.3,1.3,1.3h2.7c0.7,0,1.3-0.6,1.3-1.3l0.1-20.2C105.2,70.1,105.1,69.8,104.7,69.5L104.7,69.5z M104.7,69.5"/>
		</g>
		<g>
			<path class="st1" d="M57.8,66.6c0,0.5-0.4,1-1,1c-0.5,0-1-0.4-1-1c0-0.5,0.4-1,1-1C57.4,65.6,57.8,66.1,57.8,66.6L57.8,66.6z
				 M57.8,66.6"/>
		</g>
		<g>
			<path class="st1" d="M60.8,63.7c0,0.5-0.4,1-1,1c-0.5,0-1-0.4-1-1c0-0.5,0.4-1,1-1C60.3,62.7,60.8,63.1,60.8,63.7L60.8,63.7z
				 M60.8,63.7"/>
		</g>
		<g>
			<path class="st1" d="M63.8,66.6c0,0.5-0.4,1-1,1c-0.5,0-1-0.4-1-1c0-0.5,0.4-1,1-1C63.3,65.6,63.8,66.1,63.8,66.6L63.8,66.6z
				 M63.8,66.6"/>
		</g>
		<g>
			<path class="st1" d="M51.8,66.6c0,0.5-0.4,1-1,1c-0.5,0-1-0.4-1-1c0-0.5,0.4-1,1-1C51.4,65.6,51.8,66.1,51.8,66.6L51.8,66.6z
				 M51.8,66.6"/>
		</g>
		<g>
			<path class="st1" d="M54.8,63.7c0,0.5-0.4,1-1,1c-0.5,0-1-0.4-1-1c0-0.5,0.4-1,1-1C54.4,62.7,54.8,63.1,54.8,63.7L54.8,63.7z
				 M54.8,63.7"/>
		</g>
		<g>
			<path class="st1" d="M48.9,63.7c0,0.5-0.4,1-1,1c-0.5,0-1-0.4-1-1c0-0.5,0.4-1,1-1C48.4,62.7,48.9,63.1,48.9,63.7L48.9,63.7z
				 M48.9,63.7"/>
		</g>
		<g>
			<path class="st1" d="M66.7,63.7c0,0.5-0.4,1-1,1c-0.5,0-1-0.4-1-1c0-0.5,0.4-1,1-1C66.3,62.7,66.7,63.1,66.7,63.7L66.7,63.7z
				 M66.7,63.7"/>
		</g>
		<g>
			<path class="st1" d="M66.7,69.6c0,0.5-0.4,1-1,1c-0.5,0-1-0.4-1-1c0-0.6,0.4-1,1-1C66.3,68.6,66.7,69.1,66.7,69.6L66.7,69.6z
				 M66.7,69.6"/>
		</g>
		<g>
			<path class="st1" d="M69.7,66.6c0,0.5-0.4,1-1,1c-0.5,0-1-0.4-1-1c0-0.5,0.4-1,1-1C69.3,65.6,69.7,66.1,69.7,66.6L69.7,66.6z
				 M69.7,66.6"/>
		</g>
		<g>
			<path class="st1" d="M75.7,66.6c0,0.5-0.4,1-1,1c-0.5,0-1-0.4-1-1c0-0.5,0.4-1,1-1C75.2,65.6,75.7,66.1,75.7,66.6L75.7,66.6z
				 M75.7,66.6"/>
		</g>
		<g>
			<path class="st1" d="M69.7,72.6c0,0.5-0.4,1-1,1c-0.5,0-1-0.4-1-1c0-0.5,0.4-1,1-1C69.3,71.6,69.7,72.1,69.7,72.6L69.7,72.6z
				 M69.7,72.6"/>
		</g>
		<g>
			<path class="st1" d="M75.7,72.6c0,0.5-0.4,1-1,1c-0.5,0-1-0.4-1-1c0-0.5,0.4-1,1-1C75.2,71.6,75.7,72.1,75.7,72.6L75.7,72.6z
				 M75.7,72.6"/>
		</g>
		<g>
			<path class="st1" d="M72.7,63.7c0,0.5-0.4,1-1,1c-0.5,0-1-0.4-1-1c0-0.5,0.4-1,1-1C72.3,62.7,72.7,63.1,72.7,63.7L72.7,63.7z
				 M72.7,63.7"/>
		</g>
		<g>
			<path class="st1" d="M78.7,63.7c0,0.5-0.4,1-1,1c-0.5,0-1-0.4-1-1c0-0.5,0.4-1,1-1C78.2,62.7,78.7,63.1,78.7,63.7L78.7,63.7z
				 M78.7,63.7"/>
		</g>
		<g>
			<path class="st1" d="M72.7,69.6c0,0.5-0.4,1-1,1c-0.5,0-1-0.4-1-1c0-0.6,0.4-1,1-1C72.3,68.6,72.7,69.1,72.7,69.6L72.7,69.6z
				 M72.7,69.6"/>
		</g>
		<g>
			<path class="st1" d="M78.7,69.6c0,0.5-0.4,1-1,1c-0.5,0-1-0.4-1-1c0-0.6,0.4-1,1-1C78.2,68.6,78.7,69.1,78.7,69.6L78.7,69.6z
				 M78.7,69.6"/>
		</g>
		<g>
			<path class="st1" d="M66.7,75.6c0,0.6-0.4,1-1,1c-0.5,0-1-0.4-1-1c0-0.5,0.4-1,1-1C66.3,74.6,66.7,75,66.7,75.6L66.7,75.6z
				 M66.7,75.6"/>
		</g>
		<g>
			<path class="st1" d="M66.7,81.5c0,0.5-0.4,1-1,1c-0.5,0-1-0.4-1-1c0-0.5,0.4-1,1-1C66.3,80.5,66.7,81,66.7,81.5L66.7,81.5z
				 M66.7,81.5"/>
		</g>
		<g>
			<path class="st1" d="M69.7,78.6c0,0.5-0.4,1-1,1c-0.5,0-1-0.4-1-1c0-0.5,0.4-1,1-1C69.3,77.6,69.7,78,69.7,78.6L69.7,78.6z
				 M69.7,78.6"/>
		</g>
		<g>
			<path class="st1" d="M75.7,78.6c0,0.5-0.4,1-1,1c-0.5,0-1-0.4-1-1c0-0.5,0.4-1,1-1C75.2,77.6,75.7,78,75.7,78.6L75.7,78.6z
				 M75.7,78.6"/>
		</g>
		<g>
			<path class="st1" d="M63.8,84.5c0,0.5-0.4,1-1,1c-0.5,0-1-0.4-1-1c0-0.6,0.4-1,1-1C63.3,83.5,63.8,84,63.8,84.5L63.8,84.5z
				 M63.8,84.5"/>
		</g>
		<g>
			<path class="st1" d="M69.7,84.5c0,0.5-0.4,1-1,1c-0.5,0-1-0.4-1-1c0-0.6,0.4-1,1-1C69.3,83.5,69.7,84,69.7,84.5L69.7,84.5z
				 M69.7,84.5"/>
		</g>
		<g>
			<path class="st1" d="M75.7,84.5c0,0.5-0.4,1-1,1c-0.5,0-1-0.4-1-1c0-0.6,0.4-1,1-1C75.2,83.5,75.7,84,75.7,84.5L75.7,84.5z
				 M75.7,84.5"/>
		</g>
		<g>
			<path class="st1" d="M72.7,75.6c0,0.6-0.4,1-1,1c-0.5,0-1-0.4-1-1c0-0.5,0.4-1,1-1C72.3,74.6,72.7,75,72.7,75.6L72.7,75.6z
				 M72.7,75.6"/>
		</g>
		<g>
			<path class="st1" d="M78.7,75.6c0,0.6-0.4,1-1,1c-0.5,0-1-0.4-1-1c0-0.5,0.4-1,1-1C78.2,74.6,78.7,75,78.7,75.6L78.7,75.6z
				 M78.7,75.6"/>
		</g>
		<g>
			<path class="st1" d="M72.7,81.5c0,0.5-0.4,1-1,1c-0.5,0-1-0.4-1-1c0-0.5,0.4-1,1-1C72.3,80.5,72.7,81,72.7,81.5L72.7,81.5z
				 M72.7,81.5"/>
		</g>
		<g>
			<path class="st1" d="M78.7,81.5c0,0.5-0.4,1-1,1c-0.5,0-1-0.4-1-1c0-0.5,0.4-1,1-1C78.2,80.5,78.7,81,78.7,81.5L78.7,81.5z
				 M78.7,81.5"/>
		</g>
	</g>
</g>
<g>
	<g>
		<g>
			<path class="st1" d="M31.5,9c0.8,0,1.4-0.6,1.4-1.4s-0.6-1.4-1.4-1.4c-5.5,0-10.2,4.1-11,9.6c-0.1,0.8,0.4,1.5,1.2,1.6
				c0.1,0,0.1,0,0.2,0c0.3,0,0.6-0.1,0.8-0.3c0.3-0.2,0.5-0.6,0.6-0.9C23.9,12,27.4,9,31.5,9z"/>
			<g>
				<path class="st1" d="M45.8,17.2c0,0.3-0.1,1-0.1,1c0,0.4,0.1,0.8,0.4,1.1c0.3,0.3,0.7,0.4,1.1,0.4c0.3,0,0.7-0.1,1-0.1
					c2.3,0,4.5,0.8,6.2,2.1h4c-0.3-0.4-0.6-0.8-1-1.1c-2.4-2.4-5.5-3.8-8.9-3.9c-0.1-4.5-1.9-8.7-5.1-11.9C40.3,1.8,36,0,31.5,0
					c-4.2,0-8.2,1.5-11.4,4.3c-2.7,2.4-4.7,5.7-5.5,9.3c0,0,0,0-0.1,0C6.6,13.6,0,20.1,0,28.2s6.6,14.6,14.6,14.6h5.3
					c0.8,0,1.4-0.6,1.4-1.4s-0.6-1.4-1.4-1.4h-5.3c-6.5,0-11.8-5.3-11.8-11.8s5.3-11.8,11.8-11.8c0.3,0,0.7,0,1.1,0.1
					c0.8,0.1,1.4-0.5,1.5-1.2c0.5-3.4,2.1-6.5,4.7-8.8c2.6-2.3,6-3.6,9.5-3.6C39.4,2.8,45.8,9.3,45.8,17.2z"/>
			</g>
		</g>
		<g>
			<path class="st1" d="M65.1,46l-0.2-20c0-0.7-0.3-1.4-0.8-1.9c-0.5-0.5-1.2-0.8-1.9-0.8l-36.1,0.4c-0.7,0-1.4,0.3-1.9,0.8
				c-0.5,0.5-0.8,1.2-0.8,1.9l0.2,20c0,0.7,0.3,1.4,0.8,1.9c0.3,0.3,0.6,0.5,1,0.6c0.3,0.1,0.6,0.2,0.9,0.2l36.1-0.4l0,0
				C63.9,48.7,65.2,47.5,65.1,46z M44.3,36.6L29.1,26.4L59.2,26L44.3,36.6z M43.5,39.4c0.1,0.1,0.2,0.1,0.3,0.2
				c0.4,0.1,0.9,0.1,1.2-0.2l3.1-2.2L59.8,46L29,46.4l11.4-9.1L43.5,39.4z M62.4,44.6l-11.9-9l11.7-8.3L62.4,44.6z M26.1,27.7
				l11.9,8.1L26.3,45L26.1,27.7z"/>
			<g>
				<path class="st1" d="M69.2,41.7l5.5-0.2c0.8,0,1.4,0.6,1.4,1.3c0,0.6-0.3,1.1-0.8,1.3c-0.1,0.1-0.3,0.1-0.5,0.1l-5.5,0.2
					c-0.8,0-1.4-0.6-1.4-1.3C67.9,42.4,68.5,41.7,69.2,41.7z"/>
				<path class="st1" d="M74.7,29.9c-0.1,0.1-0.3,0.1-0.5,0.1l-3.4,0.1c-0.8,0-1.4-0.6-1.4-1.3c0-0.8,0.6-1.4,1.3-1.4l3.4-0.1
					c0.8,0,1.4,0.6,1.4,1.3C75.6,29.1,75.2,29.6,74.7,29.9z"/>
				<path class="st1" d="M78.3,35.4l2.5-0.1c0.8,0,1.4,0.6,1.4,1.3c0,0.6-0.3,1.1-0.8,1.3C81.3,37.9,81.1,38,81,38l-2.5,0.1
					c-0.8,0-1.4-0.6-1.4-1.3C77,36,77.6,35.4,78.3,35.4z"/>
			</g>
		</g>
	</g>
</g>
</svg>
