<?xml version="1.0" encoding="utf-8"?>
<!-- Generator: Adobe Illustrator 19.0.0, SVG Export Plug-In . SVG Version: 6.00 Build 0)  -->
<svg version="1.1" id="Layer_1" xmlns="http://www.w3.org/2000/svg" xmlns:xlink="http://www.w3.org/1999/xlink" x="0px" y="0px"
	 viewBox="0 0 64 77.9" style="enable-background:new 0 0 64 77.9;" xml:space="preserve">
<style type="text/css">
	.st0{fill:#010101;}
</style>
<g>
	<path class="st0" d="M63.1,6.3l-5.4-5.4C57.1,0.3,56.4,0,55.5,0c-0.8,0-1.6,0.3-2.2,0.9L30.4,23.8c-0.2,0.2-0.4,0.4-0.4,0.7l-2,5.9
		l-1.6,4.7c-0.2,0.6-0.1,1.3,0.3,1.8c0.4,0.5,1,0.8,1.6,0.8c0.2,0,0.4,0,0.6-0.1l10.6-3.5c0.3-0.1,0.5-0.2,0.7-0.4l22.9-22.9
		c0.6-0.6,0.9-1.3,0.9-2.2C64,7.6,63.7,6.9,63.1,6.3z M46.9,8.9l2.4,2.4L34.6,26.1c0-0.6-0.2-1.3-0.7-1.7c-0.5-0.5-1.2-0.7-1.8-0.6
		L46.9,8.9z M49.8,11.8l2.4,2.4L37.4,28.8c0-0.6-0.2-1.2-0.7-1.6c-0.4-0.4-1.2-0.7-1.8-0.7L49.8,11.8z M39.2,32.9L39.2,32.9
		C39.1,32.9,39.1,32.9,39.2,32.9l-6,2.1l-4.1-4.1l2-5.9c0-0.1,0.1-0.1,0.1-0.1l0,0c0.7-0.7,1.8-0.7,2.4,0c0.7,0.7,0.7,1.8,0,2.4l0,0
		c-0.1,0.1-0.1,0.3,0,0.4c0.1,0.1,0.3,0.1,0.4,0l0,0c0.7-0.7,1.8-0.7,2.4,0c0.7,0.7,0.7,1.8,0,2.4c-0.1,0.1-0.1,0.1-0.1,0.2
		s0,0.1,0.1,0.2c0.1,0.1,0.3,0.1,0.4,0c0.7-0.7,1.8-0.7,2.4,0C39.8,31.1,39.8,32.2,39.2,32.9z M40.2,31.9c0.1-0.7-0.1-1.4-0.7-1.8
		c-0.5-0.5-1.2-0.7-1.8-0.7l14.9-14.9l2.5,2.5L40.2,31.9z M55.5,16.6l-8.1-8.1l2.2-2.2l8.1,8.1L55.5,16.6z M62.3,9.8L58.1,14L50,5.9
		l4.2-4.2c0.4-0.4,0.8-0.6,1.3-0.6s1,0.2,1.3,0.6l5.4,5.4c0.4,0.4,0.6,0.8,0.6,1.3C62.8,9,62.6,9.5,62.3,9.8z"/>
	<polygon class="st0" points="42.4,33.4 42.4,70.8 7.8,70.8 7.8,11.8 38.1,11.8 39.2,10.6 6.8,10.6 6.8,71.8 43.5,71.8 43.5,32.3 	
		"/>
	<path class="st0" d="M47.8,27.9v43.4c0,2.4-2,4.4-4.4,4.4H6.6c-1.2,0-2.3-0.5-3.1-1.3c-0.8-0.8-1.3-1.8-1.3-3.1V10.1
		c0-1.2,0.5-2.3,1.3-3.1c0.8-0.8,1.8-1.3,3.1-1.3h39.2l2.1-2.1c-0.3-0.1-0.6-0.1-1-0.1H6.6C3,3.6,0,6.6,0,10.2v61.1
		c0,3.6,3,6.6,6.6,6.6h36.9c3.6,0,6.6-3,6.6-6.6V25.7L47.8,27.9z"/>
	<g>
		<path class="st0" d="M21.5,31.1c0.1,0.3,0.3,0.5,0.5,0.7c0.2,0.1,0.4,0.1,0.7,0.1c0.2-0.1,0.4-0.3,0.4-0.5c0.1-0.2,0-0.5-0.1-0.9
			v-0.1c-0.1-0.3-0.3-0.5-0.5-0.7c-0.2-0.1-0.4-0.1-0.7-0.1c-0.2,0.1-0.4,0.3-0.4,0.5C21.3,30.5,21.3,30.8,21.5,31.1L21.5,31.1z"/>
		<path class="st0" d="M29.5,38.7c-0.1,2-1.8,3.6-3.8,3.7c-2.2,0.1-4.1-1.6-4.3-3.9c-0.1-2.2,1.6-4.1,3.9-4.3h0.1l0.6-1.8l2-5.9
			c0-0.1,0.1-0.1,0.1-0.1c-1-0.2-2-0.3-3.1-0.2c-6.9,0.3-12,5.9-11.7,12.8c0.3,6.9,5.9,12,12.8,11.7c6.9-0.3,12-5.9,11.7-12.8
			c0-0.6-0.1-1.2-0.2-1.8l0,0L29.5,38.7z M26.6,28.5v0.9h-0.5V29H25v0.9h1.2v0.5H25v0.9l0.4,0.1v0.4L24,31.8v-0.4l0.4-0.1V29
			L24,28.9v-0.4L26.6,28.5z M20.8,30.1c0.1-0.4,0.4-0.7,0.8-0.9c0.4-0.1,0.8-0.1,1.2,0c0.4,0.1,0.7,0.5,0.9,1v0.1
			c0.2,0.4,0.2,0.9,0.1,1.3c-0.1,0.4-0.4,0.7-0.8,0.9c-0.4,0.1-0.8,0.1-1.2,0c-0.4-0.1-0.7-0.5-0.9-1v-0.1
			C20.6,30.9,20.6,30.5,20.8,30.1z M21.3,33.1c-0.1,0.2-0.2,0.4-0.4,0.6c-0.3,0.3-0.7,0.4-1.1,0.4S19,34,18.6,33.6l-0.1-0.1
			c-0.4-0.3-0.5-0.7-0.6-1.1c0-0.4,0.1-0.8,0.4-1.1c0.1-0.2,0.4-0.3,0.6-0.4c0.2-0.1,0.4-0.1,0.6-0.1l0.4,0.4l-0.4,0.4l-0.4-0.2
			c-0.1,0-0.2,0-0.3,0.1c-0.1,0.1-0.2,0.1-0.3,0.2c-0.2,0.2-0.3,0.4-0.2,0.7c0.1,0.2,0.2,0.5,0.4,0.7l0.1,0.1
			c0.2,0.2,0.5,0.4,0.7,0.4c0.3,0,0.5-0.1,0.7-0.2c0.1-0.1,0.1-0.2,0.2-0.3c0.1-0.1,0.1-0.2,0.1-0.3l-0.3-0.4l0.4-0.4l0.4,0.4
			C21.4,32.8,21.4,32.9,21.3,33.1z"/>
	</g>
</g>
</svg>
