<?xml version="1.0" encoding="utf-8"?>
<!-- Generator: Adobe Illustrator 19.0.0, SVG Export Plug-In . SVG Version: 6.00 Build 0)  -->
<svg version="1.1" id="Layer_1" xmlns="http://www.w3.org/2000/svg" xmlns:xlink="http://www.w3.org/1999/xlink" x="0px" y="0px"
	 width="16.1px" height="22px" viewBox="0 0 16.1 22" style="enable-background:new 0 0 16.1 22;" xml:space="preserve">
<style type="text/css">
	.st0{fill:#333333;}
</style>
<g>
	<g>
		<path class="st0" d="M8,22c-1.8,0-3.3-1.5-3.3-3.3v-3.4C1.9,14.1,0,11.2,0,8c0-4.4,3.6-8,8-8s8,3.6,8,8c0,3.2-1.9,6.1-4.8,7.3v3.4
			C11.3,20.6,9.8,22,8,22z M8,1.8C4.6,1.8,1.8,4.6,1.8,8c0,2.6,1.7,5,4.2,5.9c0.4,0.1,0.6,0.5,0.6,0.8v4c0,0.8,0.7,1.5,1.5,1.5
			s1.5-0.7,1.5-1.5v-4c0-0.4,0.2-0.7,0.6-0.8c2.5-0.9,4.2-3.2,4.2-5.9C14.3,4.6,11.5,1.8,8,1.8z"/>
	</g>
	<g>
		<rect x="7.1" y="11.6" class="st0" width="1.8" height="4.2"/>
	</g>
	<g>
		<rect x="5.7" y="15.5" class="st0" width="4.2" height="1.8"/>
	</g>
	<g>
		<rect x="5.7" y="17.9" class="st0" width="4.2" height="1.8"/>
	</g>
	<g>
		<rect x="5.9" y="9.8" transform="matrix(0.7071 0.7071 -0.7071 0.7071 9.6683 -1.9126)" class="st0" width="2.5" height="1.8"/>
	</g>
	<g>
		<rect x="8" y="9.5" transform="matrix(0.7071 0.7071 -0.7071 0.7071 10.1913 -3.1753)" class="st0" width="1.8" height="2.5"/>
	</g>
</g>
</svg>
