<?xml version="1.0" encoding="utf-8"?>
<!-- Generator: Adobe Illustrator 19.0.0, SVG Export Plug-In . SVG Version: 6.00 Build 0)  -->
<svg version="1.1" id="Layer_1" xmlns="http://www.w3.org/2000/svg" xmlns:xlink="http://www.w3.org/1999/xlink" x="0px" y="0px"
	 width="11.6px" height="21.4px" viewBox="0 0 11.6 21.4" style="enable-background:new 0 0 11.6 21.4;" xml:space="preserve">
<style type="text/css">
	.st0{fill:#666667;}
</style>
<path class="st0" d="M11.1,0L8.4,0C5.2,0,3.2,2.1,3.2,5.3v2.4H0.4C0.2,7.7,0,7.9,0,8.1v3.5c0,0.2,0.2,0.4,0.4,0.4h2.8V21
	c0,0.2,0.2,0.4,0.4,0.4h3.6c0.2,0,0.4-0.2,0.4-0.4v-8.9H11c0.2,0,0.4-0.2,0.4-0.4l0-3.5c0-0.1,0-0.2-0.1-0.3
	c-0.1-0.1-0.2-0.1-0.3-0.1H7.7V5.6c0-1,0.2-1.5,1.5-1.5l1.9,0c0.2,0,0.4-0.2,0.4-0.4V0.4C11.6,0.2,11.4,0,11.1,0L11.1,0z M11.1,0"/>
</svg>
