<?xml version="1.0" encoding="utf-8"?>
<!-- Generator: Adobe Illustrator 19.0.0, SVG Export Plug-In . SVG Version: 6.00 Build 0)  -->
<svg version="1.1" id="Layer_1" xmlns="http://www.w3.org/2000/svg" xmlns:xlink="http://www.w3.org/1999/xlink" x="0px" y="0px"
	 width="20.1px" height="20.1px" viewBox="0 0 20.1 20.1" style="enable-background:new 0 0 20.1 20.1;" xml:space="preserve">
<style type="text/css">
	.st0{fill:#666667;}
</style>
<g>
	<g id="XMLID_98_">
		<path id="XMLID_103_" class="st0" d="M10.1,15.2c2.9,0,5.2-2.3,5.2-5.2c0-2.9-2.3-5.2-5.2-5.2c-2.9,0-5.2,2.3-5.2,5.2
			C4.9,12.9,7.2,15.2,10.1,15.2z M10.1,7.1c1.7,0,3,1.3,3,3c0,1.7-1.3,3-3,3c-1.6,0-3-1.3-3-3C7.1,8.4,8.4,7.1,10.1,7.1z"/>
		<circle id="XMLID_102_" class="st0" cx="15.4" cy="4.7" r="1.2"/>
		<path id="XMLID_99_" class="st0" d="M5.1,20.1h10c2.8,0,5.1-2.3,5.1-5.1v-10c0-2.8-2.3-5.1-5.1-5.1h-10C2.3,0,0,2.3,0,5.1v10
			C0,17.9,2.3,20.1,5.1,20.1z M2.2,5.1c0-1.6,1.3-2.9,2.9-2.9h10c1.6,0,2.9,1.3,2.9,2.9v10c0,1.6-1.3,2.9-2.9,2.9h-10
			c-1.6,0-2.9-1.3-2.9-2.9V5.1z"/>
	</g>
</g>
</svg>
