<?xml version="1.0" encoding="utf-8"?>
<!-- Generator: Adobe Illustrator 19.0.0, SVG Export Plug-In . SVG Version: 6.00 Build 0)  -->
<svg version="1.1" id="Layer_1" xmlns="http://www.w3.org/2000/svg" xmlns:xlink="http://www.w3.org/1999/xlink" x="0px" y="0px"
	 viewBox="0 0 446.5 38.3" style="enable-background:new 0 0 446.5 38.3;" xml:space="preserve">
<style type="text/css">
	.st0{fill:#000100;}
	.st1{fill:#333333;}
</style>
<g>
	<path class="st0" d="M5.8,5.7c4.4,0,6.7,2.4,6.7,6.8v13.2c0,4.4-2.4,6.8-6.7,6.8H0V5.7H5.8z M4.1,28.8h1.6c2,0,2.8-1,2.8-3.3V12.8
		c0-2.3-0.9-3.3-2.8-3.3H4.1V28.8z"/>
	<path d="M26.7,32.5l-0.9-6.1h-4.5l-0.9,6.1h-4.1L21,5.7h5.2l4.6,26.8H26.7z M21.9,22.8h3.4l-1.6-11.3h-0.1L21.9,22.8z"/>
	<path d="M40.8,21.2h-1.9v11.3h-4.1V5.7h5.9c4.4,0,6.7,2.4,6.7,6.8v1.9c0,2.8-1,4.8-2.9,5.9l3.7,12.2H44L40.8,21.2z M38.9,17.5h1.6
		c2,0,2.8-1,2.8-3.3v-1.4c0-2.3-0.9-3.3-2.8-3.3h-1.6V17.5z"/>
	<path d="M66.5,32.5h-4.3l-4-11.7l-1.8,3.4v8.3h-4.1V5.7h4.1v11.2h0.1l5.6-11.2h4.2l-5.5,10.6L66.5,32.5z"/>
	<path d="M76,21.2h-1.9v11.3h-4.1V5.7h5.9c4.4,0,6.7,2.4,6.7,6.8v1.9c0,2.8-1,4.8-2.9,5.9l3.7,12.2h-4.3L76,21.2z M74.1,17.5h1.6
		c2,0,2.8-1,2.8-3.3v-1.4c0-2.3-0.9-3.3-2.8-3.3h-1.6V17.5z"/>
	<path d="M100.6,12.1v14c0,4.2-2.5,6.8-6.5,6.8c-4.1,0-6.5-2.6-6.5-6.8v-14c0-4.2,2.5-6.8,6.5-6.8C98.1,5.4,100.6,7.9,100.6,12.1z
		 M91.6,12.2v13.9c0,2,0.9,3.1,2.5,3.1c1.6,0,2.5-1.1,2.5-3.1V12.2c0-2-0.9-3.1-2.5-3.1C92.5,9.1,91.6,10.2,91.6,12.2z"/>
	<path d="M114.7,32.5l-0.9-6.1h-4.5l-0.9,6.1h-4.1l4.6-26.8h5.2l4.6,26.8H114.7z M109.9,22.8h3.4l-1.6-11.3h-0.1L109.9,22.8z"/>
	<path d="M134.2,11.4v0.7l-3.9,0.4v-1c0-1.5-0.7-2.3-2.1-2.3c-1.3,0-2.1,0.8-2.1,2.3v0.3c0,1.6,0.7,2.9,3.4,5.2
		c3.7,3.1,5.1,5.4,5.1,8.6v1.3c0,3.8-2.3,6-6.3,6s-6.3-2.2-6.3-6v-1.8l3.9-0.4v1.9c0,1.7,0.8,2.5,2.3,2.5s2.3-0.8,2.3-2.5v-0.9
		c0-1.7-0.8-3-3.5-5.3c-3.7-3.1-5-5.4-5-8.5v-0.6c0-3.8,2.2-6,6-6S134.2,7.5,134.2,11.4z"/>
	<path d="M145.1,9.6v23h-4.1v-23h-4.3V5.7h12.7v3.8H145.1z"/>
	<path d="M167.6,5.7c4.4,0,6.7,2.4,6.7,6.8v13.2c0,4.4-2.4,6.8-6.7,6.8h-5.8V5.7H167.6z M165.8,28.8h1.6c2,0,2.8-1,2.8-3.3V12.8
		c0-2.3-0.9-3.3-2.8-3.3h-1.6V28.8z"/>
	<path d="M179.8,32.5V5.7h4.1v26.8H179.8z"/>
	<path d="M202.1,11.8v1.8l-3.9,0.2v-1.6c0-2.1-0.8-3.1-2.4-3.1c-1.6,0-2.4,1-2.4,2.7v14.6c0,1.8,0.8,2.7,2.3,2.7
		c1.6,0,2.3-1,2.3-3.1v-4.6h-2.3v-3.8h6.3v8.8c0,4.1-2.3,6.4-6.4,6.4c-4,0-6.3-2.4-6.3-6.4V11.8c0-4.1,2.3-6.4,6.3-6.4
		C199.7,5.4,202.1,7.7,202.1,11.8z"/>
	<path d="M207.4,32.5V5.7h4.1v26.8H207.4z"/>
	<path d="M223.9,9.6v23h-4.1v-23h-4.3V5.7h12.7v3.8H223.9z"/>
	<path d="M239.9,32.5l-0.9-6.1h-4.5l-0.9,6.1h-4.1l4.6-26.8h5.2l4.6,26.8H239.9z M235,22.8h3.4l-1.6-11.3h-0.1L235,22.8z"/>
	<path d="M259.3,28.7v3.8h-10.8V5.7h4.1v23H259.3z"/>
	<path d="M272.4,38.3V0h3.1v38.3H272.4z"/>
</g>
<g>
	<path class="st1" d="M295.4,11.4v6.7h10.3v2.2h-10.3v7h11.9v2.2h-14.2V9.2h13.9v2.2H295.4z"/>
	<path class="st1" d="M331.6,29.6h-2.8l-6.2-8.6l-6.2,8.6h-2.7l7.5-10.5l-7-9.9h2.7l5.6,7.9l5.7-7.9h2.7l-6.9,9.8L331.6,29.6z"/>
	<path class="st1" d="M347.3,9.2c5,0,8,2.5,8,6.9c0,4.5-2.9,7.1-8,7.1H342v6.5h-2.3V9.2H347.3z M342,20.9h5.3c3.7,0,5.8-1.6,5.8-4.8
		c0-3.1-2.1-4.7-5.8-4.7H342V20.9z"/>
	<path class="st1" d="M372.4,23.1c-0.4,0-0.9,0.1-1.4,0.1h-5.4v6.5h-2.3V9.2h7.8c5.1,0,8.1,2.5,8.1,6.9c0,3.4-1.6,5.7-4.6,6.6
		l4.8,6.9h-2.7L372.4,23.1z M371.1,20.9c3.7,0,5.8-1.6,5.8-4.8c0-3.1-2.1-4.7-5.8-4.7h-5.4v9.5H371.1z"/>
	<path class="st1" d="M390.8,11.4v6.7h10.3v2.2h-10.3v7h11.9v2.2h-14.2V9.2h13.9v2.2H390.8z"/>
	<path class="st1" d="M424.1,11l-1,2.2c-1.8-1.2-4-1.7-5.6-1.7c-2.6,0-4.3,1-4.3,2.7c0,5.3,11.5,2.5,11.5,9.9c0,3.4-3,5.6-7.4,5.6
		c-3,0-5.9-1.3-7.8-3.1l1.1-2.1c1.9,1.8,4.5,2.9,6.8,2.9c2.9,0,4.8-1.2,4.8-3.2c0-5.4-11.5-2.5-11.5-9.8c0-3.2,2.8-5.3,7.1-5.3
		C420,9.1,422.4,9.8,424.1,11z"/>
	<path class="st1" d="M446.1,11l-1,2.2c-1.8-1.2-4-1.7-5.6-1.7c-2.6,0-4.3,1-4.3,2.7c0,5.3,11.5,2.5,11.5,9.9c0,3.4-3,5.6-7.4,5.6
		c-3,0-5.9-1.3-7.8-3.1l1.1-2.1c1.9,1.8,4.5,2.9,6.8,2.9c2.9,0,4.8-1.2,4.8-3.2c0-5.4-11.5-2.5-11.5-9.8c0-3.2,2.8-5.3,7.1-5.3
		C441.9,9.1,444.4,9.8,446.1,11z"/>
</g>
</svg>
