<?xml version="1.0" encoding="utf-8"?>
<!-- Generator: Adobe Illustrator 21.1.0, SVG Export Plug-In . SVG Version: 6.00 Build 0)  -->
<svg version="1.1" id="Layer_1" xmlns="http://www.w3.org/2000/svg" xmlns:xlink="http://www.w3.org/1999/xlink" x="0px" y="0px"
	 width="93.8px" height="91.7px" viewBox="0 0 93.8 91.7" style="enable-background:new 0 0 93.8 91.7;" xml:space="preserve">
<style type="text/css">
	.st0{fill:#EDECED;}
	.st1{fill:#333333;}
</style>
<path class="st0" d="M72.7,90.3H20.3c-9.6,0-17.5-7.8-17.5-17.5V20.4c0-9.6,7.8-17.5,17.5-17.5h52.4c9.6,0,17.5,7.8,17.5,17.5v52.4
	C90.1,82.4,82.3,90.3,72.7,90.3z"/>
<g>
	<g>
		<path class="st1" d="M66,48.5c-20.8-2.8-41.8-2.8-62.6,0c-1.7,0.2-3,1.7-3,3.4c0,1,0.4,1.9,1.2,2.6c0.7,0.7,1.7,1,2.7,0.8
			c4.2-0.5,8.4-1,12.6-1.3l-2.2,33.5c-0.1,1,0.3,1.9,0.9,2.6c0.7,0.7,1.6,1.1,2.5,1.1h32.9c1,0,1.9-0.4,2.5-1.1
			c0.7-0.7,1-1.6,0.9-2.6l-2.2-33.5c4.2,0.3,8.4,0.8,12.6,1.3c0.2,0,0.3,0,0.5,0c0.8,0,1.7-0.3,2.3-0.9C68.5,53.9,69,53,69,52
			C69,50.2,67.7,48.7,66,48.5L66,48.5z M52,88.7c-0.2,0.3-0.6,0.4-0.9,0.4H18.2c-0.4,0-0.7-0.1-0.9-0.4c-0.2-0.3-0.4-0.6-0.3-0.9
			l1.5-23.7h32.3l1.5,23.7C52.4,88.1,52.3,88.4,52,88.7L52,88.7z M50.7,61.8h-32l0.5-7.9c10.3-0.7,20.7-0.7,31,0L50.7,61.8z
			 M66.3,52.9c-0.3,0.2-0.6,0.3-1,0.3c-20.4-2.7-41-2.7-61.3,0c-0.4,0-0.7-0.1-1-0.3c-0.3-0.2-0.4-0.6-0.4-0.9
			c0-0.6,0.5-1.2,1.1-1.2c20.6-2.7,41.4-2.7,62,0c0.6,0.1,1.1,0.6,1.1,1.2C66.7,52.3,66.6,52.6,66.3,52.9L66.3,52.9z M66.3,52.9"/>
		<path class="st1" d="M51.1,91.7H18.2c-1.1,0-2.1-0.4-2.8-1.2c-0.7-0.8-1.1-1.8-1-2.9l2.1-33.1c-4.1,0.3-8.2,0.7-12.2,1.3
			c-1.1,0.1-2.2-0.2-3-0.9C0.5,54.1,0,53.1,0,52c0-1.9,1.4-3.6,3.3-3.8c20.8-2.8,41.9-2.8,62.7,0l0,0c1.9,0.3,3.3,1.9,3.3,3.8
			c0,1.1-0.5,2.2-1.3,2.9c-0.8,0.7-1.9,1.1-3,0.9c-4-0.5-8.1-1-12.2-1.3L55,87.6c0.1,1.1-0.3,2.1-1,2.9
			C53.2,91.2,52.2,91.7,51.1,91.7z M17.3,53.7l-2.2,34c-0.1,0.9,0.2,1.7,0.8,2.3c0.6,0.6,1.4,1,2.3,1h32.9c0.9,0,1.7-0.4,2.3-1
			c0.6-0.6,0.9-1.5,0.8-2.3l-2.2-34l0.4,0c4.2,0.3,8.5,0.8,12.7,1.3c0.9,0.1,1.8-0.2,2.4-0.7c0.7-0.6,1-1.4,1-2.3
			c0-1.5-1.1-2.9-2.7-3.1l0,0c-20.7-2.8-41.8-2.8-62.5,0c-1.5,0.2-2.7,1.5-2.7,3.1c0,0.9,0.4,1.7,1,2.3c0.7,0.6,1.6,0.9,2.4,0.7
			c4.2-0.5,8.4-1,12.7-1.3L17.3,53.7z M51.1,89.5H18.2c-0.5,0-0.9-0.2-1.2-0.5c-0.3-0.3-0.5-0.8-0.4-1.2l1.6-24h33l1.6,24
			c0,0.5-0.1,0.9-0.4,1.2h0C52,89.3,51.6,89.5,51.1,89.5z M18.9,64.4l-1.5,23.3c0,0.2,0.1,0.5,0.2,0.7c0.2,0.2,0.4,0.3,0.6,0.3h32.9
			c0.2,0,0.5-0.1,0.6-0.3l0,0c0.2-0.2,0.3-0.4,0.2-0.7l-1.5-23.3H18.9z M51.1,62.2H18.3l0.6-8.6l0.3,0c10.3-0.7,20.8-0.7,31.1,0
			l0.3,0L51.1,62.2z M19.1,61.5h31.2l-0.5-7.2c-10.1-0.7-20.3-0.7-30.3,0L19.1,61.5z M65.5,53.6c-0.1,0-0.1,0-0.2,0
			C45,50.9,24.4,50.9,4,53.6c-0.5,0.1-0.9-0.1-1.3-0.4c-0.4-0.3-0.5-0.7-0.5-1.2c0-0.8,0.6-1.5,1.4-1.6c20.6-2.7,41.5-2.8,62.1,0
			c0.8,0.1,1.4,0.8,1.4,1.6c0,0.5-0.2,0.9-0.5,1.2C66.3,53.4,65.9,53.6,65.5,53.6z M34.7,50.8c10.3,0,20.5,0.7,30.7,2
			c0.3,0,0.5,0,0.7-0.2l0,0c0.2-0.2,0.3-0.4,0.3-0.6c0-0.4-0.3-0.8-0.7-0.9c-20.5-2.7-41.4-2.7-61.9,0C3.3,51.2,3,51.5,3,52
			c0,0.3,0.1,0.5,0.3,0.6c0.2,0.2,0.4,0.2,0.7,0.2C14.1,51.5,24.4,50.8,34.7,50.8z"/>
	</g>
</g>
<path class="st1" d="M2.7,29.5l37.9,13c0.4,0.1,0.7,0.2,1.1,0.2c1.5,0,2.8-0.9,3.3-2.4c0.6-1.8-0.3-3.8-2.2-4.4L5,22.9
	c-0.9-0.3-1.8-0.2-2.7,0.2c-0.8,0.4-1.5,1.1-1.8,2C-0.1,26.9,0.9,28.9,2.7,29.5L2.7,29.5z M34.4,35.4l-0.8,2.4l-1.9-0.7l0.8-2.4
	L34.4,35.4z M43,39.6c-0.2,0.5-0.7,0.9-1.2,0.9c-0.1,0-0.3,0-0.4-0.1l-5.7-2l0.8-2.4l5.7,2C42.8,38.3,43.2,39,43,39.6L43,39.6z
	 M2.7,25.8c0.1-0.3,0.3-0.6,0.6-0.7c0.2-0.1,0.4-0.1,0.5-0.1c0.1,0,0.3,0,0.4,0.1l26.1,9l-0.8,2.4l-26.1-9
	C2.8,27.2,2.4,26.4,2.7,25.8L2.7,25.8z M2.7,25.8"/>
<path class="st1" d="M49,74.7c0-0.6-0.6-1.1-1.2-1c-0.6,0-1.1,0.6-1,1.2l0.7,10.7c0,0.6,0.5,1,1.1,1c0,0,0,0,0.1,0
	c0.6,0,1.1-0.6,1-1.2L49,74.7z M49,74.7"/>
<path class="st1" d="M47.6,71.2C47.6,71.2,47.6,71.2,47.6,71.2c0.7,0,1.1-0.6,1.1-1.2l-0.2-2.4c0-0.6-0.6-1.1-1.2-1
	c-0.6,0-1.1,0.6-1,1.2l0.2,2.4C46.5,70.7,47,71.2,47.6,71.2L47.6,71.2z M47.6,71.2"/>
<path class="st1" d="M89.5,20.1c0.5-0.3,0.5-1,0-1.3l-2.9-1.6c-0.1-0.1-0.2-0.2-0.3-0.3L84.7,14c-0.3-0.5-1-0.5-1.3,0L81.8,17
	c-0.1,0.1-0.2,0.2-0.3,0.3l-2.9,1.6c-0.5,0.3-0.5,1,0,1.3l2.9,1.6c0.1,0.1,0.2,0.2,0.3,0.3l1.6,2.9c0.3,0.5,1,0.5,1.3,0l1.6-2.9
	c0.1-0.1,0.2-0.2,0.3-0.3L89.5,20.1L89.5,20.1z M89.5,20.1"/>
<path class="st1" d="M45.6,28.6c0.5-0.3,0.5-1,0-1.3l-0.7-0.4c-0.1-0.1-0.2-0.2-0.3-0.3L44.3,26c-0.3-0.5-1-0.5-1.3,0l-0.4,0.7
	c-0.1,0.1-0.2,0.2-0.3,0.3l-0.7,0.4c-0.5,0.3-0.5,1,0,1.3l0.7,0.4c0.1,0.1,0.2,0.2,0.3,0.3l0.4,0.7c0.3,0.5,1,0.5,1.3,0l0.4-0.7
	c0.1-0.1,0.2-0.2,0.3-0.3L45.6,28.6L45.6,28.6z M45.6,28.6"/>
<path class="st1" d="M58.8,38.4c-0.1-0.1-0.2-0.2-0.3-0.3l-1.1-2c-0.3-0.5-1-0.5-1.3,0l-1.1,2c-0.1,0.1-0.2,0.2-0.3,0.3l-2,1.1
	c-0.5,0.3-0.5,1,0,1.3l2,1.1c0.1,0.1,0.2,0.2,0.3,0.3l1.1,2c0.3,0.5,1,0.5,1.3,0l1.1-2c0.1-0.1,0.2-0.2,0.3-0.3l2-1.1
	c0.5-0.3,0.5-1,0-1.3L58.8,38.4L58.8,38.4z M58.8,38.4"/>
<g>
	<g>
		<path class="st1" d="M60.8,15.6c0.1,0.3,0.3,0.5,0.5,0.6c0.2,0.1,0.4,0.1,0.6,0.1c0.3-0.1,0.4-0.3,0.5-0.5c0.1-0.2,0-0.5-0.1-0.8
			V15c-0.1-0.3-0.3-0.5-0.5-0.6c-0.2-0.1-0.4-0.1-0.6-0.1c-0.3,0.1-0.4,0.3-0.4,0.5C60.7,15,60.7,15.3,60.8,15.6L60.8,15.6z"/>
		<path class="st1" d="M64.1,11.3c-6,0-10.8,4.7-10.8,10.8S58,32.8,64.1,32.8S74.8,28.1,74.8,22S70.1,11.3,64.1,11.3z M66.2,13.9
			l0.1-0.3l2.1,0.9l-0.3,0.7L67.8,15l0.1-0.3L67,14.4l-0.3,0.7l1,0.4l-0.2,0.4l-1-0.4l-0.3,0.7l0.3,0.2l-0.1,0.3l-1.1-0.4l0.1-0.3
			l0.3,0.1l0.8-1.9L66.2,13.9z M63.1,15.9l0.3-0.1l0.1-2.1l-0.3-0.1v-0.3l2.3,0.1v0.8H65v-0.3h-1v0.8h1v0.5h-1v0.8l0.3,0.1v0.3
			l-1.2-0.1L63.1,15.9z M60.2,14.6c0.1-0.3,0.4-0.6,0.7-0.7c0.4-0.1,0.7-0.1,1,0.1s0.6,0.5,0.7,0.8v0.1c0.1,0.4,0.2,0.8,0.1,1.1
			c-0.1,0.3-0.4,0.6-0.8,0.7c-0.4,0.1-0.7,0.1-1-0.1s-0.6-0.5-0.7-0.8v-0.1C60.1,15.3,60.1,15,60.2,14.6z M59.3,18.2
			c-0.4,0-0.7-0.2-1-0.5l-0.1-0.1c-0.3-0.3-0.5-0.6-0.5-1c0-0.4,0.1-0.7,0.4-1c0.2-0.1,0.3-0.3,0.5-0.3c0.2-0.1,0.4-0.1,0.5-0.1
			l0.4,0.4l-0.3,0.3L59,15.7c-0.1,0-0.2,0-0.3,0.1c-0.1,0.1-0.2,0.1-0.3,0.2c-0.2,0.2-0.3,0.4-0.3,0.6c0,0.3,0.1,0.5,0.3,0.6
			l0.1,0.1c0.2,0.2,0.5,0.3,0.6,0.4c0.3,0.1,0.5,0,0.6-0.2c0.1-0.1,0.1-0.2,0.2-0.3c0.1-0.1,0.1-0.2,0.1-0.3l-0.2-0.3l0.3-0.3
			l0.4,0.4c0,0.2,0,0.4-0.1,0.5c-0.1,0.2-0.2,0.3-0.4,0.5C59.9,18.1,59.6,18.3,59.3,18.2z M64.1,25.7c-2,0-3.6-1.6-3.6-3.6
			s1.6-3.6,3.6-3.6c1.9,0,3.6,1.6,3.6,3.6S66.1,25.7,64.1,25.7z M70.3,17.2L70,16.8l0.2-0.3l-0.6-0.6L69,16.4l0.7,0.7l-0.3,0.3
			l-0.6-0.7l-0.6,0.6l0.6,0.6l0.3-0.3l0.3,0.3l-0.6,0.6L67.1,17l0.3-0.3l0.3,0.2l1.4-1.5l-0.2-0.3l0.3-0.3l0.2,0.2l1.4,1.4
			L70.3,17.2z"/>
	</g>
</g>
<path class="st1" d="M93.4,3.4c0.5-0.3,0.5-1,0-1.3l-0.7-0.4c-0.1-0.1-0.2-0.2-0.3-0.3l-0.4-0.7c-0.3-0.5-1-0.5-1.3,0l-0.4,0.7
	c-0.1,0.1-0.2,0.2-0.3,0.3l-0.7,0.4c-0.5,0.3-0.5,1,0,1.3l0.7,0.4c0.1,0.1,0.2,0.2,0.3,0.3l0.4,0.7c0.3,0.5,1,0.5,1.3,0l0.4-0.7
	c0.1-0.1,0.2-0.2,0.3-0.3L93.4,3.4L93.4,3.4z M93.4,3.4"/>
<path class="st1" d="M75.3,2.7c-0.1-0.1-0.2-0.2-0.3-0.3l-1.1-2c-0.3-0.5-1-0.5-1.3,0l-1.1,2c-0.1,0.1-0.2,0.2-0.3,0.3l-2,1.1
	c-0.5,0.3-0.5,1,0,1.3l2,1.1c0.1,0.1,0.2,0.2,0.3,0.3l1.1,2c0.3,0.5,1,0.5,1.3,0l1.1-2c0.1-0.1,0.2-0.2,0.3-0.3l2-1.1
	c0.5-0.3,0.5-1,0-1.3L75.3,2.7L75.3,2.7z M75.3,2.7"/>
</svg>
