<?xml version="1.0" encoding="utf-8"?>
<!-- Generator: Adobe Illustrator 19.0.0, SVG Export Plug-In . SVG Version: 6.00 Build 0)  -->
<svg version="1.1" id="Layer_1" xmlns="http://www.w3.org/2000/svg" xmlns:xlink="http://www.w3.org/1999/xlink" x="0px" y="0px"
	 viewBox="0 0 50.1 81" style="enable-background:new 0 0 50.1 81;" xml:space="preserve">
<style type="text/css">
	.st0{fill:#010101;}
	.st1{fill:#020202;}
</style>
<g>
	<g>
		<path class="st0" d="M42.9,0H7.1C3.2,0,0,3.2,0,7.1v66.7c0,4,3.2,7.1,7.1,7.1h35.8c4,0,7.1-3.2,7.1-7.1V7.2
			C50.1,3.3,46.9,0,42.9,0z M47.7,74c0,2.7-2.2,4.7-4.7,4.7H7.1c-2.6,0-4.7-2.2-4.7-4.7V7.2c0-2.7,2.2-4.7,4.7-4.7h35.8
			c2.7,0,4.7,2.2,4.7,4.7L47.7,74L47.7,74z"/>
		<path class="st0" d="M25,71.7c-1.6,0-3,1.4-3,3c0,1.6,1.4,3,3,3s3-1.4,3-3C28,73.1,26.8,71.7,25,71.7z M25,76.6
			c-0.9,0-1.8-0.8-1.8-1.8c0-0.9,0.8-1.8,1.8-1.8c1,0,1.8,0.8,1.8,1.8S26.1,76.6,25,76.6z"/>
		<g>
			<path d="M45.2,70.2H4.8v-63h40.4V70.2z M6.5,68.5h37V8.9h-37L6.5,68.5z"/>
		</g>
	</g>
	<g>
		<path class="st1" d="M39.3,23.2v-1.5c0-1,0-2.6-14.3-2.6s-14.4,1.5-14.4,2.5v1.5c-0.6,0.3-1.3,0.9-1.3,1.7V25v2.6v1.2
			c0,1,0.8,1.5,1.5,1.8l2.4,28.8c0,0.9,0.2,2.6,11.6,2.6s11.6-1.6,11.6-2.6l2.6-28.9c0.7-0.3,1.5-0.9,1.5-1.8v-1.1V25v-0.2
			C40.6,24.1,39.9,23.6,39.3,23.2z M31.1,20.6c0.7,0.1,1.5,0.1,2.1,0.2c2.8,0.2,4.7,0.6,4.7,1l0,0c0,0.7-5.8,1.3-13,1.3
			c-7.1,0-13-0.6-13-1.3c0-0.7,5.8-1.3,13-1.3c1.4,0,2.7,0,3.9,0.1C29.7,20.5,30.4,20.5,31.1,20.6z M25,26.9
			c-7.8,0-14.3-0.9-14.3-1.9c0-0.1,0-0.2,0.1-0.2c0-0.1,0.1-0.1,0.2-0.2c0,0,0,0,0.1-0.1c0.1-0.1,0.2-0.2,0.3-0.2
			c0,0.6,0.7,1.9,13.7,1.9s13.6-1.3,13.7-1.9c0.2,0.1,0.3,0.2,0.3,0.2c0,0,0,0,0.1,0.1c0.1,0.1,0.1,0.1,0.2,0.2
			c0.1,0.1,0.1,0.2,0.1,0.2C39.3,26,32.9,26.9,25,26.9z M15.7,23.3c2.5,0.2,5.8,0.3,9.2,0.3c3.5,0,6.8-0.2,9.2-0.3
			c2-0.2,3.2-0.4,3.7-0.7v1.5l0,0v0.2c0,0.8-5.8,1.3-13,1.3S12,25.1,12,24.3v-0.2v-1.5C12.6,22.9,13.7,23.1,15.7,23.3z M12.1,29.7
			c-0.2-0.1-0.4-0.2-0.6-0.2l0,0c-0.2-0.1-0.3-0.2-0.4-0.2H11c-0.1-0.1-0.2-0.2-0.2-0.2s0,0-0.1-0.1c-0.1-0.2-0.1-0.2-0.1-0.3v-1.1
			v-1.9c2.4,1.5,11.3,1.7,14.3,1.7s11.9-0.2,14.3-1.7v1.9v1.1c0,0.1,0,0.2-0.1,0.2c0,0,0,0-0.1,0.1c-0.1,0.1-0.2,0.2-0.2,0.2h-0.1
			c-0.2,0.1-0.2,0.2-0.4,0.2l0,0c-0.2,0.1-0.3,0.2-0.6,0.2c-2.3,0.6-7.1,1.1-12.9,1.1C19.3,30.8,14.5,30.4,12.1,29.7z M35.4,59.4
			c0,0.7-4.6,1.3-10.3,1.3S14.7,60,14.7,59.4l-2.4-29c3.6,1,10.9,1.1,12.8,1.1c1.9,0,9.1-0.1,12.8-1.1L35.4,59.4z"/>
		<path class="st1" d="M22.9,38.4c0.1,0.2,0.2,0.3,0.3,0.4c0.2,0.1,0.2,0.1,0.3,0.1c0.2-0.1,0.2-0.2,0.3-0.3c0-0.2,0-0.3-0.1-0.5
			l0,0c-0.1-0.2-0.2-0.3-0.3-0.3c-0.2-0.1-0.2-0.1-0.3-0.1c-0.2,0.1-0.2,0.2-0.3,0.3C22.9,38,22.9,38.2,22.9,38.4L22.9,38.4z"/>
		<path class="st1" d="M25,35.6c-3.8,0-6.8,3-6.8,6.8c0,3.8,3,6.8,6.8,6.8s6.8-3,6.8-6.8C31.8,38.6,28.8,35.6,25,35.6z M26.3,37.3
			l0.1-0.2l1.4,0.6l-0.2,0.5l-0.3-0.2l0.1-0.2l-0.5-0.2l-0.2,0.5l0.6,0.2l-0.2,0.3l-0.5-0.3L26.5,39l0.2,0.2l-0.1,0.2l-0.7-0.3
			l0.1-0.2l0.2,0.1l0.5-1.2L26.3,37.3z M24.3,38.6h0.2l0.1-1.4l-0.2-0.1V37l1.5,0.1v0.5h-0.3v-0.2H25v0.5h0.6v0.3H25v0.5l0.2,0.1V39
			h-0.8L24.3,38.6z M22.5,37.8c0.1-0.2,0.2-0.3,0.5-0.4c0.2-0.1,0.4-0.1,0.6,0c0.2,0.2,0.3,0.3,0.4,0.6l0,0c0.1,0.3,0.1,0.5,0,0.7
			c-0.1,0.2-0.2,0.3-0.5,0.4c-0.2,0.1-0.4,0.1-0.6,0s-0.3-0.3-0.4-0.6l0,0C22.5,38.2,22.5,38,22.5,37.8z M21.9,40.1
			c-0.2,0-0.4-0.2-0.6-0.3v-0.1c-0.2-0.2-0.3-0.4-0.3-0.6c0-0.2,0.1-0.4,0.3-0.6c0.1-0.1,0.2-0.2,0.3-0.2c0.2-0.1,0.2-0.1,0.3-0.1
			l0.3,0.3L22,38.7l-0.2-0.2c-0.1,0-0.1,0-0.2,0s-0.2,0.1-0.2,0.2c-0.2,0.2-0.2,0.2-0.2,0.3c0,0.2,0.1,0.3,0.2,0.4l0.1,0.1
			c0.2,0.2,0.3,0.2,0.4,0.2s0.3,0,0.3-0.2c0.1-0.1,0.1-0.1,0.2-0.2c0-0.1,0.1-0.2,0.1-0.2l-0.3-0.2l0.2-0.2l0.3,0.3
			c0,0.2,0,0.2-0.1,0.3c-0.1,0.2-0.2,0.2-0.2,0.3C22.4,40,22.1,40.1,21.9,40.1z M25,44.7c-1.3,0-2.3-1-2.3-2.3c0-1.3,1-2.3,2.3-2.3
			s2.3,1,2.3,2.3C27.3,43.7,26.2,44.7,25,44.7z M28.9,39.4l-0.2-0.3l0.2-0.2l-0.4-0.4l-0.3,0.3l0.4,0.4l-0.2,0.2l-0.5-0.3l-0.3,0.3
			l0.4,0.4l0.2-0.2l0.2,0.2L28,40.3l-1-1l0.2-0.2l0.2,0.2l0.9-0.9H28l0.2-0.2l0.2,0.2l0.9,0.9L28.9,39.4z"/>
	</g>
</g>
</svg>
