<?xml version="1.0" encoding="utf-8"?>
<!-- Generator: Adobe Illustrator 21.1.0, SVG Export Plug-In . SVG Version: 6.00 Build 0)  -->
<svg version="1.1" id="Layer_1" xmlns="http://www.w3.org/2000/svg" xmlns:xlink="http://www.w3.org/1999/xlink" x="0px" y="0px"
	 width="22.6px" height="22.6px" viewBox="0 0 22.6 22.6" style="enable-background:new 0 0 22.6 22.6;" xml:space="preserve">
<g>
	<path d="M0.8,22.6h21c0.4,0,0.8-0.4,0.8-0.8v-21c0-0.4-0.4-0.8-0.8-0.8h-21C0.4,0,0,0.4,0,0.8v21C0,22.3,0.4,22.6,0.8,22.6
		L0.8,22.6z M18.4,1.6H21v3.7h-2.6V1.6z M18.4,6.9H21v3.7h-2.7L18.4,6.9L18.4,6.9z M18.4,12.1h2.7v3.7h-2.6L18.4,12.1L18.4,12.1z
		 M18.4,17.4H21V21h-2.6V17.4z M5.8,1.6h10.9v8.9H5.8V1.6z M5.8,12.1h10.9V21H5.8V12.1z M1.6,1.6h2.6v3.7H1.6V1.6z M1.6,6.9h2.6v3.7
		H1.6V6.9z M1.6,12.1h2.6v3.7H1.6V12.1z M1.6,17.4h2.6V21H1.6V17.4z M1.6,17.4"/>
</g>
</svg>
