<?xml version="1.0" encoding="utf-8"?>
<!-- Generator: Adobe Illustrator 21.1.0, SVG Export Plug-In . SVG Version: 6.00 Build 0)  -->
<svg version="1.1" id="Layer_1" xmlns="http://www.w3.org/2000/svg" xmlns:xlink="http://www.w3.org/1999/xlink" x="0px" y="0px"
	 width="24px" height="24px" viewBox="0 0 24 24" style="enable-background:new 0 0 24 24;" xml:space="preserve">
<g>
	<path d="M18.4,2.9c0.2-0.1,0.3-0.3,0.4-0.5c0-0.3,0-0.7,0-1c-0.3-0.6-0.7-0.8-1.4-0.8c-1.2,0-2.5,0-3.7,0c-0.2,0-0.3,0-0.4-0.2
		c-0.2-0.2-0.4-0.3-0.7-0.3c-0.1,0-0.3,0-0.4-0.1c-0.2,0-0.4,0-0.6,0c-0.3,0.1-0.7,0.1-0.9,0.5c0,0-0.2,0-0.3,0c-1.3,0-2.5,0-3.8,0
		C6,0.5,5.5,0.7,5.2,1.3c0,0.3,0,0.7,0,1c0.1,0.2,0.1,0.4,0.2,0.5c0.3,0.2,0.3,0.5,0.3,0.9c0,5.7,0,11.5,0,17.2c0,0.1,0,0.3,0,0.4
		c0,0.1-0.1,0.3-0.2,0.4c-0.2,0.2-0.3,0.4-0.4,0.7c0,0.3,0,0.7,0,1c0.2,0.3,0.4,0.6,0.8,0.8c4,0,8,0,12.1,0c0.3-0.2,0.6-0.4,0.8-0.8
		c0-0.3,0-0.7,0-1c-0.2-0.2-0.3-0.5-0.5-0.6c-0.1,0-0.1-0.1-0.1-0.2c0-0.1,0-0.2,0-0.3c0-5.9,0-11.9,0-17.8
		C18.2,3.1,18.2,3,18.4,2.9z M17.6,23.3c-1.9,0-3.7,0-5.6,0c-1.8,0-3.7,0-5.5,0c-0.4,0-0.5,0-0.5-0.5c0-0.5,0-0.5,0.5-0.5
		c3.7,0,7.4,0,11.1,0c0.4,0,0.5,0.1,0.5,0.5C18,23.3,18,23.3,17.6,23.3z M6.6,3.4c0-0.3,0.1-0.3,0.4-0.3c3.3,0,6.7,0,10,0
		c0.3,0,0.4,0.1,0.4,0.4c0,5.9,0,11.8,0,17.8c0,0.3-0.1,0.4-0.4,0.3c-3.3,0-6.7,0-10,0c-0.3,0-0.3-0.1-0.3-0.4c0-3,0-5.9,0-8.9
		C6.7,9.3,6.7,6.4,6.6,3.4z M17.5,2.3c-1.8,0-3.7,0-5.5,0s-3.7,0-5.5,0C6,2.3,6,2.3,6,1.8c0-0.5,0-0.5,0.5-0.5c3.7,0,7.4,0,11.1,0
		c0.5,0,0.5,0,0.5,0.5C18,2.3,18,2.3,17.5,2.3z"/>
</g>
<g>
	<path d="M12,9.4c-1.6,0-2.9-1.3-2.9-2.9s1.3-2.9,2.9-2.9c1.6,0,2.9,1.3,2.9,2.9S13.6,9.4,12,9.4z M12,4.4c-1.2,0-2.1,1-2.1,2.1
		s1,2.1,2.1,2.1s2.1-1,2.1-2.1S13.2,4.4,12,4.4z"/>
</g>
<g>
	<path d="M16,10.9H8c-0.2,0-0.4-0.2-0.4-0.4s0.2-0.4,0.4-0.4h8c0.2,0,0.4,0.2,0.4,0.4S16.2,10.9,16,10.9z"/>
</g>
<g>
	<path d="M16,20.9H8c-0.2,0-0.4-0.2-0.4-0.4s0.2-0.4,0.4-0.4h8c0.2,0,0.4,0.2,0.4,0.4S16.2,20.9,16,20.9z"/>
</g>
<g>
	<path d="M15,12.9H9c-0.2,0-0.4-0.2-0.4-0.4s0.2-0.4,0.4-0.4h6c0.2,0,0.4,0.2,0.4,0.4S15.2,12.9,15,12.9z"/>
</g>
</svg>
