<?xml version="1.0" encoding="utf-8"?>
<!-- Generator: Adobe Illustrator 19.0.0, SVG Export Plug-In . SVG Version: 6.00 Build 0)  -->
<svg version="1.1" id="Layer_1" xmlns="http://www.w3.org/2000/svg" xmlns:xlink="http://www.w3.org/1999/xlink" x="0px" y="0px"
	 viewBox="0 0 56.2 77.6" style="enable-background:new 0 0 56.2 77.6;" xml:space="preserve">
<style type="text/css">
	.st0{fill:#010101;}
</style>
<g>
	<g>
		<path class="st0" d="M44.5,21.3v-1.6c0-1,0-2.7-14.8-2.7s-14.8,1.6-14.8,2.7v1.6c-0.7,0.3-1.3,0.9-1.3,1.8v0.1v2.7v1.2
			c0,1,0.8,1.6,1.6,1.8l2.5,29.8c0,1,0.2,2.7,12.1,2.7s12.1-1.7,12.1-2.7l2.5-29.8c0.7-0.3,1.6-0.9,1.6-1.8v-1.2v-2.7v-0.1
			C45.8,22.2,45.2,21.7,44.5,21.3z M36.1,18.6c0.7,0.1,1.5,0.1,2.1,0.1c3,0.2,4.9,0.6,4.9,1l0,0c0,0.7-6,1.3-13.5,1.3
			c-7.4,0-13.5-0.6-13.5-1.3s6-1.3,13.5-1.3c1.4,0,2.7,0,4,0.1C34.5,18.5,35.3,18.5,36.1,18.6z M29.7,25.1c-8.1,0-14.8-0.9-14.8-2
			c0-0.1,0-0.1,0.1-0.2c0-0.1,0.1-0.1,0.1-0.1c0,0,0,0,0.1-0.1s0.2-0.1,0.4-0.2c0,0.6,0.7,1.9,14.1,1.9s14-1.3,14.1-1.9
			c0.1,0.1,0.3,0.1,0.4,0.2c0,0,0,0,0.1,0.1s0.1,0.1,0.1,0.1c0.1,0.1,0.1,0.1,0.1,0.2C44.5,24.2,37.9,25.1,29.7,25.1z M20.2,21.4
			c2.6,0.2,6,0.4,9.5,0.4c3.6,0,7-0.1,9.5-0.4c2.1-0.2,3.3-0.4,3.8-0.7v1.6l0,0v0.1c0,0.8-6.1,1.3-13.5,1.3s-13.4-0.5-13.4-1.3v-0.1
			v-1.6C16.9,20.9,18,21.1,20.2,21.4z M16.4,27.9c-0.2-0.1-0.4-0.1-0.6-0.2l0,0c-0.1-0.1-0.3-0.1-0.4-0.2h-0.1
			c-0.1-0.1-0.1-0.1-0.2-0.1c0,0,0,0-0.1-0.1c-0.1-0.1-0.1-0.1-0.1-0.2v-1.2V24c2.5,1.6,11.7,1.8,14.8,1.8S42,25.6,44.5,24v1.9v1.2
			c0,0.1,0,0.1-0.1,0.2c0,0,0,0-0.1,0.1s-0.1,0.1-0.2,0.1h-0.1c-0.1,0.1-0.2,0.1-0.4,0.2l0,0c-0.1,0.1-0.4,0.1-0.6,0.2
			c-2.4,0.7-7.4,1.2-13.3,1.2C23.8,29.1,18.8,28.7,16.4,27.9z M40.4,58.7c0,0.7-4.8,1.3-10.7,1.3S19,59.4,19,58.7l-2.5-30
			c3.8,1.1,11.3,1.2,13.2,1.2s9.5-0.1,13.2-1.2L40.4,58.7z"/>
		<path class="st0" d="M27.6,37c0.1,0.2,0.1,0.3,0.3,0.4c0.1,0.1,0.2,0.1,0.4,0.1c0.1-0.1,0.2-0.1,0.3-0.3c0-0.1,0-0.3-0.1-0.5l0,0
			c-0.1-0.2-0.1-0.3-0.3-0.4c-0.1-0.1-0.2-0.1-0.4-0.1c-0.1,0.1-0.2,0.1-0.3,0.3C27.5,36.6,27.5,36.7,27.6,37L27.6,37z"/>
		<path class="st0" d="M29.7,34.2c-3.9,0-7,3.1-7,7s3.1,7,7,7s7-3.1,7-7S33.6,34.2,29.7,34.2z M31.1,35.9l0.1-0.2l1.4,0.6l-0.2,0.5
			l-0.3-0.1l0.1-0.2l-0.5-0.2l-0.2,0.5L32,37l-0.1,0.3L31.3,37l-0.2,0.5l0.1,0.1l-0.1,0.2l-0.7-0.3l0.1-0.2l0.2,0.1l0.5-1.3
			L31.1,35.9z M29.1,37.2h0.2l0.1-1.4l-0.2-0.1v-0.2l1.6,0.1v0.5h-0.3v-0.2h-0.6v0.5h0.7v0.3h-0.7v0.5l0.2,0.1v0.2h-0.8L29.1,37.2z
			 M27.2,36.4c0.1-0.2,0.2-0.4,0.5-0.4c0.2-0.1,0.4-0.1,0.7,0c0.2,0.1,0.4,0.3,0.4,0.6l0,0c0.1,0.3,0.1,0.5,0,0.7s-0.2,0.4-0.5,0.4
			c-0.2,0.1-0.4,0.1-0.7,0s-0.4-0.3-0.4-0.6l0,0C27.1,36.8,27.1,36.6,27.2,36.4z M26.5,38.7c-0.2,0-0.4-0.1-0.7-0.3v-0.1
			c-0.2-0.2-0.3-0.4-0.3-0.7c0-0.2,0.1-0.4,0.3-0.7c0.1-0.1,0.2-0.1,0.4-0.2c0.1-0.1,0.2-0.1,0.4-0.1l0.3,0.3l-0.3,0.2l-0.2-0.1
			c-0.1,0-0.1,0-0.1,0c-0.1,0-0.1,0.1-0.1,0.1c-0.1,0.1-0.1,0.2-0.1,0.4c0,0.1,0.1,0.3,0.2,0.4l0.1,0.1c0.1,0.1,0.3,0.2,0.4,0.2
			c0.1,0,0.3,0,0.4-0.1c0.1-0.1,0.1-0.1,0.1-0.1c0-0.1,0.1-0.1,0.1-0.1L27,37.7l0.2-0.2l0.3,0.3c0,0.1,0,0.2-0.1,0.4
			s-0.1,0.2-0.2,0.4C27,38.7,26.8,38.7,26.5,38.7z M29.7,43.5c-1.3,0-2.4-1-2.4-2.4s1-2.4,2.4-2.4c1.3,0,2.4,1,2.4,2.4
			C32.1,42.5,31,43.5,29.7,43.5z M33.8,38l-0.2-0.2l0.1-0.1l-0.4-0.4l-0.4,0.4l0.4,0.4l-0.2,0.2l-0.4-0.4l-0.4,0.4l0.4,0.4l0.1-0.1
			l0.2,0.2L32.8,39l-1.1-1l0.1-0.1l0.1,0.1l1-1l-0.1-0.1l0.1-0.1l0.1,0.1l1,0.9L33.8,38z"/>
	</g>
	<g>
		<path class="st0" d="M55.5,14.3L41.8,0.7L41.1,0h-1H6.9C5.1,0,3.4,0.7,2.1,2.1C0.7,3.3,0,5,0,6.8v63.9c0,1.8,0.7,3.5,2.1,4.8
			s3,2.1,4.8,2.1h42.4c1.8,0,3.5-0.7,4.8-2.1c1.3-1.3,2.1-3,2.1-4.8V16v-1L55.5,14.3z M53.3,15.4H40.7V2.8L53.3,15.4z M52.5,74
			c-0.9,0.9-2.1,1.4-3.2,1.4H6.9c-1.1,0-2.3-0.4-3.2-1.4c-0.9-0.9-1.4-2.1-1.4-3.2v-64c0-1.1,0.4-2.3,1.4-3.2
			c0.9-0.9,2.1-1.4,3.2-1.4h32.8v14.3h14.3v54.3C53.9,71.9,53.5,73,52.5,74z"/>
	</g>
	<rect x="4.9" y="66.2" class="st0" width="22.1" height="2.2"/>
	<rect x="30.2" y="66.2" class="st0" width="22.1" height="2.2"/>
	<rect x="17.7" y="9.1" class="st0" width="22.6" height="2.3"/>
</g>
</svg>
