<?xml version="1.0" encoding="utf-8"?>
<!-- Generator: Adobe Illustrator 19.0.0, SVG Export Plug-In . SVG Version: 6.00 Build 0)  -->
<svg version="1.1" id="Layer_1" xmlns="http://www.w3.org/2000/svg" xmlns:xlink="http://www.w3.org/1999/xlink" x="0px" y="0px"
	 width="18.8px" height="21px" viewBox="0 0 18.8 21" style="enable-background:new 0 0 18.8 21;" xml:space="preserve">
<style type="text/css">
	.st0{fill:#333333;}
</style>
<g>
	<g>
		<path class="st0" d="M9.4,21c-0.1,0-0.2,0-0.4-0.1c-7.2-2.6-8.6-10-9-15.3C0,5,0.4,4.5,0.9,4.4C4,4,6.5,2.7,8.6,0.3
			c0.4-0.5,1.2-0.5,1.6,0c2.1,2.3,4.6,3.7,7.6,4.1c0.6,0.1,1,0.6,0.9,1.2c-0.4,5.3-1.9,12.7-9,15.3C9.6,21,9.5,21,9.4,21z M2.3,6.4
			c0.7,6.7,3,10.7,7.1,12.3c4.1-1.7,6.4-5.6,7.1-12.3c-2.7-0.6-5.1-1.8-7.1-3.8C7.4,4.6,5,5.8,2.3,6.4z"/>
	</g>
	<g>
		<path class="st0" d="M8.3,14.3c-0.3,0-0.6-0.1-0.8-0.3l-2.8-2.8l1.5-1.5l2,2l4.8-4.8l1.5,1.5L9,14C8.8,14.2,8.6,14.3,8.3,14.3z"/>
	</g>
</g>
</svg>
