<?xml version="1.0" encoding="utf-8"?>
<!-- Generator: Adobe Illustrator 21.1.0, SVG Export Plug-In . SVG Version: 6.00 Build 0)  -->
<svg version="1.1" id="Layer_1" xmlns="http://www.w3.org/2000/svg" xmlns:xlink="http://www.w3.org/1999/xlink" x="0px" y="0px"
	 width="107.2px" height="94px" viewBox="0 0 107.2 94" style="enable-background:new 0 0 107.2 94;" xml:space="preserve">
<style type="text/css">
	.st0{fill:#EDECED;}
	.st1{fill:#333333;}
	.st2{fill:none;}
	.st3{fill:#989898;}
	.st4{font-family:'Montserrat-Light';}
	.st5{font-size:12.7222px;}
</style>
<path class="st0" d="M73.2,94H20.8c-9.6,0-17.5-7.8-17.5-17.5V24.1c0-9.6,7.8-17.5,17.5-17.5h52.4c9.6,0,17.5,7.8,17.5,17.5v52.4
	C90.7,86.2,82.9,94,73.2,94z"/>
<g>
	<path class="st1" d="M80.8,41.7h-4.9V3.8C75.9,1.7,74.1,0,72,0H26c-0.7,0-1.2,0.5-1.2,1.2c0,0.7,0.5,1.2,1.2,1.2H72
		c0.8,0,1.4,0.6,1.4,1.4v37.9H8.6V3.8c0-0.8,0.6-1.4,1.4-1.4h5.8c0.7,0,1.2-0.5,1.2-1.2C17,0.5,16.4,0,15.7,0H10
		C7.9,0,6.2,1.7,6.2,3.8v37.9H1.2c-0.7,0-1.2,0.5-1.2,1.2v2.7c0,4,3.3,7.3,7.3,7.3h67.5c4,0,7.3-3.3,7.3-7.3v-2.7
		C82,42.2,81.5,41.7,80.8,41.7z M79.6,45.6c0,2.7-2.2,4.8-4.8,4.8H7.3c-2.7,0-4.8-2.2-4.8-4.8v-1.5h4.9h67.2h4.9L79.6,45.6
		L79.6,45.6z"/>
	<path class="st1" d="M69,5H12.9c-0.7,0-1.2,0.5-1.2,1.2v31.8c0,0.7,0.5,1.2,1.2,1.2h39.8c0.7,0,1.2-0.5,1.2-1.2
		c0-0.7-0.5-1.2-1.2-1.2H14.1V7.5h53.7v29.4h-5.4c-0.7,0-1.2,0.5-1.2,1.2c0,0.7,0.5,1.2,1.2,1.2H69c0.7,0,1.2-0.5,1.2-1.2V6.3
		C70.2,5.6,69.7,5,69,5z"/>
	<path class="st1" d="M48.9,45.8H33.3c-0.7,0-1.2,0.5-1.2,1.2s0.5,1.2,1.2,1.2h15.6c0.7,0,1.2-0.5,1.2-1.2S49.6,45.8,48.9,45.8z"/>
	<g>
		<g>
			<path class="st1" d="M28.9,21.5H18.8c-1.5,0-2.8-1.2-2.8-2.8v-7.2c0-1.5,1.2-2.8,2.8-2.8h10.2c1.5,0,2.8,1.2,2.8,2.8v7.2
				C31.7,20.2,30.5,21.5,28.9,21.5z M18.8,9.8c-1,0-1.8,0.8-1.8,1.8v7.2c0,1,0.8,1.8,1.8,1.8h10.2c1,0,1.8-0.8,1.8-1.8v-7.2
				c0-1-0.8-1.8-1.8-1.8H18.8z"/>
		</g>
	</g>
	<g>
		<g>
			<path class="st1" d="M28.9,35.3H18.8c-1.5,0-2.8-1.2-2.8-2.8v-7.2c0-1.5,1.2-2.8,2.8-2.8h10.2c1.5,0,2.8,1.2,2.8,2.8v7.2
				C31.7,34,30.5,35.3,28.9,35.3z M18.8,23.6c-1,0-1.8,0.8-1.8,1.8v7.2c0,1,0.8,1.8,1.8,1.8h10.2c1,0,1.8-0.8,1.8-1.8v-7.2
				c0-1-0.8-1.8-1.8-1.8H18.8z"/>
		</g>
	</g>
	<path class="st1" d="M59,29.6l-4.3-4.3l3-1.8c0.2-0.1,0.4-0.4,0.4-0.7c0-0.3-0.2-0.5-0.4-0.6l-13.6-5.4c-0.3-0.1-0.6,0-0.8,0.2
		c-0.2,0.2-0.3,0.5-0.2,0.8l5.4,13.6c0.1,0.3,0.3,0.4,0.6,0.4c0.3,0,0.5-0.1,0.7-0.4l1.8-3l4.3,4.3c0.1,0.1,0.3,0.2,0.5,0.2
		c0.2,0,0.4-0.1,0.5-0.2l2.1-2.1C59.3,30.3,59.3,29.9,59,29.6L59,29.6z M59,29.6"/>
	<g>
		<path class="st2" d="M46.6,9.8H36.5c-1,0-1.8,0.8-1.8,1.8v7.2c0,1,0.8,1.8,1.8,1.8h6.3l-0.9-2.3c-0.3-0.8-0.1-1.8,0.5-2.4
			c0.6-0.6,1.6-0.8,2.4-0.5l3.6,1.5v-5.2C48.4,10.6,47.6,9.8,46.6,9.8z"/>
		<path class="st2" d="M34.7,25.4v7.2c0,1,0.8,1.8,1.8,1.8h10.2c0.8,0,1.5-0.6,1.7-1.4c-0.5-0.2-0.9-0.6-1.1-1.1L44,23.6h-7.5
			C35.5,23.6,34.7,24.4,34.7,25.4z"/>
		<path class="st2" d="M63.8,20.5c1,0,1.8-0.8,1.8-1.8v-7.2c0-1-0.8-1.8-1.8-1.8H53.6c-1,0-1.8,0.8-1.8,1.8v6.6l5.8,2.3H63.8z"/>
		<path class="st1" d="M36.5,20.5c-1,0-1.8-0.8-1.8-1.8v-7.2c0-1,0.8-1.8,1.8-1.8h10.2c1,0,1.8,0.8,1.8,1.8v5.2l1,0.4v-5.6
			c0-1.5-1.2-2.8-2.8-2.8H36.5c-1.5,0-2.8,1.2-2.8,2.8v7.2c0,1.5,1.2,2.8,2.8,2.8h6.7l-0.4-1H36.5z"/>
		<path class="st1" d="M63.8,8.8H53.6c-1.5,0-2.8,1.2-2.8,2.8v6.2l1,0.4v-6.6c0-1,0.8-1.8,1.8-1.8h10.2c1,0,1.8,0.8,1.8,1.8v7.2
			c0,1-0.8,1.8-1.8,1.8h-6.2l0.7,0.3c0.4,0.2,0.7,0.4,0.9,0.7h4.5c1.5,0,2.8-1.2,2.8-2.8v-7.2C66.5,10,65.3,8.8,63.8,8.8z"/>
		<path class="st1" d="M48.3,32.9c-0.2,0.8-0.9,1.4-1.7,1.4H36.5c-1,0-1.8-0.8-1.8-1.8v-7.2c0-1,0.8-1.8,1.8-1.8H44l-0.4-1h-7.1
			c-1.5,0-2.8,1.2-2.8,2.8v7.2c0,1.5,1.2,2.8,2.8,2.8h10.2c1.3,0,2.4-0.9,2.7-2.1c0,0-0.1,0-0.1,0C48.9,33.1,48.6,33,48.3,32.9z"/>
	</g>
</g>
<g>
	<path class="st1" d="M29.9,57.1c-1.3,0-2.5,0.6-3.3,1.6c-0.8-1-2-1.6-3.3-1.6c-0.5,0-0.9,0.4-0.9,0.9c0,0.5,0.4,0.9,0.9,0.9
		c1.3,0,2.3,1.1,2.3,2.4v15.8c0,1.3-1.1,2.4-2.3,2.4c-0.5,0-0.9,0.4-0.9,0.9c0,0.5,0.4,0.9,0.9,0.9c1.3,0,2.5-0.6,3.3-1.6
		c0.8,1,2,1.6,3.3,1.6c0.5,0,0.9-0.4,0.9-0.9c0-0.5-0.4-0.9-0.9-0.9c-1.3,0-2.3-1.1-2.3-2.4V61.3c0-1.3,1.1-2.4,2.3-2.4
		c0.5,0,0.9-0.4,0.9-0.9C30.8,57.6,30.4,57.1,29.9,57.1L29.9,57.1z M29.9,57.1"/>
	<g>
		<g>
			<polygon class="st1" points="23.6,75.7 15.3,75.7 15.3,62.7 23.6,62.7 23.6,60.8 13.5,60.8 13.5,77.5 23.6,77.5 			"/>
			<polygon class="st1" points="29.4,60.8 29.4,62.7 105.3,62.7 105.3,75.7 29.4,75.7 29.4,77.5 107.2,77.5 107.2,60.8 			"/>
		</g>
	</g>
	<text transform="matrix(1 0 0 1 32.3716 73.5085)" class="st3 st4 st5">coffeeeee!</text>
</g>
</svg>
