<?xml version="1.0" encoding="utf-8"?>
<!-- Generator: Adobe Illustrator 21.1.0, SVG Export Plug-In . SVG Version: 6.00 Build 0)  -->
<svg version="1.1" id="Layer_1" xmlns="http://www.w3.org/2000/svg" xmlns:xlink="http://www.w3.org/1999/xlink" x="0px" y="0px"
	 width="24.6px" height="26.7px" viewBox="0 0 24.6 26.7" style="enable-background:new 0 0 24.6 26.7;" xml:space="preserve">
<style type="text/css">
	.st0{fill:#333333;}
</style>
<path class="st0" d="M24.6,6.3c0-0.1,0-0.1-0.1-0.2c-0.1-0.3-0.4-0.5-0.7-0.6L12.8,0.1c-0.3-0.1-0.6-0.1-0.9,0L0.6,5.5
	C0.3,5.7,0,6.1,0,6.5v13.7c0,0.4,0.2,0.8,0.6,1l11.1,5.4l0.2,0.1l0.3,0l0.1-0.4l0,0.4c0,0,0.1,0,0.1,0c0,0,0.1,0,0.1,0L24,21.1
	c0.4-0.2,0.6-0.6,0.6-1L24.6,6.3L24.6,6.3z M11.2,12.6v11.2l-9-4.4V8.3L11.2,12.6z M13.4,12.6l3.8-1.8v2.5c0,0.6,0.5,1.1,1.1,1.1
	s1.1-0.5,1.1-1.1V9.8l3.1-1.5v11.2l-9.1,4.4V12.6z M9.7,3.5l2.6-1.3L21,6.5l-2.6,1.3L9.7,3.5z M16,9l-3.7,1.8L3.6,6.5l3.7-1.8L16,9z
	"/>
</svg>
