<?xml version="1.0" encoding="utf-8"?>
<!-- Generator: Adobe Illustrator 21.1.0, SVG Export Plug-In . SVG Version: 6.00 Build 0)  -->
<svg version="1.1" id="Layer_1" xmlns="http://www.w3.org/2000/svg" xmlns:xlink="http://www.w3.org/1999/xlink" x="0px" y="0px"
	 width="35.4px" height="28.6px" viewBox="0 0 35.4 28.6" style="enable-background:new 0 0 35.4 28.6;" xml:space="preserve">
<style type="text/css">
	.st0{fill:#333333;}
	.st1{fill:none;}
</style>
<g>
	<rect x="9.5" y="7.8" class="st0" width="16.7" height="0.5"/>
	<rect x="17.9" y="4.5" class="st0" width="5.6" height="1"/>
	<rect x="12.4" y="9.6" class="st0" width="5.6" height="1"/>
	<g>
		<rect x="19.3" y="9.3" class="st0" width="4.3" height="1"/>
		<rect x="19.3" y="9.3" class="st0" width="1" height="4.3"/>
		<rect x="19.3" y="13.6" class="st0" width="4.3" height="1"/>
		<rect x="22.6" y="10.3" class="st0" width="1" height="4.3"/>
	</g>
	<g>
		<path class="st0" d="M25.2,2.1v18.8H10.5V2.1H25.2 M27.2,0.1H8.5v22.8h18.6V0.1L27.2,0.1z"/>
	</g>
	<rect x="12.4" y="11.5" class="st0" width="5.6" height="1"/>
	<rect x="12.4" y="13.4" class="st0" width="5.6" height="1"/>
	<rect x="11.9" y="15.8" class="st0" width="12" height="0.5"/>
	<g>
		<path class="st0" d="M17.3,5.9l-1.1-1.1V3h-0.8V4l-1.1-1.1l-3,3V6H12v1.9h1.9V6.8h0.8v1.1h1.9V6h0.8V5.9z M17.3,5.9"/>
	</g>
	<g>
		<polygon class="st1" points="23,2.6 25,2.6 25,2 10.4,2 10.4,2.6 12.4,2.6 		"/>
		<polygon class="st0" points="10.4,2 25,2 25,2.6 27,2.6 27,0 8.4,0 8.4,2.6 10.4,2.6 		"/>
		<g>
			<rect x="18.8" y="22.8" class="st1" width="2.2" height="0.6"/>
			<rect x="6.3" y="4.6" class="st1" width="2" height="1.2"/>
			<polygon class="st1" points="4.3,25.4 4.3,7.8 2,7.8 2,26.6 16.6,26.6 16.6,25.4 12.4,25.4 			"/>
			<polygon class="st1" points="12.4,23.4 12.4,22.8 8.4,22.8 8.4,7.8 6.3,7.8 6.3,23.4 			"/>
			<rect x="14.4" y="22.8" class="st1" width="2.2" height="0.6"/>
			<rect x="27" y="4.6" class="st1" width="2" height="1.2"/>
			<polygon class="st1" points="23,25.4 18.8,25.4 18.8,26.6 33.4,26.6 33.4,7.8 31.1,7.8 31.1,25.4 			"/>
			<polygon class="st1" points="27,22.8 23,22.8 23,23.4 29.1,23.4 29.1,7.8 27,7.8 			"/>
			<rect x="8.4" y="4.6" class="st0" width="2" height="1.2"/>
			<rect x="25" y="4.6" class="st0" width="2" height="1.2"/>
			<rect x="18.8" y="20.8" class="st0" width="2.2" height="2"/>
			<polygon class="st0" points="25,20.8 23,20.8 23,22.8 27,22.8 27,7.8 25,7.8 			"/>
			<rect x="14.4" y="20.8" class="st0" width="2.2" height="2"/>
			<polygon class="st0" points="10.4,20.8 10.4,7.8 8.4,7.8 8.4,22.8 12.4,22.8 12.4,20.8 			"/>
			<polygon class="st0" points="12.4,25.4 12.4,23.4 6.3,23.4 6.3,7.8 4.3,7.8 4.3,25.4 			"/>
			<polygon class="st0" points="6.3,4.6 8.4,4.6 8.4,2.6 4.3,2.6 4.3,5.8 6.3,5.8 			"/>
			<rect x="8.4" y="2.6" class="st0" width="2" height="2"/>
			<rect x="21" y="20.8" class="st0" width="2" height="2"/>
			<polygon class="st0" points="29.1,4.6 29.1,5.8 31.1,5.8 31.1,2.6 27,2.6 27,4.6 			"/>
			<polygon class="st0" points="29.1,23.4 23,23.4 23,25.4 31.1,25.4 31.1,7.8 29.1,7.8 			"/>
			<rect x="25" y="2.6" class="st0" width="2" height="2"/>
			<rect x="12.4" y="20.8" class="st0" width="2" height="2"/>
			<polygon class="st0" points="14.4,23.4 12.4,23.4 12.4,25.4 16.6,25.4 16.6,23.4 			"/>
			<polygon class="st0" points="23,23.4 21,23.4 18.8,23.4 18.8,25.4 23,25.4 			"/>
			<rect x="16.6" y="22.8" class="st0" width="0.1" height="0.6"/>
			<polygon class="st0" points="16.6,25.4 16.6,26.6 2,26.6 2,7.8 4.3,7.8 4.3,5.8 0,5.8 0,28.6 16.8,28.6 16.8,25.4 			"/>
			<rect x="16.6" y="20.8" class="st0" width="0.1" height="2"/>
			<rect x="8.4" y="5.8" class="st0" width="2" height="2"/>
			<rect x="4.3" y="5.8" class="st0" width="2" height="2"/>
			<rect x="16.6" y="23.4" class="st0" width="0.1" height="2"/>
			<polygon class="st0" points="31.1,5.8 31.1,7.8 33.4,7.8 33.4,26.6 18.8,26.6 18.8,25.4 18.6,25.4 18.6,28.6 35.4,28.6 35.4,5.8 
							"/>
			<rect x="18.6" y="22.8" class="st0" width="0.1" height="0.6"/>
			<rect x="25" y="5.8" class="st0" width="2" height="2"/>
			<rect x="18.6" y="20.8" class="st0" width="0.1" height="2"/>
			<rect x="29.1" y="5.8" class="st0" width="2" height="2"/>
			<rect x="18.6" y="23.4" class="st0" width="0.1" height="2"/>
			<rect x="16.8" y="22.8" class="st0" width="1.9" height="0.6"/>
			<rect x="16.8" y="25.4" class="st0" width="1.9" height="3.2"/>
			<rect x="16.8" y="20.8" class="st0" width="1.9" height="2"/>
			<rect x="16.8" y="23.4" class="st0" width="1.9" height="2"/>
		</g>
	</g>
</g>
</svg>
