<?xml version="1.0" encoding="utf-8"?>
<!-- Generator: Adobe Illustrator 21.1.0, SVG Export Plug-In . SVG Version: 6.00 Build 0)  -->
<svg version="1.1" id="Layer_1" xmlns="http://www.w3.org/2000/svg" xmlns:xlink="http://www.w3.org/1999/xlink" x="0px" y="0px"
	 width="18.6px" height="29.8px" viewBox="0 0 18.6 29.8" style="enable-background:new 0 0 18.6 29.8;" xml:space="preserve">
<style type="text/css">
	.st0{fill:#333333;}
</style>
<g>
	<rect x="1" y="7.8" class="st0" width="16.7" height="0.5"/>
	<rect x="9.4" y="4.4" class="st0" width="5.6" height="1"/>
	<rect x="3.9" y="9.5" class="st0" width="5.6" height="1"/>
	<g>
		<rect x="10.7" y="9.2" class="st0" width="4.3" height="1"/>
		<rect x="10.7" y="9.2" class="st0" width="1" height="4.3"/>
		<rect x="10.7" y="13.5" class="st0" width="4.3" height="1"/>
		<rect x="14.1" y="10.2" class="st0" width="1" height="4.3"/>
	</g>
	<g>
		<path class="st0" d="M16.6,2v25.8H2V2H16.6 M18.6,0H0v29.8h18.6V0L18.6,0z"/>
	</g>
	<rect x="3.9" y="11.4" class="st0" width="5.6" height="1"/>
	<rect x="3.9" y="13.3" class="st0" width="5.6" height="1"/>
	<rect x="3.4" y="15.8" class="st0" width="12" height="0.5"/>
	<g>
		<path class="st0" d="M4.9,18c0.5,0,0.9,0.4,0.9,0.9s-0.4,0.9-0.9,0.9S4,19.4,4,18.9S4.4,18,4.9,18 M4.9,17.5
			c-0.8,0-1.4,0.6-1.4,1.4c0,0.8,0.6,1.4,1.4,1.4s1.4-0.6,1.4-1.4C6.3,18.1,5.6,17.5,4.9,17.5L4.9,17.5z"/>
	</g>
	<g>
		<path class="st0" d="M9.3,18c0.5,0,0.9,0.4,0.9,0.9s-0.4,0.9-0.9,0.9s-0.9-0.4-0.9-0.9S8.8,18,9.3,18 M9.3,17.5
			c-0.8,0-1.4,0.6-1.4,1.4c0,0.8,0.6,1.4,1.4,1.4s1.4-0.6,1.4-1.4C10.6,18.1,10,17.5,9.3,17.5L9.3,17.5z"/>
	</g>
	<g>
		<path class="st0" d="M13.6,18c0.5,0,0.9,0.4,0.9,0.9s-0.4,0.9-0.9,0.9s-0.9-0.4-0.9-0.9S13.2,18,13.6,18 M13.6,17.5
			c-0.8,0-1.4,0.6-1.4,1.4c0,0.8,0.6,1.4,1.4,1.4s1.4-0.6,1.4-1.4C15,18.1,14.4,17.5,13.6,17.5L13.6,17.5z"/>
	</g>
	<rect x="3.9" y="21.1" class="st0" width="1.9" height="0.5"/>
	<rect x="8.3" y="21" class="st0" width="1.9" height="0.5"/>
	<rect x="12.6" y="21.1" class="st0" width="1.9" height="0.5"/>
	<rect x="0.8" y="25.3" class="st0" width="16.7" height="0.5"/>
	<rect x="3.4" y="23.4" class="st0" width="12" height="0.5"/>
	<g>
		<path class="st0" d="M8.7,5.8L7.6,4.6V2.9H6.8v0.9L5.7,2.7l-3,3V6h0.8v1.9h1.9V6.7h0.8v1.1H8V6h0.8V5.8z M8.7,5.8"/>
	</g>
</g>
</svg>
