<?xml version="1.0" encoding="utf-8"?>
<!-- Generator: Adobe Illustrator 21.1.0, SVG Export Plug-In . SVG Version: 6.00 Build 0)  -->
<svg version="1.1" id="Layer_1" xmlns="http://www.w3.org/2000/svg" xmlns:xlink="http://www.w3.org/1999/xlink" x="0px" y="0px"
	 width="20.9px" height="20.9px" viewBox="0 0 20.9 20.9" style="enable-background:new 0 0 20.9 20.9;" xml:space="preserve">
<style type="text/css">
	.st0{fill:#333333;}
</style>
<g>
	<path class="st0" d="M13,2.5c-0.5-0.3-1-0.3-1.5,0c0,0-0.1,0.1-0.1,0.1L7,6.7H4.3c-0.8,0-1.5,0.7-1.5,1.5v4.3
		c0,0.8,0.7,1.5,1.5,1.5l2.7,0l4.3,4c0,0,0.1,0.1,0.1,0.1c0.2,0.1,0.5,0.2,0.7,0.2c0.3,0,0.5-0.1,0.7-0.2c0.5-0.3,0.7-0.7,0.7-1.3
		V3.8C13.7,3.3,13.4,2.8,13,2.5z M12.2,3.9v12.7l-4.2-4c0,0-0.1-0.1-0.1-0.1c-0.2-0.1-0.5-0.2-0.7-0.2H4.4V8.2h2.7
		c0.3,0,0.5-0.1,0.7-0.2C7.9,8,7.9,7.9,8,7.9L12.2,3.9z"/>
	<path class="st0" d="M16,5.9c-0.1-0.1-0.3-0.2-0.5-0.2h0c-0.2,0-0.4,0.1-0.5,0.2c-0.1,0.1-0.2,0.3-0.2,0.5c0,0.2,0.1,0.4,0.2,0.5
		c0.9,0.9,1.4,2.2,1.4,3.5c0,1.3-0.5,2.6-1.4,3.5c-0.1,0.1-0.2,0.3-0.2,0.5c0,0.2,0.1,0.4,0.2,0.5c0.1,0.1,0.3,0.2,0.5,0.2
		c0.2,0,0.4-0.1,0.5-0.2c1.2-1.2,1.9-2.8,1.9-4.5S17.2,7.1,16,5.9z"/>
	<path class="st0" d="M10.4,0C4.7,0,0,4.7,0,10.4s4.7,10.4,10.4,10.4c5.8,0,10.4-4.7,10.4-10.4S16.2,0,10.4,0z M10.4,19.4
		c-4.9,0-8.9-4-8.9-8.9s4-8.9,8.9-8.9c4.9,0,8.9,4,8.9,8.9S15.4,19.4,10.4,19.4z"/>
</g>
</svg>
