<?xml version="1.0" encoding="utf-8"?>
<!-- Generator: Adobe Illustrator 19.0.0, SVG Export Plug-In . SVG Version: 6.00 Build 0)  -->
<svg version="1.1" id="Layer_1" xmlns="http://www.w3.org/2000/svg" xmlns:xlink="http://www.w3.org/1999/xlink" x="0px" y="0px"
	 viewBox="-569.6 275.3 52.5 85" style="enable-background:new -569.6 275.3 52.5 85;" xml:space="preserve">
<style type="text/css">
	.st0{fill:#010101;}
	.st1{clip-path:url(#SVGID_2_);}
	.st2{clip-path:url(#SVGID_4_);}
</style>
<g>
	<g>
		<path class="st0" d="M-524.6,275.3h-37.5c-4.1,0-7.5,3.4-7.5,7.5v70c0,4.1,3.4,7.5,7.5,7.5h37.5c4.1,0,7.5-3.4,7.5-7.5v-70
			C-517,278.7-520.4,275.3-524.6,275.3z M-519.6,352.8c0,2.7-2.2,5-5,5h-37.5c-2.7,0-5-2.2-5-5v-70c0-2.7,2.2-5,5-5h37.5
			c2.7,0,5,2.2,5,5V352.8z"/>
		<g>
			<path d="M-523,285.5v0.4v58.7v0.4h-0.4h-39.9h-0.5v-0.4V286v-0.5h0.4h39.9H-523 M-522.2,284.8h-1.2h-39.9h-1.2v1.2v58.7v1.2h1.2
				h39.9h1.2v-1.2V286V284.8L-522.2,284.8z"/>
		</g>
		<g>
			<g>
				<g>
					<defs>
						<rect id="SVGID_1_" x="-566.2" y="308.7" width="42.3" height="36.2"/>
					</defs>
					<clipPath id="SVGID_2_">
						<use xlink:href="#SVGID_1_"  style="overflow:visible;"/>
					</clipPath>
					<g class="st1">
						<path class="st0" d="M-531.8,330c-0.4,0-0.7,0-1.2,0.1V326c0-3.5-8.1-5.2-15.5-5.2c-7.4,0-15.5,1.7-15.5,5.2v28.9
							c0,4,9.8,5,15.5,5c5.7,0,15.5-1,15.5-5v-4.4c0.4,0.1,0.7,0.1,1.2,0.1c3.8,0,6.9-3.1,6.9-6.9v-6.9
							C-524.9,333.1-527.9,330-531.8,330z M-562.7,325.6c0.1-0.4,0.5-0.8,1-1.1c0.4-0.2,0.8-0.4,1.3-0.7c0.7-0.3,1.7-0.6,2.7-0.9
							c2.5-0.6,5.7-1,9.1-1c3.5,0,6.7,0.4,9.1,1c1,0.2,2,0.5,2.7,0.9c0.5,0.2,1,0.4,1.3,0.7c0.5,0.4,0.9,0.7,1,1.1
							c0.1,0.1,0.1,0.3,0.1,0.4c0,2.1-6.4,4-14.3,4c-7.8,0.1-14.2-1.8-14.2-3.9C-562.7,325.9-562.7,325.7-562.7,325.6z
							 M-548.4,358.9c-7.9,0-14.3-1.7-14.3-3.9v-27.6c1.9,2.1,8.3,3.3,14.3,3.3s12.4-1.2,14.3-3.3v2.7l0,0v21l0,0v3.9
							C-534.1,357.1-540.5,358.9-548.4,358.9z M-526.1,343.8c0,3.1-2.5,5.8-5.8,5.8c-0.6,0-1.2-0.1-1.7-0.3v-2.4
							c0.5,0.3,1.1,0.4,1.7,0.4c1.9,0,3.5-1.5,3.5-3.5v-6.9c0-1.9-1.5-3.5-3.5-3.5c-0.7,0-1.3,0.1-1.7,0.4v-2.4
							c0.5-0.1,1.1-0.3,1.7-0.3c3.2,0,5.8,2.5,5.8,5.8V343.8z M-532.9,345.8v-10.9c0.4-0.2,0.7-0.3,1.2-0.3c1.3,0,2.3,1,2.3,2.3v6.9
							c0,1.3-1,2.3-2.3,2.3C-532.2,346.1-532.6,346-532.9,345.8z"/>
						<path class="st0" d="M-548.4,329.2c4.4,0,12.8-0.7,12.8-3.3c0-2.5-8.4-3.3-12.8-3.3c-4.4,0-12.8,0.9-12.8,3.4
							C-561.2,328.6-552.8,329.2-548.4,329.2z M-548.4,323.4c6.7,0,12.2,1.2,12.2,2.7c0,0.6-1,1.2-2.7,1.6c-2.4-0.6-5.5-1-9.4-1
							c-3.9,0-7.1,0.4-9.5,1c-1.8-0.4-2.8-1-2.8-1.7C-560.6,324.6-555.1,323.4-548.4,323.4z"/>
					</g>
				</g>
			</g>
			<g>
				<g>
					<defs>
						<rect id="SVGID_3_" x="-566.2" y="308.7" width="42.3" height="36.2"/>
					</defs>
					<clipPath id="SVGID_4_">
						<use xlink:href="#SVGID_3_"  style="overflow:visible;"/>
					</clipPath>
					<g class="st2">
						<path class="st0" d="M-550.1,337.9c0.1,0.2,0.2,0.4,0.4,0.5c0.1,0.1,0.3,0.1,0.5,0.1c0.2-0.1,0.3-0.2,0.4-0.4
							c0.1-0.1,0-0.4-0.1-0.6l0,0c-0.1-0.2-0.2-0.4-0.4-0.5c-0.1-0.1-0.3-0.1-0.5-0.1c-0.2,0.1-0.3,0.2-0.4,0.4
							C-550.2,337.4-550.2,337.6-550.1,337.9L-550.1,337.9z"/>
						<path class="st0" d="M-547.4,334.3c-4.9,0-8.8,3.8-8.8,8.8c0,4.9,3.8,8.8,8.8,8.8s8.8-3.8,8.8-8.8
							C-538.7,338.2-542.6,334.3-547.4,334.3z M-545.7,336.5l0.1-0.3l1.8,0.7l-0.2,0.6l-0.4-0.1l0.1-0.3l-0.7-0.3l-0.3,0.6l0.7,0.3
							l-0.1,0.4l-0.7-0.3l-0.2,0.6l0.2,0.1l-0.1,0.3l-1-0.4l0.1-0.3l0.2,0.1l0.7-1.6L-545.7,336.5z M-548.2,338.1l0.2-0.1l0.1-1.6
							l-0.2-0.1V336l1.9,0.1v0.7h-0.4v-0.3h-0.7v0.7h0.8v0.4h-0.8v0.7l0.2,0.1v0.3h-1L-548.2,338.1z M-550.5,337.1
							c0.1-0.3,0.3-0.5,0.6-0.6c0.3-0.1,0.6-0.1,0.9,0.1c0.3,0.2,0.4,0.4,0.6,0.7l0,0c0.1,0.3,0.1,0.7,0,0.9
							c-0.1,0.3-0.3,0.5-0.6,0.6c-0.3,0.1-0.6,0.1-0.8-0.1c-0.3-0.1-0.4-0.4-0.6-0.7l0,0C-550.7,337.7-550.7,337.4-550.5,337.1z
							 M-551.3,339.9c-0.3,0-0.6-0.1-0.8-0.4l-0.1-0.1c-0.2-0.2-0.4-0.5-0.4-0.8c0-0.3,0.1-0.6,0.4-0.8c0.1-0.1,0.3-0.2,0.4-0.3
							c0.1-0.1,0.3-0.1,0.4-0.1l0.3,0.4l-0.2,0.2l-0.2-0.2c-0.1,0-0.1,0-0.2,0.1c-0.1,0-0.1,0.1-0.2,0.1c-0.1,0.1-0.2,0.3-0.2,0.5
							c0,0.2,0.1,0.4,0.3,0.5l0.1,0.1c0.1,0.1,0.4,0.3,0.5,0.3c0.2,0,0.4,0,0.5-0.1c0.1-0.1,0.1-0.1,0.1-0.2
							c0.1-0.1,0.1-0.1,0.1-0.2l-0.1-0.3l0.2-0.2l0.3,0.4c0,0.1,0,0.3-0.1,0.4c-0.1,0.1-0.1,0.3-0.3,0.4
							C-550.8,339.9-551.1,340-551.3,339.9z M-547.4,346c-1.6,0-3-1.3-3-3c0-1.6,1.3-3,3-3c1.6,0,3,1.3,3,3
							C-544.5,344.7-545.8,346-547.4,346z M-542.3,339.1l-0.3-0.2l0.1-0.2l-0.5-0.5l-0.4,0.4l0.6,0.6l-0.3,0.2l-0.6-0.6l-0.4,0.5
							l0.5,0.5l0.2-0.2l0.3,0.2l-0.4,0.4l-1.3-1.3l0.2-0.2l0.2,0.1l1.2-1.3l-0.2-0.1l0.2-0.2l0.1,0.1l1.2,1.1L-542.3,339.1z"/>
					</g>
				</g>
			</g>
		</g>
		<g>
			<polygon class="st0" points="-538.2,310.1 -546,314.6 -546,305.6 			"/>
			<path class="st0" d="M-543.4,301.3c-4.9,0-8.9,4-8.9,8.9s4,8.9,8.9,8.9c4.9,0,8.9-4,8.9-8.9S-538.5,301.3-543.4,301.3z
				 M-543.4,317.4c-4.1,0-7.3-3.3-7.3-7.3s3.3-7.3,7.3-7.3s7.3,3.3,7.3,7.3S-539.3,317.4-543.4,317.4z"/>
		</g>
	</g>
	<path class="st0" d="M-543.4,348.2c-1.9,0-3.4,1.6-3.4,3.4c0,1.8,1.6,3.4,3.4,3.4c1.9,0,3.4-1.6,3.4-3.4
		C-540,349.8-541.4,348.2-543.4,348.2z M-543.4,353.9c-1.3,0-2.3-1-2.3-2.3c0-1.3,1-2.3,2.3-2.3s2.3,1,2.3,2.3
		C-541.1,352.9-542.1,353.9-543.4,353.9z"/>
	<circle class="st0" cx="-543.4" cy="281.5" r="1.1"/>
</g>
</svg>
