<?xml version="1.0" encoding="utf-8"?>
<!-- Generator: Adobe Illustrator 19.0.0, SVG Export Plug-In . SVG Version: 6.00 Build 0)  -->
<svg version="1.1" id="Layer_1" xmlns="http://www.w3.org/2000/svg" xmlns:xlink="http://www.w3.org/1999/xlink" x="0px" y="0px"
	 width="20.1px" height="17.4px" viewBox="0 0 20.1 17.4" style="enable-background:new 0 0 20.1 17.4;" xml:space="preserve">
<style type="text/css">
	.st0{fill:#666667;}
</style>
<path class="st0" d="M17.1,0c-2.8-0.1-4.7,1.5-5.7,4.7c0.5-0.2,1-0.3,1.5-0.3c1,0,1.5,0.6,1.3,1.7c-0.1,0.7-0.5,1.7-1.3,3
	c-0.8,1.3-1.5,2-1.9,2c-0.5,0-1-1-1.5-3.1C9.4,7.4,9.2,5.9,8.8,3.4C8.4,1.1,7.4,0.1,5.9,0.2C5.2,0.3,4.2,0.9,2.9,2
	C2,2.9,1,3.8,0,4.7l0.9,1.2c0.9-0.6,1.4-0.9,1.6-0.9c0.7,0,1.3,1.1,1.9,3.2c0.5,2,1.1,4,1.6,6c0.8,2.2,1.8,3.2,3,3.2
	c1.9,0,4.2-1.8,6.9-5.3C18.6,8.7,20,6,20,4C20.2,1.4,19.2,0.1,17.1,0L17.1,0z M17.1,0"/>
</svg>
