<?xml version="1.0" encoding="utf-8"?>
<!-- Generator: Adobe Illustrator 21.1.0, SVG Export Plug-In . SVG Version: 6.00 Build 0)  -->
<svg version="1.1" id="Layer_1" xmlns="http://www.w3.org/2000/svg" xmlns:xlink="http://www.w3.org/1999/xlink" x="0px" y="0px"
	 width="54.2px" height="95.6px" viewBox="0 0 54.2 95.6" style="enable-background:new 0 0 54.2 95.6;" xml:space="preserve">
<style type="text/css">
	.st0{fill:#D7D7D7;}
	.st1{fill:#333333;}
	.st2{fill:#FFFFFF;}
	.st3{font-family:'Montserrat-Bold';}
	.st4{font-size:9px;}
</style>
<g>
	<rect y="0.4" class="st0" width="53.2" height="20.9"/>
	<rect x="0.8" y="86.7" class="st0" width="53.2" height="8.1"/>
	<rect x="3" y="20.2" class="st1" width="48.5" height="1.3"/>
	<rect x="27.3" y="11.5" class="st1" width="16.1" height="2.6"/>
	<g>
		<path class="st1" d="M52.2,2v91.6h-50V2H52.2 M54.2,0h-54v95.6h54V0L54.2,0z"/>
	</g>
	<rect x="1.3" y="86.5" class="st1" width="52.3" height="1.3"/>
	<g>
		<path class="st1" d="M25.4,14.7l-3.3-3.3V6.5h-2.2v2.7l-3.3-3.3l-8.8,8.8v0.5H10v5.5h5.5v-3.3h2.2v3.3h5.5v-5.5h2.2V14.7z
			 M25.4,14.7"/>
	</g>
	<rect x="44.3" y="3.1" class="st1" width="6.8" height="1.4"/>
	<rect x="36.8" y="3.1" class="st1" width="6.8" height="1.4"/>
	<rect x="29.2" y="3.1" class="st1" width="6.8" height="1.4"/>
	<rect x="3.5" y="35.7" class="st1" width="46.7" height="11.5"/>
	<rect x="3.5" y="48.5" class="st1" width="46.7" height="11.5"/>
	<rect x="3.5" y="61.4" class="st1" width="46.7" height="11.5"/>
	<rect x="3.5" y="22.8" class="st1" width="46.7" height="11.5"/>
	<rect x="3.5" y="74.2" class="st1" width="46.7" height="11.5"/>
	<text transform="matrix(1.1124 0 0 1 23.3778 31.9363)" class="st2 st3 st4">1</text>
	<text transform="matrix(1.1124 0 0 1 23.3778 44.8111)" class="st2 st3 st4">2</text>
	<text transform="matrix(1.1124 0 0 1 23.3778 57.6862)" class="st2 st3 st4">3</text>
	<text transform="matrix(1.1124 0 0 1 23.3778 70.5612)" class="st2 st3 st4">4</text>
	<text transform="matrix(1.1124 0 0 1 23.3778 83.4363)" class="st2 st3 st4">5</text>
</g>
</svg>
