<?xml version="1.0" encoding="utf-8"?>
<!-- Generator: Adobe Illustrator 19.0.0, SVG Export Plug-In . SVG Version: 6.00 Build 0)  -->
<svg version="1.1" id="Layer_1" xmlns="http://www.w3.org/2000/svg" xmlns:xlink="http://www.w3.org/1999/xlink" x="0px" y="0px"
	 viewBox="-572.7 278.8 59.7 78" style="enable-background:new -572.7 278.8 59.7 78;" xml:space="preserve">
<style type="text/css">
	.st0{fill:#010101;}
</style>
<g>
	<path class="st0" d="M-542.8,346c-1.9,0-3.5,1.6-3.5,3.5c0,1.9,1.6,3.5,3.5,3.5c1.9,0,3.5-1.6,3.5-3.5
		C-539.3,347.6-540.9,346-542.8,346z M-542.8,351.8c-1.3,0-2.3-1-2.3-2.3c0-1.3,1-2.3,2.3-2.3c1.3,0,2.3,1,2.3,2.3
		C-540.5,350.8-541.6,351.8-542.8,351.8z"/>
	<path class="st0" d="M-519.9,278.8h-45.9c-3.8,0-6.9,3.1-6.9,6.9v64.2c0,3.8,3.1,6.9,6.9,6.9h45.9c3.8,0,6.9-3.1,6.9-6.9v-64.2
		C-513,282-516.1,278.8-519.9,278.8z M-515.3,350c0,2.5-2.1,4.6-4.6,4.6h-45.9c-1.3,0-2.4-0.5-3.3-1.3c-0.8-0.8-1.3-2-1.3-3.3v-64.3
		c0-1.3,0.5-2.4,1.3-3.3c0.8-0.9,2-1.3,3.3-1.3h45.9c2.5,0,4.6,2.1,4.6,4.6V350L-515.3,350z"/>
	<path class="st0" d="M-565.7,345.2h45.6V288h-45.6V345.2z M-564.5,289.2h43.3V344h-43.3V289.2z"/>
	<circle class="st0" cx="-542.8" cy="284.5" r="1.2"/>
	<g>
		<path class="st0" d="M-546.5,300.3c0.1,0.3,0.3,0.6,0.5,0.7c0.2,0.1,0.4,0.1,0.7,0.1c0.3-0.1,0.4-0.3,0.5-0.5
			c0.1-0.2,0-0.5-0.1-0.9v-0.1c-0.1-0.3-0.3-0.6-0.5-0.7s-0.4-0.1-0.7-0.1c-0.3,0.1-0.4,0.3-0.4,0.5
			C-546.7,299.6-546.7,299.9-546.5,300.3L-546.5,300.3z"/>
		<path class="st0" d="M-542.8,295.3c-6.9,0-12.3,5.4-12.3,12.3c0,6.9,5.4,12.3,12.3,12.3c6.9,0,12.3-5.4,12.3-12.3
			C-530.5,300.7-536,295.3-542.8,295.3z M-540.4,298.4l0.1-0.4l2.4,1l-0.4,0.8l-0.4-0.2l0.1-0.4l-1-0.4l-0.4,0.8l1.1,0.4l-0.2,0.4
			l-0.9-0.3l-0.4,0.8l0.3,0.2l-0.1,0.4l-1.3-0.4l0.1-0.4l0.4,0.1l0.9-2.2L-540.4,298.4z M-543.9,300.7l0.4-0.1l0.1-2.4l-0.4-0.1
			v-0.4l2.7,0.1v0.9h-0.5v-0.3h-1.1v0.9h1.2v0.5h-1.2v0.9l0.4,0.1v0.4l-1.4-0.1L-543.9,300.7z M-547.2,299.2
			c0.1-0.4,0.4-0.7,0.8-0.8c0.4-0.1,0.8-0.1,1.2,0.1c0.4,0.2,0.7,0.5,0.8,1v0.1c0.1,0.4,0.2,0.9,0.1,1.3c-0.1,0.4-0.4,0.7-0.9,0.8
			c-0.4,0.1-0.8,0.1-1.2-0.1c-0.4-0.2-0.7-0.5-0.8-1v-0.2C-547.4,300-547.4,299.5-547.2,299.2z M-548.3,303.2
			c-0.4,0-0.8-0.2-1.1-0.6l-0.1-0.1c-0.4-0.3-0.5-0.7-0.5-1.1s0.1-0.8,0.4-1.1c0.2-0.1,0.4-0.3,0.6-0.4s0.4-0.1,0.6-0.1l0.4,0.4
			l-0.4,0.4l-0.2-0.2c-0.1,0-0.2,0-0.3,0.1c-0.1,0.1-0.2,0.1-0.3,0.2c-0.2,0.2-0.3,0.4-0.3,0.7c0,0.3,0.1,0.5,0.4,0.7l0.1,0.1
			c0.2,0.2,0.5,0.4,0.7,0.4c0.3,0.1,0.5,0,0.7-0.2c0.1-0.1,0.1-0.2,0.2-0.3c0.1-0.1,0.1-0.2,0.1-0.3l-0.2-0.4l0.4-0.4l0.4,0.4
			c0,0.2,0,0.4-0.1,0.6c-0.1,0.2-0.2,0.4-0.4,0.6C-547.6,303.2-547.9,303.3-548.3,303.2z M-542.8,311.7c-2.3,0-4.1-1.8-4.1-4.1
			c0-2.3,1.8-4.1,4.1-4.1c2.3,0,4.1,1.8,4.1,4.1C-538.7,309.9-540.5,311.7-542.8,311.7z M-535.7,302.1l-0.4-0.4l0.2-0.3l-0.7-0.7
			l-0.6,0.6l0.8,0.8l-0.4,0.3l-0.7-0.8l-0.7,0.7l0.7,0.7l0.3-0.3l0.4,0.4l-0.7,0.7l-1.9-1.8l0.3-0.3l0.3,0.2l1.6-1.7l-0.2-0.3
			l0.3-0.3l0.2,0.2l1.6,1.6L-535.7,302.1z"/>
	</g>
	<path class="st0" d="M-520,345.2v-15c-0.4,0-1.3-0.4-1.3-0.4l-10.1-10.1l-10.8,10.8l0,0l-4.4,4.5l-10.2-7.7l-7.5,7.6
		c0,0-0.9,0.7-1.3,0.6v9.5L-520,345.2L-520,345.2z M-545.7,335.8l7-7.1l4.6-2.3l2.7,2.7l2.7-2.7l4.6,2.3l2.3,2.3v11.9h-29.3
		c1-0.7,1.6-1.8,1.6-3c0-0.1,0-0.1,0-0.1L-545.7,335.8z M-563.8,336.1l7-7.1l9.2,6.9l-2.4,2.4c-0.6-1.2-1.8-2-3.2-2
		c-2,0-3.6,1.6-3.6,3.6c0,1.3,0.6,2.3,1.6,3h-8.6V336.1z"/>
	<rect x="-540.5" y="339.1" class="st0" width="16" height="1.6"/>
</g>
</svg>
