<?xml version="1.0" encoding="utf-8"?>
<!-- Generator: Adobe Illustrator 21.1.0, SVG Export Plug-In . SVG Version: 6.00 Build 0)  -->
<svg version="1.1" id="Capa_1" xmlns="http://www.w3.org/2000/svg" xmlns:xlink="http://www.w3.org/1999/xlink" x="0px" y="0px"
	 width="20.6px" height="17px" viewBox="0 0 20.6 17" style="enable-background:new 0 0 20.6 17;" xml:space="preserve">
<path d="M20.6,2.8h-1.4V1.4h-1.4V0H2.8v1.4H1.4v1.4H0v11.4h1.4v1.4h1.4V17h14.9v-1.4h1.4v-1.4h1.4V2.8z M0.7,13.5V3.5h0.7v9.9H0.7z
	 M2.1,14.9v-0.7V2.8V2.1h0.7v12.8H2.1z M17,16.3H3.5v-0.7V1.4V0.7H17v0.7v14.2V16.3z M18.5,14.9h-0.7V2.1h0.7v0.7v11.4V14.9z
	 M19.9,13.5h-0.7V3.5h0.7V13.5z"/>
</svg>
