<?xml version="1.0" encoding="utf-8"?>
<!-- Generator: Adobe Illustrator 21.1.0, SVG Export Plug-In . SVG Version: 6.00 Build 0)  -->
<svg version="1.1" id="Layer_1" xmlns="http://www.w3.org/2000/svg" xmlns:xlink="http://www.w3.org/1999/xlink" x="0px" y="0px"
	 width="56px" height="24px" viewBox="0 0 56 24" style="enable-background:new 0 0 56 24;" xml:space="preserve">
<style type="text/css">
	.st0{fill:#686868;}
</style>
<path d="M20.9,19.3h-2.1v-1.2c-0.8,0.9-1.5,1.4-2.2,1.4c-0.7,0-1.1-0.3-1.3-0.9c-0.1-0.4-0.2-0.9-0.2-1.7v-9h2.1v9.3
	c0,0.3,0.2,0.4,0.5,0.4c0.4,0,0.8-0.4,1.2-1V7.9h2.1L20.9,19.3 M13.4,11.6c0-1.2-0.2-2.1-0.7-2.7c-0.6-0.8-1.4-1.1-2.4-1.1
	c-1,0-1.8,0.3-2.4,1.1c-0.4,0.6-0.7,1.5-0.7,2.7v4.1c0,1.2,0.2,2,0.6,2.6c0.6,0.8,1.5,1.2,2.4,1.2c0.9,0,1.8-0.4,2.4-1.2
	c0.4-0.6,0.6-1.4,0.6-2.6L13.4,11.6L13.4,11.6z M11.3,15.9c0.1,1.1-0.2,1.7-0.9,1.7c-0.7,0-1-0.6-0.9-1.7v-4.5
	c-0.1-1.1,0.2-1.7,0.9-1.7c0.6,0,1,0.5,0.9,1.7V15.9z M5,13.1v6.2H2.8v-6.2c0,0-2.3-7.6-2.8-9.1h2.3l1.6,6l1.6-5.9h2.3L5,13.1"/>
<path class="st0" d="M42.7,9.7c-0.3,0-0.7,0.2-1,0.5v6.9c0.3,0.3,0.7,0.5,1,0.5c0.6,0,0.8-0.4,0.8-1.5v-4.9
	C43.6,10,43.3,9.7,42.7,9.7 M51.1,11.1c0-1.1-0.3-1.4-0.9-1.4s-1,0.3-1,1.4v1.2h1.9L51.1,11.1"/>
<path class="st0" d="M55.7,5.3c0,0-0.3-2.3-1.3-3.3c-1.3-1.4-2.7-1.4-3.3-1.4c-4.7-0.3-11.7-0.3-11.7-0.3h0c0,0-7,0-11.7,0.3
	C27,0.6,25.5,0.6,24.3,2c-1,1-1.3,3.3-1.3,3.3s-0.3,2.7-0.3,5.4v2.6c0,2.7,0.3,5.4,0.3,5.4s0.3,2.3,1.3,3.3c1.3,1.3,2.9,1.3,3.7,1.4
	c2.7,0.3,11.3,0.3,11.3,0.3s7,0,11.7-0.3c0.7-0.1,2.1-0.1,3.3-1.4c1-1,1.3-3.3,1.3-3.3S56,16,56,13.3v-2.6C56,8,55.7,5.3,55.7,5.3z
	 M30,19.3h-2.2v-13h-2.4V4.2h7v2.1H30L30,19.3L30,19.3z M38,19.3h-2.1v-1.2c-0.8,0.9-1.5,1.4-2.2,1.4c-0.7,0-1.1-0.3-1.3-0.9
	c-0.1-0.4-0.2-0.9-0.2-1.7V8h2.1v9.2c0,0.3,0.2,0.4,0.5,0.4c0.4,0,0.8-0.4,1.2-1V8H38V19.3z M45.7,15.9c0,1-0.1,1.8-0.2,2.3
	c-0.3,0.8-0.9,1.3-1.7,1.3c-0.7,0-1.5-0.4-2.1-1.3v1.1h-2V4.2h2v4.9c0.7-0.8,1.4-1.3,2.2-1.3c0.8,0,1.3,0.5,1.6,1.3
	c0.2,0.5,0.3,1.2,0.3,2.3C45.7,11.4,45.7,15.9,45.7,15.9z M50.2,17.6c0.5,0,0.8-0.3,0.9-0.8c0-0.1,0-0.6,0-1.4h2.1v0.3
	c0,0.7,0,1.1-0.1,1.3c-0.1,0.5-0.2,0.9-0.5,1.2c-0.6,0.8-1.4,1.2-2.5,1.2s-1.8-0.4-2.4-1.2c-0.4-0.6-0.7-1.4-0.7-2.6v-4
	c0-1.2,0.2-2.1,0.7-2.7c0.6-0.8,1.4-1.2,2.4-1.2S52,8.2,52.6,9c0.4,0.6,0.7,1.5,0.7,2.7V14h-4v2C49.2,17.1,49.5,17.6,50.2,17.6
	L50.2,17.6z"/>
</svg>
