<?xml version="1.0" encoding="utf-8"?>
<!-- Generator: Adobe Illustrator 19.0.0, SVG Export Plug-In . SVG Version: 6.00 Build 0)  -->
<svg version="1.1" id="Layer_1" xmlns="http://www.w3.org/2000/svg" xmlns:xlink="http://www.w3.org/1999/xlink" x="0px" y="0px"
	 width="22px" height="22px" viewBox="0 0 22 22" style="enable-background:new 0 0 22 22;" xml:space="preserve">
<style type="text/css">
	.st0{fill:#333333;}
</style>
<g>
	<g>
		<path class="st0" d="M11,15.5c-2,0-4.1-2-5.1-4.6c-0.8-0.3-1.4-1.3-1.4-2.4c-0.1-1,0.3-2,0.9-2.4C5.6,3.1,6.5,0,11,0
			s5.4,3.1,5.6,6c0.6,0.5,1,1.4,0.9,2.4c-0.1,1.1-0.7,2-1.4,2.4C15.1,13.5,13,15.5,11,15.5z M11,1.8C8.3,1.8,7.3,3,7.2,6.6l0,0.7
			L6.5,7.4c-0.1,0-0.3,0.4-0.2,0.9c0,0.5,0.3,0.8,0.4,0.9l0.7,0l0.2,0.6c0.7,2.4,2.4,3.8,3.6,3.8s2.8-1.5,3.6-3.8l0.2-0.6l0.7,0
			c0.1,0,0.3-0.3,0.4-0.9c0-0.5-0.2-0.9-0.3-0.9l-0.6-0.2l0-0.7C14.7,3,13.7,1.8,11,1.8z"/>
	</g>
	<g>
		<path class="st0" d="M11,22c-4,0-7.9-0.7-10.5-1.9C0.2,20,0,19.7,0,19.3c0-4,2.4-6.6,7.2-7.7l0.4,1.7c-3.7,0.9-5.6,2.6-5.8,5.4
			c2.3,0.9,5.7,1.5,9.2,1.5s6.9-0.5,9.2-1.5c-0.2-2.8-2.1-4.5-5.8-5.4l0.4-1.7c4.8,1.1,7.2,3.7,7.2,7.7c0,0.3-0.2,0.7-0.5,0.8
			C18.9,21.3,15,22,11,22z"/>
	</g>
</g>
</svg>
