<?xml version="1.0" encoding="utf-8"?>
<!-- Generator: Adobe Illustrator 19.0.0, SVG Export Plug-In . SVG Version: 6.00 Build 0)  -->
<svg version="1.1" id="Layer_1" xmlns="http://www.w3.org/2000/svg" xmlns:xlink="http://www.w3.org/1999/xlink" x="0px" y="0px"
	 width="16.6px" height="17.8px" viewBox="0 0 16.6 17.8" style="enable-background:new 0 0 16.6 17.8;" xml:space="preserve">
<style type="text/css">
	.st0{fill:#333333;}
</style>
<path class="st0" d="M13,2.7l-1.1,1.6c1.7,1.2,2.7,3.1,2.7,5.2c0,3.5-2.8,6.3-6.3,6.3S2,13,2,9.5c0-1.6,0.6-3.2,1.7-4.3l0.1,1.6
	c0,0.3,0.2,0.6,0.5,0.7c0.1,0,0.1,0,0.2,0c0.2,0,0.5-0.1,0.6-0.3l4.2-6c0.2-0.2,0.2-0.6,0-0.8C9.1,0.1,8.8,0,8.6,0L1.3,1.2
	C1,1.2,0.8,1.5,0.7,1.8C0.7,2.1,0.8,2.4,1.1,2.6l1.6,0.8C1,5,0,7.2,0,9.5c0,4.6,3.7,8.3,8.3,8.3s8.3-3.7,8.3-8.3
	C16.6,6.8,15.2,4.2,13,2.7z M7.1,1.7l-2,2.8L5.1,3.4c0-0.3-0.2-0.5-0.4-0.6l-1-0.5L7.1,1.7z"/>
</svg>
