<?xml version="1.0" encoding="utf-8"?>
<!-- Generator: Adobe Illustrator 21.1.0, SVG Export Plug-In . SVG Version: 6.00 Build 0)  -->
<svg version="1.1" id="Layer_1" xmlns="http://www.w3.org/2000/svg" xmlns:xlink="http://www.w3.org/1999/xlink" x="0px" y="0px"
	 width="120.3px" height="120.3px" viewBox="0 0 120.3 120.3" style="enable-background:new 0 0 120.3 120.3;" xml:space="preserve"
	>
<style type="text/css">
	.st0{fill:#E0E0E0;}
	.st1{fill:#848484;}
</style>
<g>
	<path class="st0" d="M9.5,4.7h106c2.7,0,4.8,2.2,4.8,4.8v106c0,2.7-2.2,4.8-4.8,4.8H9.5c-2.7,0-4.8-2.2-4.8-4.8V9.5
		C4.7,6.8,6.8,4.7,9.5,4.7z"/>
</g>
<g>
	<g>
		<rect x="1.7" y="114.3" class="st1" width="6" height="6"/>
	</g>
	<g>
		<path class="st1" d="M7.7,102.9h-6V91.5h6V102.9z M7.7,80h-6V68.6h6V80z M7.7,57.2h-6V45.7h6V57.2z M7.7,34.3h-6V22.9h6V34.3z
			 M7.7,11.4h-6V9.5c0-4.3,3.5-7.8,7.8-7.8h1.9v6H9.5c-1,0-1.8,0.8-1.8,1.8V11.4z M102.9,7.7H91.5v-6h11.4V7.7z M80,7.7H68.6v-6H80
			V7.7z M57.2,7.7H45.7v-6h11.4V7.7z M34.3,7.7H22.8v-6h11.4V7.7z"/>
	</g>
	<g>
		<rect x="114.3" y="1.7" class="st1" width="6" height="6"/>
	</g>
</g>
</svg>
