<?xml version="1.0" encoding="utf-8"?>
<!-- Generator: Adobe Illustrator 21.1.0, SVG Export Plug-In . SVG Version: 6.00 Build 0)  -->
<svg version="1.1" id="Layer_1" xmlns="http://www.w3.org/2000/svg" xmlns:xlink="http://www.w3.org/1999/xlink" x="0px" y="0px"
	 width="120.3px" height="120.3px" viewBox="0 0 120.3 120.3" style="enable-background:new 0 0 120.3 120.3;" xml:space="preserve"
	>
<style type="text/css">
	.st0{fill:#E0E0E0;}
	.st1{fill:#848484;}
</style>
<g>
	<path class="st0" d="M56.9,4.7h58.6c2.7,0,4.8,2.2,4.8,4.8v106c0,2.7-2.2,4.8-4.8,4.8H9.5c-2.7,0-4.8-2.2-4.8-4.8V56.9
		C4.7,28.1,28.1,4.7,56.9,4.7z"/>
</g>
<g>
	<g>
		<path class="st1" d="M3.9,121.7c-1.7-1.6-2.7-3.8-2.7-6.2v-8h7v8c0,0.4,0.2,0.7,0.4,1L3.9,121.7z M8.2,95.4h-7v-12h7V95.4z
			 M8.2,71.3h-7v-12h7V71.3z M9,47.9l-6.9-1.3c0.8-4.2,2.1-8.3,3.8-12.3l6.4,2.8C10.8,40.6,9.7,44.2,9,47.9z M18,27.6l-5.6-4.2
			c2.6-3.4,5.6-6.5,8.9-9.3l4.5,5.4C22.9,21.8,20.3,24.6,18,27.6z M35.2,13.3l-3.1-6.3c3.8-1.9,7.9-3.4,12.1-4.4l1.6,6.8
			C42.1,10.4,38.5,11.6,35.2,13.3z M116,8.3c-0.1-0.1-0.3-0.1-0.5-0.1h-10.4v-7h10.4c1,0,1.9,0.2,2.9,0.5L116,8.3z M93.1,8.2H81v-7
			h12V8.2z M69,8.2h-12l-0.1-7H69V8.2z"/>
	</g>
</g>
</svg>
